<?xml version="1.0" encoding="utf-8"?>
<!-- Generator: Adobe Illustrator 22.1.0, SVG Export Plug-In . SVG Version: 6.00 Build 0)  -->
<svg version="1.1" id="Layer_1" xmlns="http://www.w3.org/2000/svg" xmlns:xlink="http://www.w3.org/1999/xlink" x="0px" y="0px"
	 viewBox="0 0 283.5 283.5" style="enable-background:new 0 0 283.5 283.5;" xml:space="preserve">
<style type="text/css">
	.st0{fill:#FFFFFF;}
	.st1{fill:#BE8110;}
	.st2{fill:#221F21;}
	.st3{fill:#FDCF8B;}
	.st4{fill:#7D539D;}
	.st5{fill:#87BEE8;}
</style>
<g id="Layer_9">
	<path class="st0" d="M246.7,283.5h-210C16.5,283.5,0,266.9,0,246.7v-210C0,16.5,16.5,0,36.7,0h210c20.2,0,36.7,16.5,36.7,36.7v210
		C283.5,266.9,266.9,283.5,246.7,283.5z"/>
</g>
<g id="Amulet">
	<path class="st1" d="M232.7,119.2c-5-11.7-12.1-22.3-21.1-31.4c-9.1-9.1-19.6-16.2-31.4-21.1c-8.8-3.7-17.9-6.1-27.3-7.1
		c1.2-0.9,2.3-2,3.2-3.2c0.1-0.1,0.1-0.2,0.2-0.2c0.1-0.1,0.2-0.3,0.3-0.4c0.1-0.1,0.1-0.2,0.2-0.3c0.1-0.1,0.2-0.3,0.3-0.4
		c0.1-0.1,0.1-0.2,0.2-0.3c0.1-0.2,0.2-0.4,0.3-0.5c1.5-2.7,2.4-5.7,2.4-9c0-10-8.1-18.2-18.2-18.2s-18.2,8.1-18.2,18.2
		c0,3.3,0.9,6.4,2.4,9c0.1,0.2,0.2,0.4,0.3,0.5c0.1,0.1,0.1,0.2,0.2,0.3s0.2,0.3,0.3,0.4c0.1,0.1,0.1,0.2,0.2,0.3
		c0.1,0.2,0.2,0.3,0.3,0.4c0.1,0.1,0.1,0.2,0.2,0.2c0.9,1.2,2,2.2,3.2,3.2c-9.4,1-18.6,3.4-27.3,7.1c-11.7,5-22.3,12.1-31.4,21.1
		c-9.1,9.1-16.2,19.6-21.1,31.4c-5.1,12.2-7.8,25.1-7.8,38.4s2.6,26.2,7.8,38.4c5,11.7,12.1,22.3,21.1,31.4
		c9.1,9.1,19.6,16.2,31.4,21.1c12.2,5.1,25.1,7.8,38.4,7.8c13.3,0,26.2-2.6,38.4-7.8c11.7-5,22.3-12.1,31.4-21.1
		c9.1-9.1,16.2-19.6,21.1-31.4c5.1-12.2,7.8-25.1,7.8-38.4S237.8,131.4,232.7,119.2z M141.9,52.9c-4.3,0-7.7-3.5-7.7-7.7
		c0-4.3,3.5-7.7,7.7-7.7c4.3,0,7.7,3.5,7.7,7.7C149.6,49.4,146.2,52.9,141.9,52.9z"/>
	<path class="st2" d="M163.8,55.2c1.4-3.1,2.2-6.4,2.2-10c0-13.4-10.8-24.2-24.2-24.2s-24.2,10.8-24.2,24.2c0,3.6,0.8,7,2.2,10
		c-47.3,10.1-82.7,52.1-82.7,102.4c0,57.8,46.9,104.7,104.7,104.7s104.7-46.9,104.7-104.7C246.5,107.3,211.1,65.3,163.8,55.2z
		 M211.6,227.4c-9.1,9.1-19.6,16.2-31.4,21.1c-12.2,5.1-25.1,7.8-38.4,7.8c-13.3,0-26.2-2.6-38.4-7.8c-11.7-5-22.3-12.1-31.4-21.1
		c-9.1-9.1-16.2-19.6-21.1-31.4c-5.1-12.2-7.8-25.1-7.8-38.4s2.6-26.2,7.8-38.4c5-11.7,12.1-22.3,21.1-31.4
		c9.1-9.1,19.6-16.2,31.4-21.1c8.8-3.7,17.9-6.1,27.3-7.1c-1.2-0.9-2.3-2-3.2-3.2c-0.1-0.1-0.1-0.2-0.2-0.2
		c-0.1-0.1-0.2-0.3-0.3-0.4c-0.1-0.1-0.1-0.2-0.2-0.3s-0.2-0.3-0.3-0.4c-0.1-0.1-0.1-0.2-0.2-0.3c-0.1-0.2-0.2-0.4-0.3-0.5
		c-1.5-2.7-2.4-5.7-2.4-9c0-10,8.1-18.2,18.2-18.2S160,35.2,160,45.3c0,3.3-0.9,6.4-2.4,9c-0.1,0.2-0.2,0.4-0.3,0.5
		s-0.1,0.2-0.2,0.3c-0.1,0.1-0.2,0.3-0.3,0.4c-0.1,0.1-0.1,0.2-0.2,0.3c-0.1,0.2-0.2,0.3-0.3,0.4c-0.1,0.1-0.1,0.2-0.2,0.2
		c-0.9,1.2-2,2.2-3.2,3.2c9.4,1,18.6,3.4,27.3,7.1c11.7,5,22.3,12.1,31.4,21.1c9.1,9.1,16.2,19.6,21.1,31.4
		c5.1,12.2,7.8,25.1,7.8,38.4s-2.6,26.2-7.8,38.4C227.7,207.8,220.6,218.3,211.6,227.4z"/>
	<path class="st3" d="M141.9,81.5c10.3,0,20.2,2,29.6,6c9.1,3.8,17.2,9.3,24.2,16.3s12.5,15.1,16.3,24.2c4,9.4,6,19.3,6,29.6
		s-2,20.2-6,29.6c-3.8,9.1-9.3,17.2-16.3,24.2s-15.1,12.5-24.2,16.3c-9.4,4-19.3,6-29.6,6s-20.2-2-29.6-6
		c-9.1-3.8-17.2-9.3-24.2-16.3s-12.5-15.1-16.3-24.2c-4-9.4-6-19.3-6-29.6s2-20.2,6-29.6c3.8-9.1,9.3-17.2,16.3-24.2
		s15.1-12.5,24.2-16.3C121.7,83.5,131.7,81.5,141.9,81.5"/>
	<path class="st2" d="M141.9,83c10.1,0,19.8,2,29,5.9c8.9,3.8,16.9,9.1,23.7,16c6.9,6.9,12.2,14.8,16,23.7c3.9,9.2,5.9,19,5.9,29
		s-2,19.8-5.9,29c-3.8,8.9-9.1,16.9-16,23.7s-14.8,12.2-23.7,16c-9.2,3.9-19,5.9-29,5.9c-10.1,0-19.8-2-29-5.9
		c-8.9-3.8-16.9-9.1-23.7-16c-6.9-6.9-12.2-14.8-16-23.7c-3.9-9.2-5.9-19-5.9-29s2-19.8,5.9-29c3.8-8.9,9.1-16.9,16-23.7
		c6.9-6.9,14.8-12.2,23.7-16C122.1,85,131.9,83,141.9,83 M141.9,77c-44.5,0-80.6,36.1-80.6,80.6s36.1,80.6,80.6,80.6
		s80.6-36.1,80.6-80.6S186.5,77,141.9,77L141.9,77z"/>
	<path class="st0" d="M141.9,117.7c5.4,0,10.6,1.1,15.5,3.1c4.8,2,9,4.9,12.7,8.6s6.5,7.9,8.6,12.7c2.1,4.9,3.1,10.1,3.1,15.5
		s-1.1,10.6-3.1,15.5c-2,4.8-4.9,9-8.6,12.7c-3.7,3.7-7.9,6.5-12.7,8.6c-4.9,2.1-10.1,3.1-15.5,3.1s-10.6-1.1-15.5-3.1
		c-4.8-2-9-4.9-12.7-8.6c-3.7-3.7-6.5-7.9-8.6-12.7c-2.1-4.9-3.1-10.1-3.1-15.5s1.1-10.6,3.1-15.5c2-4.8,4.9-9,8.6-12.7
		s7.9-6.5,12.7-8.6C131.3,118.8,136.5,117.7,141.9,117.7"/>
	<g>
		<path class="st4" d="M159,184l-17.3,3.6l-22.1-3.6l-11.9-5.8c1.7,2.7,3.7,5.3,6,7.6c3.7,3.7,7.9,6.5,12.7,8.6
			c4.9,2.1,10.1,3.1,15.5,3.1s10.6-1.1,15.5-3.1c4.8-2,9-4.9,12.7-8.6c3.1-3.1,5.7-6.7,7.6-10.6L159,184z"/>
		<path class="st4" d="M121.6,131l24.9-3.8l19.2,6.5l11.9,5.9c-1.9-3.8-4.4-7.2-7.4-10.2c-3.7-3.7-7.9-6.5-12.7-8.6
			c-4.9-2.1-10.1-3.1-15.5-3.1s-10.6,1.1-15.5,3.1c-4.8,2-9,4.9-12.7,8.6c-3.1,3.1-5.7,6.7-7.6,10.7L121.6,131z"/>
	</g>
	<path class="st2" d="M141.9,118.8c10.4,0,20.1,4,27.4,11.4c7.3,7.3,11.4,17.1,11.4,27.4s-4,20.1-11.4,27.4s-17.1,11.4-27.4,11.4
		s-20.1-4-27.4-11.4c-7.3-7.3-11.4-17.1-11.4-27.4s4-20.1,11.4-27.4C121.8,122.9,131.6,118.8,141.9,118.8 M141.9,112.8
		c-24.8,0-44.8,20.1-44.8,44.8s20.1,44.8,44.8,44.8s44.8-20.1,44.8-44.8S166.7,112.8,141.9,112.8L141.9,112.8z"/>
	<path class="st5" d="M141.9,141.6c8.8,0,16,7.2,16,16s-7.2,16-16,16s-16-7.2-16-16S133.1,141.6,141.9,141.6"/>
	<path class="st2" d="M141.9,142.4c8.4,0,15.2,6.8,15.2,15.2s-6.8,15.2-15.2,15.2s-15.2-6.8-15.2-15.2S133.6,142.4,141.9,142.4
		 M141.9,136.4c-11.7,0-21.2,9.5-21.2,21.2s9.5,21.2,21.2,21.2s21.2-9.5,21.2-21.2S153.6,136.4,141.9,136.4L141.9,136.4z"/>
	<circle class="st2" cx="141.9" cy="157.6" r="8.5"/>
	<g>
		<g>
			<path class="st2" d="M141.9,64.8c-1.7,0-3,1.4-3,3c0,1.7,1.4,3,3,3s3-1.4,3-3C145,66.2,143.6,64.8,141.9,64.8L141.9,64.8z"/>
			<path class="st2" d="M141.9,244.1c-1.7,0-3,1.4-3,3s1.4,3,3,3s3-1.4,3-3S143.6,244.1,141.9,244.1L141.9,244.1z"/>
		</g>
		<g>
			<path class="st2" d="M52.3,154.5c-1.7,0-3,1.4-3,3s1.4,3,3,3c1.7,0,3-1.4,3-3S54,154.5,52.3,154.5L52.3,154.5z"/>
			<path class="st2" d="M231.6,154.5c-1.7,0-3,1.4-3,3s1.4,3,3,3s3-1.4,3-3S233.2,154.5,231.6,154.5L231.6,154.5z"/>
		</g>
		<g>
			<path class="st2" d="M97,76.9c-0.5,0-1,0.1-1.5,0.4c-1.4,0.8-1.9,2.7-1.1,4.1C95,82.4,96,83,97,83c0.5,0,1-0.1,1.5-0.4
				c1.4-0.8,1.9-2.7,1.1-4.1C99.1,77.4,98.1,76.9,97,76.9L97,76.9z"/>
			<path class="st2" d="M186.8,232c-0.5,0-1,0.1-1.5,0.4c-1.4,0.8-1.9,2.7-1.1,4.1c0.6,1,1.6,1.5,2.6,1.5c0.5,0,1-0.1,1.5-0.4
				c1.4-0.8,1.9-2.7,1.1-4.1C188.9,232.6,187.9,232,186.8,232L186.8,232z"/>
		</g>
		<g>
			<path class="st2" d="M64.4,199.4c-0.5,0-1,0.1-1.5,0.4c-1.4,0.8-1.9,2.7-1.1,4.1c0.6,1,1.6,1.5,2.6,1.5c0.5,0,1-0.1,1.5-0.4
				c1.4-0.8,1.9-2.7,1.1-4.1C66.4,199.9,65.4,199.4,64.4,199.4L64.4,199.4z"/>
			<path class="st2" d="M219.5,109.6c-0.5,0-1,0.1-1.5,0.4c-1.4,0.8-1.9,2.7-1.1,4.1c0.6,1,1.6,1.5,2.6,1.5c0.5,0,1-0.1,1.5-0.4
				c1.4-0.8,1.9-2.7,1.1-4.1C221.6,110.1,220.5,109.6,219.5,109.6L219.5,109.6z"/>
		</g>
		<g>
			<path class="st2" d="M64.3,109.8c-1,0-2.1,0.5-2.6,1.5c-0.8,1.4-0.3,3.3,1.1,4.1c0.5,0.3,1,0.4,1.5,0.4c1,0,2.1-0.5,2.6-1.5
				c0.8-1.4,0.3-3.3-1.1-4.1C65.3,109.9,64.8,109.8,64.3,109.8L64.3,109.8z"/>
			<path class="st2" d="M219.6,199.2c-1,0-2.1,0.5-2.6,1.5c-0.8,1.4-0.3,3.3,1.1,4.1c0.5,0.3,1,0.4,1.5,0.4c1,0,2.1-0.5,2.6-1.5
				c0.8-1.4,0.3-3.3-1.1-4.1C220.6,199.3,220.1,199.2,219.6,199.2L219.6,199.2z"/>
		</g>
		<g>
			<path class="st2" d="M97.2,232.1c-1,0-2.1,0.5-2.6,1.5c-0.8,1.4-0.3,3.3,1.1,4.1c0.5,0.3,1,0.4,1.5,0.4c1,0,2.1-0.5,2.6-1.5
				c0.8-1.4,0.3-3.3-1.1-4.1C98.3,232.3,97.7,232.1,97.2,232.1L97.2,232.1z"/>
			<path class="st2" d="M186.6,76.8c-1,0-2.1,0.5-2.6,1.5c-0.8,1.4-0.3,3.3,1.1,4.1c0.5,0.3,1,0.4,1.5,0.4c1,0,2.1-0.5,2.6-1.5
				c0.8-1.4,0.3-3.3-1.1-4.1C187.7,76.9,187.2,76.8,186.6,76.8L186.6,76.8z"/>
		</g>
	</g>
	<path class="st2" d="M141.9,39.8c3,0,5.4,2.4,5.4,5.4s-2.4,5.4-5.4,5.4s-5.4-2.4-5.4-5.4S139,39.8,141.9,39.8 M141.9,33.7
		c-6.3,0-11.5,5.1-11.5,11.5s5.1,11.5,11.5,11.5s11.5-5.1,11.5-11.5S148.3,33.7,141.9,33.7L141.9,33.7z"/>
	<g>
		<polygon class="st2" points="141.9,88.3 134.4,107.1 149.6,107.1 		"/>
		<polygon class="st2" points="149.6,207.9 134.4,207.9 142.1,226.7 		"/>
		<polygon class="st2" points="192.4,149.9 192.4,165.1 211.2,157.4 		"/>
		<polygon class="st2" points="91.7,149.9 72.8,157.6 91.7,165.1 		"/>
		<polygon class="st2" points="107.3,97.6 110.2,117.7 123.4,110.1 		"/>
		<polygon class="st2" points="173.8,197.3 160.6,204.9 176.7,217.4 		"/>
		<polygon class="st2" points="201.9,122.8 181.8,125.7 189.5,138.9 		"/>
		<polygon class="st2" points="94.6,176.1 82.2,192.2 102.2,189.3 		"/>
		<polygon class="st2" points="82,123 94.6,138.9 102.2,125.7 		"/>
		<polygon class="st2" points="189.5,176 181.8,189.3 202,192 		"/>
		<polygon class="st2" points="176.5,97.5 160.6,110 173.8,117.7 		"/>
		<polygon class="st2" points="110.3,197.3 107.5,217.5 123.5,204.9 		"/>
	</g>
	<g>
		<path class="st2" d="M104.8,144l-3.7-4.8c0.8-0.6,19-14.4,40.7-14.4s39.8,13.8,40.6,14.4l-3.7,4.8c-0.2-0.1-17.3-13.1-36.9-13.1
			S105,143.9,104.8,144z"/>
	</g>
	<g>
		<path class="st2" d="M141.8,190.4c-21.7,0-39.9-13.8-40.7-14.4l3.7-4.8c0.2,0.1,17.4,13.1,37,13.1s36.7-13,36.9-13.1l3.7,4.8
			C181.6,176.5,163.5,190.4,141.8,190.4z"/>
	</g>
</g>
</svg>
