<?xml version="1.0" encoding="utf-8"?>
<!-- Generator: Adobe Illustrator 22.1.0, SVG Export Plug-In . SVG Version: 6.00 Build 0)  -->
<svg version="1.1" id="Layer_1" xmlns="http://www.w3.org/2000/svg" xmlns:xlink="http://www.w3.org/1999/xlink" x="0px" y="0px"
	 viewBox="0 0 283.5 283.5" style="enable-background:new 0 0 283.5 283.5;" xml:space="preserve">
<style type="text/css">
	.st0{fill:#FFFFFF;}
	.st1{fill:#FBB834;}
	.st2{fill:#00A087;}
	.st3{fill:#232021;}
</style>
<g id="Layer_9">
	<path class="st0" d="M246.7,283.5h-210C16.5,283.5,0,266.9,0,246.7v-210C0,16.5,16.5,0,36.7,0h210c20.2,0,36.7,16.5,36.7,36.7v210
		C283.5,266.9,266.9,283.5,246.7,283.5z"/>
</g>
<g id="Aura">
	<path class="st1" d="M174.2,134.8c-0.3-4.1-0.6-8.4-1.3-12.6c-2.8-17-9.4-32.9-19.6-47.3c-2.1-3-4.5-5.8-6.7-8.6
		c-1-1.3-2.1-2.6-3.2-3.9l-1.1-1.4l-1.2,1.3c-0.3,0.4-0.6,0.7-0.9,1c-0.6,0.7-1.2,1.3-1.7,1.9c-0.8,0.8-1.6,1.8-2.3,2.7
		c-8.6,10.3-15.2,21.6-19.6,33.4c-4.5,11.9-6.9,24.7-7.3,38.1c0,1.1,0.5,2.1,1,2.7c1,1.1,2,2.2,2.9,3.3c1.5,1.6,3,3.3,4.3,4.9
		c8.9,10.9,15.7,23.2,20.2,36.5c0.7,2,1.3,3.9,1.9,5.9c0.3,0.9,0.6,1.9,0.9,2.8l0.8,2.6l1.8-2l0,0c0.1-0.1,0.4-0.4,0.5-0.8
		c3-11.7,7.8-22.8,14-32.7c2.3-3.6,4.5-7.1,7-10.3c1.7-2.2,3.7-4.4,5.6-6.4c1.1-1.2,2.2-2.4,3.3-3.6c0.5-0.6,1.1-1.7,1.1-2.8
		C174.4,137.7,174.3,136.2,174.2,134.8z"/>
	<g>
		<path class="st2" d="M177,127.8c0.2,1.5,0.3,2.9,0.5,4.4c0.1,0.7,0.2,1.5,0.2,2.2l0.4,3.5l2.7-2.2c0.2-0.1,0.3-0.3,0.5-0.4
			c0.3-0.2,0.6-0.5,0.8-0.7c0.8-0.7,1.7-1.4,2.5-2c2-1.6,4.1-3.3,6.2-4.8c1.3-0.9,2.6-1.8,4-2.6c0.6-0.4,1.3-0.8,1.9-1.2l0.4-0.3
			l0.6-0.4l0.1-0.1l0.1-0.1c0.7-0.4,1.4-0.7,2.1-1.1c2.6-1.3,5.3-2.7,7.9-4c1.5-0.7,2.2-1.9,2.1-3.5c-0.4-11.4-2.3-22.5-5.8-33
			c-0.6-1.7-1.2-3.4-1.8-5.1c-0.3-0.8-0.6-1.6-0.9-2.5l-0.8-2.2l-4.6,2.8l0,0l-0.6,0.2h-0.1v0.1l0,0l0.3,0.9l-0.5-1l-0.6,0.3v0.1
			l-0.9,0.5c0,0,0,0-0.1,0c-0.2,0.1-0.4,0.1-0.6,0.3c-8.3,4.5-16.1,10.1-23.3,16.6c-1.4,1.2-1.7,2.6-1,4.3
			C173.1,106.9,175.8,117.3,177,127.8z"/>
		<path class="st2" d="M75.4,117.7c1,0.5,2.1,1.1,3.1,1.6c2.9,1.5,6,3.1,8.8,4.9c2.8,1.7,5.6,3.7,8.3,5.6c1.2,0.8,2.4,1.7,3.6,2.6
			l0.2,0.1l0.2,0.2l6.2,5.4l0.4-3.6c0-0.2,0-0.4,0.1-0.6c0-0.3,0.1-0.6,0.1-0.9c0-0.2,0-0.4,0-0.7c0-0.2,0-0.4,0-0.6
			c1.1-12.2,4-24.1,8.6-35.1c0.7-1.7,0.4-3.1-1-4.2c-2.9-2.3-5.8-4.6-8.6-6.8c-1-0.8-2-1.6-3-2.4c-0.1-0.1-0.1-0.1-0.2-0.2
			c-0.2-0.2-0.6-0.5-1-0.8c-4.6-2.8-8.8-5.3-13-7.8c-0.8-0.5-1.6-0.8-2.4-1.2c-0.3-0.2-0.7-0.3-1-0.5l-1.6-0.8l-0.9,1.5
			c0,0.1-0.1,0.1-0.1,0.1c-0.1,0.1-0.2,0.3-0.3,0.5c-5.3,13-8.1,26.6-8.4,40.5C73.5,116.7,74.9,117.4,75.4,117.7z"/>
		<path class="st2" d="M110.2,146.6c-1.9-2.1-4.2-4.5-6.8-6.7c-2.8-2.4-5.7-4.7-8.5-6.9c-1.2-0.9-2.4-1.9-3.6-2.8l-0.1-0.1
			c-0.6-0.4-1.2-0.8-1.9-1.3c-1.3-0.9-2.7-1.9-4.2-2.7c-12.3-7.6-26-12.8-40.7-15.3c-3.3-0.6-6.6-0.9-9.8-1.2l-0.5-0.1
			c-1.5-0.2-3-0.2-4.4-0.3c-0.6,0-1.3,0-1.9-0.1l-2-0.1v2c0,0.2,0,0.3,0,0.4c0,0.3,0,0.5,0,0.7c0.4,8.4,1.4,15.8,3.2,22.8
			c3.6,14.4,9.5,27.5,17.4,38.9c7.9,11.4,18.1,21.5,30.3,29.9c2.5,1.7,5.2,3.2,7.7,4.7c1.2,0.7,2.3,1.3,3.5,2l0.1,0.1
			c0.2,0.1,0.4,0.3,0.7,0.4c8.3,4.3,16,7.2,23.5,8.9c5.9,1.4,11.9,2.3,17.7,3.3c1.9,0.3,3.7,0.4,5.5,0.4c0.8,0,1.6,0.1,2.4,0.1
			l1.8,0.1l0.2-2.2c0-0.3,0.1-0.5,0.1-0.7c0.4-4.3,0.2-8.8-0.6-13.7C135.8,184.4,126,163.9,110.2,146.6z"/>
		<path class="st2" d="M256,109.2c-0.3,0-0.6,0-0.8,0c-0.6,0-1.1,0-1.7,0c-12.6,0.6-23.7,2.9-34,6.8c-3.5,1.3-7,3-10.3,4.5
			c-1.5,0.7-3,1.4-4.5,2.1l0,0c-0.1,0.1-0.3,0.1-0.4,0.2c-0.3,0.2-0.7,0.3-1,0.5c-6,3.2-11.9,7.2-17.6,11.8
			c-7.5,6.1-14.2,13.1-19.9,20.8c-10.7,14.5-17.8,30.9-21.1,48.8c-0.9,4.7-1.7,10.4-1,16.1c0,0.3,0.1,0.5,0.1,0.8l0.3,2.1l1.7-0.1
			c7.9-0.3,15.5-1.3,23.3-3.1c8.4-2,16.3-4.8,23.4-8.4c3.7-1.9,7.4-4.1,10.9-6.2c1.5-0.9,3.1-1.9,4.7-2.8l0.1-0.1
			c5.9-3.9,11.5-8.7,16.8-14.2c3.6-3.8,6.6-7.2,9.1-10.5c13.9-18,21.9-38.9,23.7-62c0.1-1.2,0.1-2.4,0.2-3.6c0-0.6,0-1.1,0.1-1.7
			l0.1-2H256V109.2z"/>
	</g>
	<path class="st3" d="M21.1,117.4c0-3.7-0.3-6.7,0-9.2c0.3-2.6,3.6-3.8,5.7-3.6c4.5,0.3,9.1,0.5,13.6,1c8.5,1,16.8,3,24.9,5.9
		c1.1,0.4,2.3,0.8,3.5,1.2c0.1-0.4,0.1-0.7,0.1-0.9c0.3-3.6,0.6-7.2,1.1-10.7c1.5-11,4.5-21.6,9-31.8c1.1-2.5,2.7-3,5.2-1.8
		c2.9,1.4,5.9,2.9,8.8,4.4c6.8,3.6,13.2,8,19.1,12.9c1.4,1.2,2.8,2.4,4.2,3.6c0.2-0.1,0.3-0.1,0.3-0.2c0.7-1.2,1.3-2.3,2-3.5
		c5.6-10.3,12.5-19.6,20.8-27.8c0.4-0.4,1.6-1.7,2.7-1.7c1.1,0,3.3,2.3,2.7,1.7s1.2,1.3,2.4,2.6c3,3.5,6,6.9,8.8,10.5
		c4.1,5.4,7.7,11.2,10.7,17.3c0.5,0.9,0.9,1.1,1.7,0.3c1.3-1.2,2.6-2.3,4-3.4c8.3-6.7,17.2-12.3,27-16.6c3-1.3,4.5-0.8,5.7,2.3
		c2,5.6,4.1,11.2,5.8,16.8c1.9,6.4,3,13,3.5,19.7c0.2,2,0.4,4.1,0.6,6.2c0.4-0.1,0.7-0.1,0.9-0.2c2.6-0.9,5.2-1.8,7.8-2.7
		c10.8-3.4,21.8-5,33.1-5.3c2.2,0,5.8,0.7,5.8,4.6s-0.1,6-0.2,7.2s-0.4,4.3-0.7,6.4c-0.3,2.1-1.1,7-2.3,12.5
		c-2.4,11.1-6.6,21.5-12.1,31.4c-4.7,8.5-10.3,16.3-16.9,23.3c-3.8,4-7.8,7.7-12,11.2c-6,5.2-12.6,9.4-19.6,13.1
		c-7.1,3.8-14.5,6.9-22.2,9.2c-7.9,2.3-15.9,4-24.1,4.6c-0.4,0-3.2,0.1-5,0.2c-1.8,0-9,0.2-10.4,0.1c-1.5,0-5.3-0.2-5.6-0.3
		c-0.8-0.1-1.7-0.2-2.5-0.3c-7.9-0.8-15.7-2.5-23.3-4.9c-11.9-3.7-22.9-9.2-33.1-16.3c-5-3.5-9.7-7.3-14-11.6
		c-3.3-3.3-6.5-6.8-9.6-10.3c-5.4-6.2-9.8-13-13.7-20.3c-4.3-8-7.5-16.3-9.9-25.1c-1.9-6.9-3-12.2-3.5-15.7
		C21.3,120.3,21.3,117.7,21.1,117.4z M100.5,130.9c0.1,0.1,0.2,0.2,0.3,0.3c1.1,0.9,2.2,1.9,3.4,2.9c0.1-0.6,0.1-1,0.2-1.4
		c0-0.4,0-0.8,0.1-1.3c1.1-12.3,4-24.2,8.7-35.7c0.4-0.9,0.3-1.4-0.4-2c-3.9-3.1-7.8-6.2-11.6-9.2c-0.3-0.3-0.6-0.6-0.9-0.8
		c-4.3-2.6-8.7-5.2-13-7.8c-1-0.6-2.1-1.1-3.2-1.6c-0.1,0.2-0.2,0.3-0.2,0.4c-5.2,12.8-8,26-8.3,39.8c0,0.7,0.3,1,0.9,1.3
		c4,2.1,8.1,4.1,12,6.5c4.1,2.6,8,5.5,12,8.3l0,0C100.4,130.8,100.5,130.9,100.5,130.9L100.5,130.9L100.5,130.9z M196.2,76.3
		c-0.2,0.1-0.4,0.2-0.6,0.3c-0.3,0.2-0.6,0.3-0.9,0.5c-0.2,0.1-0.4,0.1-0.6,0.2c-8.3,4.5-15.9,10-22.9,16.4
		c-0.8,0.7-0.9,1.2-0.5,2.2c4.2,10.1,7,20.6,8.2,31.6c0.2,2.2,0.5,4.3,0.7,6.6c0.5-0.4,0.9-0.8,1.3-1.1c2.9-2.3,5.8-4.7,8.7-6.9
		c1.9-1.4,4-2.6,6.1-3.9c0.2-0.1,0.3-0.2,0.5-0.3c0.1-0.1,0.2-0.2,0.3-0.2c0.1-0.1,0.2-0.3,0.4-0.3c3.4-1.8,6.8-3.6,10.3-5.2
		c0.8-0.4,1.1-0.9,1.1-1.8c-0.3-11.1-2.2-21.9-5.7-32.5c-0.8-2.5-1.8-4.9-2.7-7.5c-1.1,0.7-2.1,1.2-3,1.8
		C196.6,76.2,196.3,76.2,196.2,76.3L196.2,76.3z M207,201.5c6-4,11.5-8.7,16.4-13.9c3.1-3.3,6.2-6.7,9-10.3
		c13.8-18,21.5-38.4,23.4-61c0.1-1.7,0.2-3.5,0.3-5.2c-0.9,0-1.7,0-2.4,0c-11.5,0.6-22.7,2.6-33.4,6.7c-5,1.9-9.8,4.4-14.7,6.6
		c-0.4,0.2-0.9,0.4-1.3,0.6c-6.1,3.3-11.9,7.2-17.3,11.6c-7.4,6-13.9,12.8-19.6,20.5c-10.7,14.4-17.6,30.4-20.8,48
		c-0.9,5.2-1.6,10.3-1,15.6c0,0.4,0.1,0.8,0.1,1.2c7.8-0.2,15.4-1.3,23-3.1c8-1.9,15.7-4.6,23-8.3
		C196.8,207.9,201.8,204.6,207,201.5z M90.1,131.6c-2-1.3-3.9-2.7-5.9-4c-12.4-7.6-25.7-12.6-40-15c-3.4-0.6-6.8-0.9-10.2-1.3
		c-2.1-0.2-4.1-0.2-6.3-0.3c0,0.5,0,0.8,0,1.1c0.3,7.6,1.2,15.1,3.1,22.5c7.1,28.5,22.8,51.1,47,67.7c3.6,2.5,7.4,4.4,11.2,6.6
		c0.2,0.2,0.5,0.3,0.7,0.5c7.4,3.8,15,6.9,23,8.8c5.8,1.4,11.7,2.3,17.6,3.3c2.5,0.4,5.1,0.3,7.8,0.5c0.1-0.5,0.1-0.8,0.1-1.1
		c0.4-4.4,0.1-8.8-0.6-13.2c-3.7-22.8-13.4-42.7-28.9-59.7c-2.1-2.3-4.2-4.5-6.6-6.5C98.3,138,94.2,134.8,90.1,131.6z M142.2,63.2
		c-1,1.1-1.8,2-2.6,2.9s-1.6,1.7-2.3,2.6c-17,20.5-25.9,44-26.6,70.6c0,0.5,0.3,1.2,0.6,1.6c2.4,2.8,5,5.4,7.3,8.3
		c9,11.1,15.8,23.4,20.5,36.9c1,2.9,1.8,5.8,2.8,8.8c0.1-0.1,0.2-0.2,0.2-0.2c3.1-11.8,7.7-22.9,14.2-33.1c2.2-3.6,4.5-7.1,7.1-10.4
		c2.8-3.5,6-6.7,8.9-10.1c0.4-0.4,0.7-1.2,0.7-1.7c-0.5-5.6-0.7-11.3-1.6-16.9c-2.8-17-9.4-32.6-19.4-46.7
		C149,71.5,145.5,67.5,142.2,63.2z"/>
</g>
</svg>
