<?xml version="1.0" encoding="utf-8"?>
<!-- Generator: Adobe Illustrator 22.1.0, SVG Export Plug-In . SVG Version: 6.00 Build 0)  -->
<svg version="1.1" id="Layer_1" xmlns="http://www.w3.org/2000/svg" xmlns:xlink="http://www.w3.org/1999/xlink" x="0px" y="0px"
	 viewBox="0 0 283.5 283.5" style="enable-background:new 0 0 283.5 283.5;" xml:space="preserve">
<style type="text/css">
	.st0{fill:#FFFFFF;}
	.st1{fill:#DD8924;}
	.st2{fill:#221F21;}
	.st3{fill:#E35051;}
	.st4{fill:#B83030;}
	.st5{fill:#C73E40;}
	.st6{fill:#F5ABAF;}
	.st7{fill:#731513;}
	.st8{fill:#C73335;}
	.st9{fill:#A11B1C;}
	.st10{fill:#232021;}
</style>
<g id="Layer_9">
	<path class="st0" d="M246.7,283.5h-210C16.5,283.5,0,266.9,0,246.7v-210C0,16.5,16.5,0,36.7,0h210c20.2,0,36.7,16.5,36.7,36.7v210
		C283.5,266.9,266.9,283.5,246.7,283.5z"/>
</g>
<g id="CantaniRing">
	<path class="st1" d="M68.8,94.1c0,0-5.5,15.9-8.2,20s-16.9,28.5-21.5,41.1c-4.6,12.7-6.8,27.9-6.8,32.2
		c11.4,14.4,21.4,26.3,30.2,36.3c0,0,1.4-37.2,12.1-52.6s18.3-28.5,30.3-34.3c12-5.6,54.6-26.4,54.6-26.4s8.4-31.2,27.9-40.9
		s35.8-5.5,49-6c-8.6-10.9-15-18.5-20.1-23.8c-6.4-6.7-38.3-5.8-52.5-3.4c-14.1,2.4-24.6,3.5-32.4,4.2s0,9.7,0,9.7L78.8,99.6h-7.2
		L68.8,94.1z"/>
	<path class="st1" d="M110.3,208.5c-7.5,4.3-34.8,9.4-43.4,9.1c-1,7.6-6.2-2-6.2,4.2c7.1,8.1,13.3,15,19,20.9
		c12.3,13,42.6,2.2,54.6-3.4c12-5.6,75-42.4,107-103.1c11.1-23,14.5-47.5,2.2-63.3c-8.7-11.9-13.7-12.1-21.1-12.8
		c-4.3-0.4,9.3,5.1,1.3,6.4c-0.8,10.9-4.4,30.4-12.3,47.1c-7.9,16.9-26,38.5-51.4,61.5S117.8,204.2,110.3,208.5z"/>
	<path class="st2" d="M188,41.6c15.8,0,21.9,2.2,23.1,3.1C216.9,50.8,225,60.5,238,77c4.8,6.1,6.9,14.2,6.3,24.2
		c-0.6,9.5-3.7,20.5-9.2,31.6c-13,24.6-33.4,48.8-59.3,70c-20.9,17.2-39.2,27.5-44.6,30c-8.7,4.2-22.8,9-33.9,9
		c-5.9,0-10.1-1.4-12.7-4c-13.9-14.6-28.7-31.9-45.3-52.7c0.5-5.5,2.5-17.5,6.3-27.5c4.4-12.1,18.4-35.9,20.8-39.8
		c1.4-2.3,3.4-6.9,5.1-11.3h7.2h2.7l2-1.9l52.5-49.4l4.9-4.6l-3.3-3.7c7.7-0.8,16.9-2.1,27.2-3.7C170.9,42.2,179.9,41.6,188,41.6
		 M188,34.7c-9.2,0-18.4,0.7-24.4,1.7c-14,2.3-24.6,3.5-32.4,4.2c-7.9,0.6,0,9.7,0,9.7L78.8,99.6h-7.2L68.8,94c0,0-5.5,15.9-8.2,20
		s-16.9,28.5-21.5,41.1c-4.7,12.6-6.8,28-6.8,32.3c19.6,24.7,35,42.1,47.3,55.2c4.3,4.5,10.7,6.2,17.8,6.2c13.3,0,29-5.9,36.9-9.6
		c12-5.6,75-42.4,107-103.1c11.1-23,14.5-47.5,2.2-63.3s-20.9-26.2-27.3-32.9C212.4,36,200.3,34.7,188,34.7L188,34.7z"/>
	<path class="st2" d="M214.6,66.6c2.9,0,5.4,0.2,7.1,0.3h0.1c3.5,0.3,5.5,0.5,7.4,1.4c2.4,1.3,5.3,4,8.5,8.5l0.1,0.1l0.1,0.1
		c4.8,6.1,6.9,14.2,6.3,24.2c-0.6,9.5-3.7,20.5-9.2,31.6c-13,24.6-33.4,48.8-59.3,70c-20.9,17.2-39.2,27.5-44.6,30
		c-8.7,4.2-22.8,9-33.9,9c-5.9,0-10.1-1.4-12.7-4c-0.5-0.5-0.9-1-1.4-1.4c-5.2-5.3-12.2-12.8-13.6-20.8c-1.3-7.9-1-16.2,0.9-24.9
		c1.4-6.3,7-23.5,14.6-33c8.1-10,13.6-13.8,18.1-16.5c0.5-0.3,1.1-0.6,2.1-1.2c34.8-20.2,46.9-30.2,51.6-36.1c4.5-1.6,8.2-6.6,13-13
		c5-6.6,11.1-14.9,17.7-18.3C195.6,68.7,204.6,66.6,214.6,66.6 M214.6,59.7c-8.1,0-19,1.2-30.1,7c-14.6,7.6-24.8,31-30.8,31
		c-0.3,0-0.5,0-0.7-0.1c-4.7,10.2-48.2,34.9-53.1,37.8s-11.2,7.2-20,18.1c-8.7,10.9-14.6,29.4-15.9,35.8c-1.4,6.4-2.8,16.4-1,27.5
		c1.8,11.1,11.1,20,16.8,26c4.3,4.5,10.7,6.2,17.8,6.2c13.3,0,29-5.9,36.9-9.6c12-5.6,75-42.4,107-103.1c11.1-23,14.5-47.5,2.2-63.3
		c-8.7-11.9-13.7-12.1-21.1-12.8C220.3,59.8,217.7,59.7,214.6,59.7L214.6,59.7z"/>
	<path class="st2" d="M226.4,67.4c1.1,0.2,2,0.5,2.9,1c2.4,1.3,5.3,4,8.5,8.5l0.1,0.1l0.1,0.1c4.8,6.1,6.9,14.2,6.3,24.2
		c-0.6,9.5-3.7,20.5-9.2,31.6c-13,24.6-33.4,48.8-59.3,70c-20.9,17.2-39.2,27.5-44.6,30c-8.7,4.2-22.8,9-33.9,9
		c-5.9,0-10.1-1.4-12.7-4c-4.9-5.1-9.9-10.6-15-16.5c0.2-0.2,0.3-0.5,0.5-0.6c11.1-0.7,30.4-4.3,43.6-10.3
		c15-6.9,30.4-16.1,55.6-39.1c27.6-25.1,38.3-43.2,45.8-59.2C222,97.4,225,79.7,226.4,67.4 M220.1,59.8c-0.1,0,0,0,0.4,0.1
		C220.6,59.8,220.2,59.8,220.1,59.8L220.1,59.8z M220.4,59.8c-0.1,0-0.2,0-0.4,0c-0.8,10.9-3.4,32.4-11.2,49.3
		c-7.9,16.9-18.8,34-44.1,57s-39.8,31.5-53.8,38c-13.4,6.1-35.2,9.8-44.6,9.8c-0.5,0-0.8,0-1.2,0c-1,7.6-4.3,1.6-4.3,7.8
		c7.1,8.1,13.3,15,19,20.9c4.3,4.5,10.7,6.2,17.8,6.2c13.3,0,29-5.9,36.9-9.6c12-5.6,75-42.4,107-103.1c11.1-23,14.5-47.5,2.2-63.3
		c-8.7-11.9-13.7-12.1-21.1-12.8C221.3,59.9,220.7,59.9,220.4,59.8L220.4,59.8z"/>
	<circle class="st3" cx="120.1" cy="91.2" r="47.3"/>
	<polygon class="st4" points="122.8,96.8 134.1,139.3 154.5,126.5 165.9,111.8 145.8,99.4 	"/>
	<polygon class="st5" points="122.8,96.8 146.9,82.3 169.4,77.7 170.4,94.9 165.9,111.8 145.8,99.4 	"/>
	<polygon class="st6" points="122.8,96.8 146.9,82.3 128.1,77.7 106.6,59.7 106.8,74 	"/>
	<polygon class="st7" points="169.4,77.7 146.9,82.3 128.1,77.7 130.2,59.8 144.6,48.5 	"/>
	<polygon class="st8" points="90.9,52.8 106.6,59.7 128.1,77.7 130.2,59.8 144.6,48.5 115.6,41.1 	"/>
	<polygon class="st9" points="90.9,52.8 106.6,59.7 106.8,74 72.8,76.4 80.9,62.4 	"/>
	<polygon class="st7" points="98,98.4 114.5,85.1 106.8,74 72.8,76.4 70.8,102.7 84.9,126.8 	"/>
	<path class="st10" d="M120.1,45.6c25.2,0,45.6,20.5,45.6,45.6s-20.5,45.6-45.6,45.6s-45.6-20.4-45.6-45.6S95,45.6,120.1,45.6
		 M120.1,37.9c-29.5,0-53.3,23.8-53.3,53.3s23.8,53.3,53.3,53.3s53.3-23.8,53.3-53.3S149.6,37.9,120.1,37.9L120.1,37.9z"/>
</g>
</svg>
