<?xml version="1.0" encoding="utf-8"?>
<!-- Generator: Adobe Illustrator 22.1.0, SVG Export Plug-In . SVG Version: 6.00 Build 0)  -->
<svg version="1.1" id="Layer_1" xmlns="http://www.w3.org/2000/svg" xmlns:xlink="http://www.w3.org/1999/xlink" x="0px" y="0px"
	 viewBox="0 0 283.5 283.5" style="enable-background:new 0 0 283.5 283.5;" xml:space="preserve">
<style type="text/css">
	.st0{fill:#FFFFFF;}
	.st1{fill:#734210;}
	.st2{fill:#C4A17D;}
	.st3{fill:#221F21;}
	.st4{fill:#FFF9D0;}
</style>
<g id="Layer_9">
	<path class="st0" d="M246.7,283.5h-210C16.5,283.5,0,266.9,0,246.7v-210C0,16.5,16.5,0,36.7,0h210c20.2,0,36.7,16.5,36.7,36.7v210
		C283.5,266.9,266.9,283.5,246.7,283.5z"/>
</g>
<g id="GryphonBoots">
	
		<image style="display:none;overflow:visible;enable-background:new    ;" width="255" height="199" xlink:href="7B2F91D8.jpg"  transform="matrix(0.9711 0 0 0.9711 18.2736 45.1062)">
	</image>
	<polygon class="st1" points="192,181.4 192,211 186,224.2 148,225.3 119.7,227.7 110.2,211.8 117.9,200.3 138.5,179.5 167.7,183.7 
			"/>
	<polygon class="st1" points="30.2,208 54.2,208 72.7,216.5 73.7,232 40,229.2 24.8,225.2 27.1,213.7 	"/>
	<polygon class="st2" points="37.8,204.3 63.9,209.3 73.7,219.5 76.7,232 118.6,226 108.5,210.1 128.4,192.1 134.9,179.5 
		111.4,168.7 86.3,186.6 45.3,198.4 	"/>
	<path class="st3" d="M111.5,173.6c8.2,4,21.4,8.7,32.9,10.6c7.3,1.2,15.5,1.8,24.1,1.8c6.1,0,12.8-0.3,19.8-0.9
		c0,26.4-2.4,33.3-3.2,34.9c-2.8,1.6-11.1,1.6-14.7,1.6c-1.8,0-3.7,0-5.6,0c-2.2,0-4.6,0-7.1,0c-5.4,0-10,0.1-14.4,0.3
		c-10.4,0.5-19.5,1.8-28.3,3c-10.9,1.5-21.1,3-33.6,3c-1.2,0-2.4,0-3.6,0c-21.6-0.5-39-3-48.9-5.8c0.4-4.7,1.4-7.2,2.2-8.5l0,0l0,0
		c0.4-0.6,0.7-1.2,1.1-1.7c2.4-3.8,2.7-4.2,4.1-4.9c2.7-1.4,8.4-2.9,18.8-5.6c1.6-0.4,3.2-0.8,5-1.3
		C87,192.9,101.2,183.3,111.5,173.6 M110.2,164.1c-9.9,10.2-22.7,20.7-52,28.4s-27,6.5-33.5,16.8c-3,4.6-3.7,11.6-3.7,18.2
		c9.7,3.8,31.1,7.4,56.7,7.9c1.3,0,2.5,0,3.8,0c23.5,0,39.6-4.9,62.3-6c5-0.2,9.7-0.3,14.1-0.3c4.7,0,8.9,0.1,12.7,0.1
		c9.3,0,16-0.4,19.8-3.5c6.8-5.4,5.7-44,5.7-49.1c-9.9,1.1-19,1.7-27.4,1.7c-8.3,0-15.9-0.6-22.9-1.7
		C131.8,174.3,115.3,167.5,110.2,164.1L110.2,164.1z"/>
	<g>
		<path class="st3" d="M71.8,232.1c-1.3-5.1-3.2-11.5-4-12.7c-0.2-0.3-0.4-0.7-0.7-1c-1.4-2.2-2.7-4.5-10-5.5
			c-9.9-1.4-25.9-2.2-26.1-2.2l0.4-7.7c0.7,0,16.5,0.9,26.7,2.3c10.9,1.5,13.8,6.3,15.5,9.1c0.2,0.3,0.3,0.5,0.5,0.8
			c1.9,2.9,4.4,12.3,5.1,15.1L71.8,232.1z"/>
	</g>
	<g>
		<path class="st3" d="M117.6,231.4c-0.3-0.4-6.8-9.6-9.3-14.3c-3.4-6.5-2.5-10.4,4.2-17c1.8-1.8,3.5-3.2,5.3-4.7
			c4.1-3.4,8.8-7.4,16.8-18.2l6.1,4.6c-8.6,11.5-13.6,15.7-18.1,19.5c-1.6,1.4-3.2,2.7-4.8,4.3c-4.6,4.6-4.5,4.9-2.8,8
			c2.2,4.3,8.7,13.4,8.8,13.5L117.6,231.4z"/>
	</g>
	<g>
		
			<rect x="72.9" y="191.3" transform="matrix(0.829 -0.5593 0.5593 0.829 -97.8217 76.8432)" class="st3" width="7.7" height="14.2"/>
	</g>
	<g>
		
			<rect x="88.2" y="185.5" transform="matrix(0.8345 -0.551 0.551 0.8345 -90.6353 82.536)" class="st3" width="7.7" height="13.3"/>
	</g>
	<g>
		
			<rect x="101.6" y="175.5" transform="matrix(0.7961 -0.6052 0.6052 0.7961 -88.7267 100.9748)" class="st3" width="7.7" height="13.2"/>
	</g>
	<polygon class="st4" points="111.8,152.8 113,141.7 113,124.5 132.2,108.3 161.2,98.7 192,78.3 214.9,57.2 220.8,95.3 249,75.7 
		255.3,70.6 258.8,79.8 246.4,112.1 235.3,125.8 234.3,138.6 215.1,156.9 196.1,179.5 171.4,183.3 130.5,176.9 113,168.7 
		109.4,157.7 	"/>
	<path class="st3" d="M212.8,63.6c2.8,12.7,2.5,25.3,2.5,25.4l-0.5,14.1l12.1-7.3c0.7-0.4,17.7-10.7,26.6-20.3
		c0.5-0.5,0.9-1,1.4-1.6c0,0.4,0,0.8,0,1.3c0,12.2-7.5,29.1-20.1,45.3l-1.6,2.1v2.6c0,12.7-9.8,20.4-19.4,26.3l-2,1.3l-1,2.2
		c-0.8,1.8-3.8,8.2-9.3,14.1l0,0l0,0c-7,7.7-14.1,10.7-25.5,10.7c-6.1,0-12.8-0.8-20.7-1.8c-3.2-0.4-6.5-0.8-9.9-1.2
		c-21.3-2.3-26.6-10.6-29.4-15.1c-0.2-0.3-0.3-0.5-0.5-0.8c-1.1-1.7-2.1-8.2,0.7-15.8l0.7-2l-0.4-2.1c-2.2-11.3-0.7-13.1,5.6-20.4
		c7-7.5,13.3-9.6,22.9-12.7c7.2-2.3,16.2-5.3,27.1-11.4C191.8,85.6,202.3,75.9,212.8,63.6 M215.7,48c-13.6,17-22.9,28.2-47.3,41.9
		s-37.5,10-52,25.6c-7.8,8.9-10.2,13-7.5,27.1c-3.1,8.7-2.9,18,0.1,22.6s9.3,16.6,35.5,19.4c12,1.3,22.3,3,31.4,3
		c11.9,0,21.8-2.9,31.2-13.2c5.5-6,9.1-12.6,10.7-16.2c9.2-5.7,23-15.4,23-32.9c10.8-13.9,21.7-33.4,21.7-50S257,51.5,257,51.5
		s-0.9,9.9-9.2,18.9s-24.9,19-24.9,19S223.8,65.3,215.7,48L215.7,48z"/>
	<path class="st3" d="M254.9,74c0,0.4,0,0.8,0,1.3c0,12.2-7.5,29.1-20.1,45.3l-1.6,2.1v2.6c0,12.7-9.8,20.4-19.4,26.3l-2,1.3l-1,2.2
		c-0.8,1.8-3.8,8.2-9.3,14.1l0,0l0,0c-7,7.7-14.1,10.7-25.5,10.7c-6.1,0-12.8-0.8-20.7-1.8c-3.2-0.4-6.5-0.8-9.9-1.2
		c-21.3-2.3-26.6-10.6-29.4-15.1c-0.2-0.3-0.3-0.5-0.5-0.8c-1.1-1.7-2.1-8.1,0.7-15.7c1.3-3,8.1-4.8,14-6.4c2.4-0.7,5-1.3,7.4-2.1
		c10.2-3.4,31.7-11.8,49.2-19.3s39.2-20.5,40.1-21l0.1-0.1l0.1-0.1c0.7-0.5,17.6-11.2,26.4-20.8C254,75.1,254.4,74.5,254.9,74
		 M257,51.5c0,0-0.9,9.9-9.2,18.9s-24.9,19.5-24.9,19.5s-21.9,13.2-39.2,20.5c-17.3,7.4-38.5,15.7-48.6,19
		c-10.1,3.3-22.9,4.6-26.2,13.1c-3.1,8.7-2.9,18,0.1,22.6s9.3,16.6,35.5,19.4c12,1.3,22.3,3,31.4,3c11.9,0,21.8-2.9,31.2-13.2
		c5.5-6,9.1-12.6,10.7-16.2c9.2-5.7,23-15.4,23-32.9c10.8-13.9,21.7-33.4,21.7-50S257,51.5,257,51.5L257,51.5z"/>
	<g>
		<path class="st3" d="M195.3,140.2l-0.1-7.7c30.1-0.4,39.6-11.4,39.6-11.5l6,4.7C240.4,126.4,229.6,139.7,195.3,140.2z"/>
	</g>
	<g>
		<path class="st3" d="M191.6,163.3c-3.4,0-6.6-0.1-9.5-0.3l0.3-7.7c9.3,0.4,23.3,1,32.1-4.3l4,6.6
			C210.8,162.3,200.5,163.3,191.6,163.3z"/>
	</g>
	<g>
		<path class="st3" d="M205.3,123.2l-2.2-7.3c12.1-3.7,44.8-16.8,51-32.8l7.1,2.8C252.4,108.6,207.3,122.6,205.3,123.2z"/>
	</g>
</g>
</svg>
