<?xml version="1.0" encoding="utf-8"?>
<!-- Generator: Adobe Illustrator 22.1.0, SVG Export Plug-In . SVG Version: 6.00 Build 0)  -->
<svg version="1.1" id="Layer_1" xmlns="http://www.w3.org/2000/svg" xmlns:xlink="http://www.w3.org/1999/xlink" x="0px" y="0px"
	 viewBox="0 0 283.5 283.5" style="enable-background:new 0 0 283.5 283.5;" xml:space="preserve">
<style type="text/css">
	.st0{fill:#FFFFFF;}
	.st1{display:none;fill:#221F21;}
	.st2{fill:#5B5B5B;}
	.st3{fill:#221F21;}
	.st4{fill:#717171;}
	.st5{fill:#919190;}
</style>
<g id="Layer_9">
	<path class="st0" d="M246.7,283.5h-210C16.5,283.5,0,266.9,0,246.7v-210C0,16.5,16.5,0,36.7,0h210c20.2,0,36.7,16.5,36.7,36.7v210
		C283.5,266.9,266.9,283.5,246.7,283.5z"/>
</g>
<g id="MithrilArmor">
	<path id="artefacts" class="st1" d="M262.3,114.4l-14.8-26l7.2-8.1l-55-33.9l0,0H83.9l0,0l-55,33.9l7.2,8.1l-14.8,26l6.8,2.9
		l-4.6,25.1l43.3,5.8l1.4-8.4l5.6,10.4l7.3,89.9l60.2,22.4l60.9-22.4l7.6-90.3l5.6-9.5l1.3,7.9l43.3-5.8l-4.6-25.1L262.3,114.4z
		 M244.6,107.8l-16.9,7.3l-1.6-2.7L239,97.9L244.6,107.8z M160.6,58.5l-19.3,15.6l-19.8-15.6H160.6z M44.6,97.9l12.9,14.6l-1.6,2.7
		L39,107.9L44.6,97.9z M56.8,134.6L37.7,132l1.8-10l18.1,7.6L56.8,134.6z M60.1,97.2L47.5,83l32.8-20.2l10.6,16.1L60.1,97.2z
		 M85.8,148.3l10.8-5.8l0,0l6.1,73.8l-0.5,1.3l0.6,0.2l1.5,18l0,0l-11.8-4.4L85.8,148.3z M173.5,166.9l-31.7,11.4l-31.4-11.5
		l-2-22.5l33.3,12.2l33.7-12.1L173.5,166.9z M111.8,182.7l30,11l30.3-10.9l-2.1,23.7l-28.2,10.2l-28-10.3L111.8,182.7z M141.8,141
		l-25.2-9.2l24.7-13.2l25.4,13.4L141.8,141z M116.8,240.5l-1.6-18.1l26.5,9.7l26.9-9.7l-1.5,17.7l-25.7,9.5L116.8,240.5z
		 M190.8,231.4l-11.3,4.1l7.7-92.6l10.6,5.6L190.8,231.4z M203,137.6L147,108l-5.7-3l-5.7,3l-55,29.4L73.3,124l7.5-25l27.1-16.1
		L92.6,59.6l0.3-1.1h9.1l33.3,26.3v11.1h12.1V84.7l32.4-26.3h11.1l0.3,0.9l-15.4,23.4l28.1,16.7l7.6,24L203,137.6z M192.8,78.9
		l10.6-16.1L236.1,83l-12.6,14.2L192.8,78.9z M226.8,134.6l-0.8-4.9l18.1-7.6l1.8,10L226.8,134.6z"/>
	<g>
		<polygon class="st2" points="84.6,225.4 77.3,136.3 68.1,118.9 60.4,97.4 34.1,67.8 84.7,36.6 141.3,36.8 198.6,36.6 249.7,67.6 
			218.5,97.9 215.3,119.3 206.2,136.3 198.9,225.4 141.3,246.6 		"/>
		<path class="st3" d="M197.6,40.5l45.8,27.8l-26.6,25.9l-1.9,1.8l-0.4,2.6l-2.9,19.4l-8.4,15.8l-0.8,1.4l-0.1,1.6l-7.1,85.8
			l-53.9,19.9l-53.1-19.8l-7-85.8l-0.1-1.6l-0.7-1.4l-8.7-16.5l-7.3-20.6l-0.5-1.4l-1-1.1L40.1,68.6l45.8-28.2l55.4,0.2l0,0l0,0
			L197.6,40.5 M199.7,32.7L141.3,33l-57.7-0.2L28.2,66.9l28.9,32.5l7.5,21.1l8.9,17l7.4,90.7l60.4,22.6l61.2-22.6l7.5-90.7l9-17
			l3.1-20.8l33.8-32.8L199.7,32.7L199.7,32.7z"/>
	</g>
	<g>
		<polygon class="st4" points="112.1,235.7 104.3,123.2 141.2,137.6 182.1,124.4 172.4,235.1 141.3,246.6 		"/>
		<g>
			<path class="st3" d="M108.6,129l29.9,11.7l2.6,1l2.6-0.8l34.1-11l-9,102.5l-27.5,10.1l-25.5-9.5L108.6,129 M100.1,117.3
				l8.4,121.1l32.9,12.3l34.8-12.8l10.4-119l-45.2,14.6L100.1,117.3L100.1,117.3z"/>
		</g>
	</g>
	<g>
		<polygon class="st5" points="68.1,119 60.4,97.4 34.1,67.8 84.7,36.6 141.3,36.8 198.6,36.6 249.7,67.6 218.5,97.9 215.3,119.3 
			207.7,133.5 141.3,101.3 75.4,133.8 		"/>
		<path class="st3" d="M197.6,40.5l45.8,27.8l-26.6,25.9l-1.9,1.8l-0.4,2.6l-2.9,19.4l-5.5,10.4l-61.4-29.7l-3.4-1.6l-3.4,1.7
			l-60.7,29.9l-5.5-11.1l-7.4-20.7l-0.5-1.4l-1-1.1L40.1,68.6l45.8-28.2l55.4,0.2l0,0l0,0L197.6,40.5 M199.7,32.7L141.3,33
			l-57.7-0.2L28.2,66.9l28.9,32.5l7.5,21.1l9.1,18.5l67.7-33.4l68.1,33l9.7-18.1l3.1-20.8l33.8-32.8L199.7,32.7L199.7,32.7z"/>
	</g>
	<g>
		<polygon class="st0" points="102.5,36.7 141.3,36.8 181,36.7 141.6,67.8 		"/>
		<path class="st3" d="M169.8,40.6l-28.2,22.3l-28-22.3l27.7,0.1l0,0l0,0L169.8,40.6 M192.2,32.8L141.3,33l-49.9-0.2l50.2,40
			L192.2,32.8L192.2,32.8z"/>
	</g>
	<g>
		<polygon class="st2" points="32,102.1 27.9,126 62.8,130.7 65.6,114.7 		"/>
		<path class="st3" d="M66,135.1l-42.5-5.8L29,96.9l41,15.3L66,135.1z M32.4,122.7l27.2,3.7l1.6-9.2L35,107.4L32.4,122.7z"/>
	</g>
	<g>
		<polygon class="st2" points="40.4,75.4 26.6,99.4 66.7,116.4 77,82.8 		"/>
		<path class="st3" d="M69.1,121.7L21,101.3L38.5,71l43.4,8.9L69.1,121.7z M32.1,97.6l32.1,13.6L72,85.8l-29.6-6L32.1,97.6z"/>
	</g>
	<g>
		<polygon class="st2" points="34.1,67.8 82.5,38 102.4,68.3 57.8,94.5 		"/>
		<g>
			<path class="st3" d="M81.3,43.2L96.9,67L58.6,89.5L40.1,68.6L81.3,43.2 M83.7,32.7L28.2,66.9l28.9,32.5l50.8-29.9L83.7,32.7
				L83.7,32.7z"/>
		</g>
	</g>
	<g>
		<polygon class="st2" points="251.6,102.1 255.7,126 220.8,130.7 218,114.7 		"/>
		<path class="st3" d="M217.6,135.1l-4-22.9l41-15.3l5.5,32.4L217.6,135.1z M222.3,117.2l1.6,9.2l27.2-3.7l-2.6-15.3L222.3,117.2z"
			/>
	</g>
	<g>
		<polygon class="st2" points="243.1,75.4 257,99.4 216.9,116.4 206.6,82.8 		"/>
		<path class="st3" d="M214.5,121.7l-12.8-41.8l43.4-8.9l17.5,30.3L214.5,121.7z M211.5,85.8l7.8,25.4l32.1-13.6l-10.3-17.9
			L211.5,85.8z"/>
	</g>
	<g>
		<polygon class="st2" points="181.2,68.3 201.1,38 249.5,67.8 225.7,94.5 		"/>
		<g>
			<path class="st3" d="M202.2,43.2l41.3,25.4L225,89.5L186.6,67L202.2,43.2 M199.9,32.7l-24.2,36.8l50.8,29.9l28.9-32.5L199.9,32.7
				L199.9,32.7z"/>
		</g>
	</g>
	<g>
		<polygon class="st3" points="141.2,177.4 106.5,164.1 109.3,156.8 141.5,169.2 177.3,158.3 179.6,165.6 		"/>
	</g>
	<g>
		<polygon class="st3" points="141.2,216.5 109.5,204.3 112.2,197 141.5,208.3 173.2,198.5 175.5,205.9 		"/>
	</g>
</g>
</svg>
