<?xml version="1.0" encoding="utf-8"?>
<!-- Generator: Adobe Illustrator 22.1.0, SVG Export Plug-In . SVG Version: 6.00 Build 0)  -->
<svg version="1.1" id="Layer_1" xmlns="http://www.w3.org/2000/svg" xmlns:xlink="http://www.w3.org/1999/xlink" x="0px" y="0px"
	 viewBox="0 0 283.5 283.5" style="enable-background:new 0 0 283.5 283.5;" xml:space="preserve">
<style type="text/css">
	.st0{fill:#FFFFFF;}
	.st1{fill:#E3F3FE;}
	.st2{fill:#5C4066;}
	.st3{fill:#E0B87A;}
	.st4{fill:#221F21;}
	.st5{fill:#E3F3FD;}
	.st6{fill:#BD97C6;}
</style>
<g id="Layer_9">
	<path class="st0" d="M246.7,283.5h-210C16.5,283.5,0,266.9,0,246.7v-210C0,16.5,16.5,0,36.7,0h210c20.2,0,36.7,16.5,36.7,36.7v210
		C283.5,266.9,266.9,283.5,246.7,283.5z"/>
</g>
<g id="ShadowBrew">
	<g>
		<polygon class="st1" points="130.9,105.7 138.6,105.7 165.4,77.8 206.5,117.7 179.1,145.4 177.8,152.8 184.2,176.9 178.7,205 
			160.8,236.1 128,254.8 95.1,258.7 69.6,250.6 44.9,232.3 28.7,207.1 24.8,176.9 32.1,145.4 48.3,122.4 70.9,107.4 100.7,100.2 		
			"/>
		<polygon class="st2" points="158,175.2 177.8,172.7 184.2,176.9 178.7,205 160.8,236.1 128,254.8 95.1,258.7 69.6,250.6 
			44.9,232.3 28.7,207.1 24.8,176.9 28.7,152.8 62.9,157.7 97.1,170.8 126.7,176.9 		"/>
		<polygon class="st3" points="201.9,26.7 209.3,25.6 257.7,73.6 257.7,82.3 220.8,97.2 185.7,61.4 		"/>
		<g>
			<path class="st4" d="M206,28.7c0.4,0,1.1,0.3,2,1.2c8.6,8.6,17.4,17.4,25.9,25.9c3.3,3.4,6.7,6.7,10,10.1c1,1,2,2,3,3
				c2.2,2.2,4.5,4.5,6.7,6.7c1,1,1.2,1.8,1.2,2.3c-0.1,0.4-0.7,1.1-2,1.7c-5.3,2.2-10.6,4.4-15.8,6.5c-2.9,1.2-5.8,2.4-8.7,3.6
				c-1.8,0.7-3.5,1.6-5.8,3.5l-3.5,6l3.6,3.1c0,0,3.1,3.7,3.2,3.8c-3.8,3.9-9.9,9.8-13.4,13.2c-0.1-0.1-1.6-2-1.8-2.2l-4.1-3.4
				l-4.9,3l-4.9,4.9c-4,4.1-8,8.2-12.1,12.2c-0.6,0.6-1.1,1.1-1.7,1.7c-1.9,1.9-3.7,3.8-5.6,5.4c-2.5,2.2-5,6.2-3,12.2
				c5.1,15.6,6.2,30.3,3.1,43.7c-3.1,13.5-10.6,26-22.2,37.3c-13.6,13.2-31.7,20.5-50.9,20.5c-27.3,0-52.5-14.5-65.7-37.9
				c-11.3-20.1-13.1-43.7-4.9-64.8c8.1-21,25.2-37,46.9-44.1c7.7-2.5,15.5-3.8,23.3-3.8c8.5,0,17.1,1.6,25.7,4.6
				c1.6,0.6,3,0.8,4.4,0.8c3,0,5.8-1.3,8.2-3.7c5.3-5.4,10.8-10.9,16.2-16.2c2.1-2.1,4.2-4.2,6.3-6.3c0.5-0.5,0.9-1,1.4-1.5
				c0.2-0.2,0.4-0.4,0.6-0.6l2.9-5.1l-3.6-3.2l-1.4-2c2.2-2.2,5.4-5.6,7.7-7.8c1.5-1.5,4.1-3.7,5.6-5.2c0.3,0.4,2.5,1.9,2.8,2.4
				l6.2,4.7c3.4-0.9,5.3-5.3,5.3-5.3c1.1-2.7,2.2-5.3,3.3-7.9c2.9-7,5.6-13.6,8.3-20.1c0.8-1.9,1.3-2.4,1.4-2.5
				C205.5,28.9,205.8,28.7,206,28.7 M206,21c-2.1,0-4.2,0.8-6,2.5c-1.4,1.3-2.5,3.3-3.3,5.2c-3.8,9-7.4,18-11.6,28.1
				c-1.2-1.7-1.9-2.9-2.9-3.8c-1.5-1.5-2.8-2.3-4.1-2.3s-2.6,0.8-4.2,2.3c-4.2,4.2-8.4,8.4-12.6,12.5c-4.4,4.3-4.4,5.8-0.3,10.5
				c-0.7,0.7-1.2,1.3-1.7,1.9c-7.5,7.5-15.1,15-22.6,22.6c-0.9,1-1.8,1.4-2.7,1.4c-0.5,0-1.1-0.1-1.8-0.4
				c-9.4-3.4-18.8-5.1-28.2-5.1c-8.6,0-17.1,1.4-25.7,4.2C28,117.1,6,174.5,32,220.6c15.3,27.2,43.8,41.8,72.4,41.8
				c20.2,0,40.5-7.3,56.3-22.6c25.6-24.9,32.1-55,21-88.9c-0.6-1.7-0.6-2.8,0.9-4.1c2.6-2.4,5.1-4.9,7.6-7.5
				c5.7-5.7,11.3-11.5,16.9-17.2c2.6,2.2,4.4,3.2,5.9,3.2c1.1,0,2-0.5,3.1-1.6c5.1-4.9,10.1-10,15.1-15c2.2-2.3,2.1-4.8-0.2-7
				c-1-1-2.4-1.7-3.6-2.5c1.8-1.5,2.9-2,3.9-2.4c8.2-3.4,16.4-6.7,24.6-10.1c7.4-3.1,9-10.7,3.4-16.4c-3.2-3.3-6.5-6.6-9.8-9.8
				c-12-12-24-24-36-36C211.2,22.2,208.5,21,206,21L206,21z"/>
		</g>
	</g>
	<g id="Layer_1_copy_2">
		<g>
			<g>
				<g>
					<path class="st5" d="M212.8,121.5c-0.3-0.1-1.2-0.6-3.4-2.3c-2.5-2-40.8-40.5-45.5-45.7c-1.5-1.7-1.9-2.4-2.1-2.7
						c0.1-0.3,0.6-1,2.2-2.5c2.2-2.2,4.5-4.4,6.7-6.7c2-2,3.9-3.9,5.9-5.8c0.9-0.8,1.3-1.1,1.5-1.2c0.2,0.1,0.6,0.3,1.3,1.1
						c1.1,1.2,48.4,48.4,48.8,48.8c0.5,0.5,0.7,0.9,0.7,0.9c0,0.1-0.1,0.3-0.5,0.7c-5.3,5.5-10.2,10.4-15,15
						C213.1,121.3,212.9,121.4,212.8,121.5z"/>
					<path class="st4" d="M178.1,59.7c6.9,6.9,37.8,37.8,45.6,45.7c-4,4-7.7,7.8-11.3,11.3c-0.2-0.1-0.3-0.3-0.5-0.4
						c-3.2-2.7-40.5-40.2-45.1-45.3c2.2-2.2,4.4-4.4,6.7-6.6C175,62.7,176.5,61.2,178.1,59.7 M178.1,50.7L178.1,50.7
						c-1.3,0-2.7,0.8-4.2,2.3c-4.2,4.2-8.4,8.4-12.6,12.5c-4.4,4.3-4.5,5.9-0.3,10.5c4.2,4.7,43,43.7,46,46.1s4.4,3.2,5.9,3.2
						c1.1,0,2-0.5,3.1-1.6c5.1-4.9,10.1-10,15.1-15c2.2-2.3,2.1-4.8-0.2-7c-1-1-47.8-47.8-48.7-48.7
						C180.7,51.4,179.4,50.7,178.1,50.7L178.1,50.7z"/>
				</g>
			</g>
		</g>
	</g>
	<g>
		<path class="st4" d="M134.2,180.7c-12.4,0-24.9-1.2-34.3-4.7c-5.4-2-10.2-4-15-6c-18.3-7.5-32.7-13.4-56.3-13.4V149
			c25.1,0,40.9,6.5,59.2,14c4.7,1.9,9.5,3.9,14.8,5.9c25.1,9.5,78.4-0.1,78.9-0.2l1.4,7.5C181.5,176.5,157.9,180.7,134.2,180.7z"/>
	</g>
	<circle class="st4" cx="210.5" cy="49.6" r="4"/>
	<circle class="st4" cx="234.6" cy="73.8" r="4"/>
	<circle class="st4" cx="215.3" cy="69" r="4"/>
	<g>
		<circle class="st6" cx="64.2" cy="196.7" r="10.8"/>
		<path class="st4" d="M64.2,189.8c3.8,0,6.9,3.1,6.9,6.9c0,3.8-3.1,6.9-6.9,6.9s-6.9-3.1-6.9-6.9C57.3,192.9,60.4,189.8,64.2,189.8
			 M64.2,182.1c-8.1,0-14.6,6.5-14.6,14.6s6.5,14.6,14.6,14.6s14.6-6.5,14.6-14.6C78.8,188.6,72.3,182.1,64.2,182.1L64.2,182.1z"/>
	</g>
	<g>
		<path class="st6" d="M124.8,229.7c-8.5,0-15.4-6.9-15.4-15.4s6.9-15.4,15.4-15.4s15.4,6.9,15.4,15.4S133.3,229.7,124.8,229.7z"/>
		<path class="st4" d="M124.8,202.7c6.4,0,11.6,5.2,11.6,11.6c0,6.4-5.2,11.6-11.6,11.6s-11.6-5.2-11.6-11.6
			C113.2,207.9,118.4,202.7,124.8,202.7 M124.8,195c-10.6,0-19.3,8.6-19.3,19.3s8.6,19.3,19.3,19.3s19.3-8.6,19.3-19.3
			S135.4,195,124.8,195L124.8,195z"/>
	</g>
	<circle class="st4" cx="111.7" cy="125.9" r="8.8"/>
	<circle class="st4" cx="131.7" cy="151.8" r="10.1"/>
	<circle class="st4" cx="84.5" cy="140.5" r="7.1"/>
</g>
</svg>
