<?xml version="1.0" encoding="utf-8"?>
<!-- Generator: Adobe Illustrator 22.1.0, SVG Export Plug-In . SVG Version: 6.00 Build 0)  -->
<svg version="1.1" xmlns="http://www.w3.org/2000/svg" xmlns:xlink="http://www.w3.org/1999/xlink" x="0px" y="0px"
	 viewBox="0 0 283.5 283.5" style="enable-background:new 0 0 283.5 283.5;" xml:space="preserve">
<style type="text/css">
	.st0{fill:#FFFFFF;}
	.st1{fill:#D8662E;}
	.st2{fill:#221F21;}
	.st3{fill:#E3C638;}
</style>
<g id="Layer_9">
	<path class="st0" d="M246.7,283.5h-210C16.5,283.5,0,266.9,0,246.7v-210C0,16.5,16.5,0,36.7,0h210c20.2,0,36.7,16.5,36.7,36.7v210
		C283.5,266.9,266.9,283.5,246.7,283.5z"/>
</g>
<g id="SiicusTattoo">
	<g>
		<g>
			<g>
				<path class="st1" d="M115.2,258.7c-23.8,0-52.9-15.8-66.2-46c3,1,5.9,1.8,8.7,2.1l6.4,0.7l-2.3-6c-1-2.6-2.1-5.2-3.1-7.7
					c-5.3-13-9.9-24.2-9.4-37.7c0.5-11.6,3.3-21.7,8.9-30.9c-0.2,1.5-0.4,3.1-0.6,4.6c-0.5,5.7-0.7,12.4,0.9,18.7
					c1.3,4.8,6.1,9.8,10.6,11c0.8,0.2,1.6,0.3,2.4,0.3c6.3,0,8.7-6.6,10-10.2c4.2-11.5,4.7-23.5,1.6-34.8c-5.7-20.6,0.6-37,20.6-53
					c1.6-1.2,3.1-2.4,4.8-3.7c2.5-1.8,5-3.7,7.4-5.8c10.3-9.1,13.1-20.4,8.3-32.7c12.4,6.9,21.1,15.2,27,25.7
					c4,7.1,5.3,14.8,3.9,22.8c-0.9,5.3-2,10.7-3,15.9c-1.1,5.8-2.3,11.7-3.3,17.6c-0.7,4-1.1,8.5-1.1,13.6
					c-0.1,10.6,4.1,17.1,12.9,20.1c1.8,0.6,3.7,0.9,5.8,0.9c6.9,0,14.1-3.7,18.2-9.4c3.9-5.5,5.6-11.6,5-18.2
					c13.2,14.6,19.8,32.2,19.8,53.4l0,10.2l6.7-7.6c5.3-6.1,7.2-12.2,5.8-19.3c0.3,0.4,0.6,0.8,0.9,1.2c0.6,0.9,1.2,1.7,1.8,2.6
					c8.6,12.3,12.9,24.2,13.1,36.4c0.3,14.7-5.7,27.2-18.3,38.3C193.7,254.2,160.5,258.7,115.2,258.7L115.2,258.7z"/>
				<path class="st2" d="M130.1,36c7.7,5.5,13.5,11.8,17.7,19.3c3.6,6.3,4.7,13.1,3.5,20.2c-0.9,5.3-2,10.6-3,15.8
					c-1.1,5.8-2.3,11.8-3.3,17.7c-0.7,4.3-1.1,8.9-1.2,14.2c-0.1,12.3,5.1,20.3,15.5,23.8c2.2,0.7,4.6,1.1,7,1.1
					c8.3,0,16.4-4.2,21.3-11c2.4-3.3,4-6.8,4.9-10.4c8.6,12.3,12.8,26.7,12.9,43.4l0.1,20.3l13.4-15.3c2.9-3.3,4.9-6.7,6.1-10.2
					c5.8,9.7,8.6,19,8.8,28.7c0.3,13.4-5.3,25-17,35.3c-24.7,21.5-57.2,25.8-101.6,25.8c-13.1,0-26.9-4.9-38.8-13.7
					c-8.3-6.2-15.1-13.8-20.2-22.6c0.3,0,0.6,0.1,1,0.1l12.7,1.5l-4.7-11.9c-1-2.7-2.1-5.3-3.1-7.8c-5.2-12.6-9.6-23.4-9.1-36.1
					c0.1-3.4,0.5-6.6,1.1-9.8c0.2,1,0.4,2,0.7,3c1.6,6.1,7.5,12.2,13.3,13.8c1.1,0.3,2.3,0.5,3.4,0.5c9,0,12.3-8.9,13.6-12.7
					c4.4-12.2,5-25.1,1.7-37.1c-5.2-18.9,0.7-34,19.3-49c1.5-1.2,3.1-2.3,4.7-3.6c2.5-1.9,5.2-3.8,7.7-6.1
					C127.2,55.6,131.1,46.1,130.1,36 M119.3,21c-0.4,0-0.9,0.2-1.2,0.3c-0.1,0.3-0.2,0.6-0.1,0.7c0.7,2,1.3,3.9,2.2,5.8
					c5,11.6,2.5,21.5-6.8,29.8c-3.8,3.4-8.1,6.2-12.1,9.4c-18.4,14.7-28.7,32.3-21.9,57c3,10.7,2.4,21.8-1.5,32.5
					c-1.2,3.4-2.9,7.7-6.4,7.7c-0.4,0-0.9-0.1-1.3-0.2c-3.3-0.9-7-5-7.9-8.3c-1.5-5.5-1.3-11.6-0.8-17.4c0.5-6.3,2.2-12.5,3.6-20.2
					C52,131.7,46,146.7,45.3,164c-0.7,17.2,6.5,30.9,12.8,47c-4.8-0.6-11.1-2.7-16-5.8c11.2,35.7,43.8,57.3,73.1,57.3c0,0,0,0,0,0
					c46.9,0,80.6-5.1,106.6-27.7c12.2-10.8,20-24.2,19.6-41.3c-0.3-14.4-5.7-27-13.8-38.5c-5.4-7.8-11.8-14.9-9.5-25.7
					c-1.6,3-3,6.1-2.8,9c0.4,5.2,1.6,10.4,2.7,15.6c1.2,5.7,0,10.7-4.9,16.2c-0.1-27.5-10.6-48.8-30.7-65.4c0.1,1.4,0.7,2.5,1.1,3.6
					c3.3,8.5,3.4,16.7-2.1,24.4c-3.5,4.9-9.5,7.8-15,7.8c-1.6,0-3.1-0.2-4.5-0.7c-7.1-2.4-10.4-7.5-10.3-16.5c0-4.3,0.3-8.7,1.1-13
					c1.9-11.2,4.3-22.3,6.3-33.5c1.6-8.9,0-17.5-4.4-25.3c-8-14.3-20.5-23.6-35-30.5C119.5,21,119.4,21,119.3,21L119.3,21z"/>
			</g>
		</g>
	</g>
	<g>
		<g>
			<g>
				<path class="st3" d="M141,258c-12.5-5.9-35.6-20.1-43.5-29.3c-5.1-5.9-8.9-14.2-10.8-21.2c8.4,9.7,16.9,14.4,26.1,14.4
					c1.7,0,3.4-0.2,5.1-0.5l10.4-2l-9.2-5.1l-1.1-0.6c-0.7-0.4-1.2-0.7-1.8-1c-9.2-4.9-14.2-12.5-15.4-23.3
					c-1.2-10.4,1.4-20.6,8.2-33.2c5.6-10.1,10.8-21,11-33.5c0.9,1.8,1.6,3.9,2.1,6.4c1.7,7.9,0.1,15.9-1.6,22.8
					c-2.6,10.7-2.9,20.2-1,29.1c1.5,7.2,4.4,12.9,8.7,17.5c3.9,4,8.2,6.1,13,6.1c1.8,0,3.6-0.3,5.4-0.9c6.3-2,10.2-6.8,11.7-14.2
					c1.1-5.4,0.1-10.3-1.3-15c11.5,8.4,18.2,16.6,22.1,27c5.5,14.4,1,36.2-10.8,53.5c-2.6,0.4-5.7,0.9-8.7,1.3
					c-1.4,0.2-2.8,0.4-4.2,0.6c-3.8,0.6-8.8,0.9-13.2,1.1L141,258z"/>
				<path class="st2" d="M117.4,148c-0.2,1-0.4,1.9-0.7,2.9c-2.7,11.3-3,21.3-1,30.8c1.7,7.9,4.9,14.3,9.7,19.3
					c5.7,6,11.7,7.3,15.7,7.3c2.2,0,4.4-0.4,6.6-1.1c5.3-1.7,12.1-6.1,14.3-17.1c0.4-2.1,0.6-4.2,0.5-6.2c6.2,5.8,10.3,11.8,13,18.9
					c2.5,6.5,2.7,15.2,0.7,24.5c-1.8,8.3-5.4,16.8-10.2,24.1c-2.2,0.3-4.6,0.7-6.9,1c-1.4,0.2-2.8,0.4-4.2,0.6
					c-3.7,0.5-8.6,0.8-12.9,1.1c-0.1,0-0.2,0-0.4,0c-12.4-6-33.9-19.3-41.3-27.9c-1.3-1.5-2.5-3.1-3.6-4.9c5.1,3,10.4,4.4,15.9,4.4
					c1.9,0,3.9-0.2,5.9-0.6l20.7-3.9l-18.4-10.3c-0.4-0.2-0.7-0.4-1.1-0.6c-0.7-0.4-1.3-0.7-1.9-1c-8.1-4.3-12.4-10.7-13.4-20.3
					c-1.1-9.6,1.3-19.1,7.8-30.9C114.1,154.7,115.8,151.4,117.4,148 M114.9,112c3.8,16.1-2.2,29.3-9.3,42.3
					c-6,11-10.1,22.5-8.7,35.4c1.3,11.8,6.9,20.7,17.5,26.2c0.8,0.4,1.6,0.9,2.8,1.6c-1.5,0.3-3,0.4-4.4,0.4
					c-10.6,0-20.5-7.6-30.7-23.1c-2.5,8.3,4.1,26.4,12.6,36.3c8.8,10.2,33.5,25.1,45.7,30.7c5.1-0.3,11.1-0.6,15.8-1.3
					c4.7-0.7,10.5-1.5,14.5-2.2c12.6-17.7,18.5-41.6,12.1-58.3c-6-15.7-17.9-25.8-32.9-35c0.8,2.6,1.2,3.9,1.7,5.2
					c2.1,5.9,4.3,11.8,3,18.3c-1.1,5.4-3.7,9.6-9.1,11.3c-1.5,0.5-2.9,0.7-4.2,0.7c-3.9,0-7.3-1.8-10.2-4.9
					c-4.2-4.4-6.5-9.7-7.7-15.6c-2-9.2-1.2-18.3,1-27.4c1.9-8.1,3.4-16.2,1.6-24.5C124.4,121.7,121.7,116,114.9,112L114.9,112z"/>
			</g>
		</g>
	</g>
</g>
</svg>
