<?xml version="1.0" encoding="utf-8"?>
<!-- Generator: Adobe Illustrator 22.1.0, SVG Export Plug-In . SVG Version: 6.00 Build 0)  -->
<svg version="1.1" id="Layer_1" xmlns="http://www.w3.org/2000/svg" xmlns:xlink="http://www.w3.org/1999/xlink" x="0px" y="0px"
	 viewBox="0 0 100 100" style="enable-background:new 0 0 100 100;" xml:space="preserve">
<style type="text/css">
	.st0{fill:url(#SVGID_1_);}
</style>
<linearGradient id="SVGID_1_" gradientUnits="userSpaceOnUse" x1="2.728484e-12" y1="49.9896" x2="100" y2="49.9896">
	<stop  offset="0" style="stop-color:#797879"/>
	<stop  offset="0.5" style="stop-color:#020203"/>
	<stop  offset="1" style="stop-color:#797879"/>
</linearGradient>
<path class="st0" d="M61.7,100c-1.5,0-2.5-0.8-3.2-2.2c-1.8-3.7-3.6-7.4-5.4-11.1c-4.2-8.7-8.4-17.5-12.7-26.2
	c-0.2-0.4-0.6-0.8-1.1-1c-12.3-6-24.6-11.9-36.9-17.9c-0.8-0.4-1.7-1.1-2.1-1.9c-1-1.9-0.1-3.8,2.2-4.6c3.5-1.3,7-2.6,10.5-3.9
	c21.8-8.2,43.5-16.3,65.3-24.5C84,4.5,89.6,2.5,95.1,0.3C96.6-0.2,97.9-0.2,99,1c1.1,1.1,1.2,2.4,0.6,3.9c-8,21.4-16,42.8-24.1,64.1
	c-3.5,9.4-7.1,18.8-10.6,28.3C64.3,99.1,63.3,100,61.7,100z M61.3,88.1c8.9-23.8,17.8-47.4,26.6-71c-0.4,0.1-0.7,0.3-0.9,0.5
	C73.9,30.9,60.7,44,47.5,57.2c-0.6,0.6-0.7,1-0.3,1.8c3.4,7,6.8,14,10.1,21C58.6,82.6,59.9,85.2,61.3,88.1z M83,12.4
	c-0.1-0.1-0.1-0.2-0.2-0.3c-23.6,8.8-47.1,17.7-70.9,26.6c0.8,0.4,1.2,0.6,1.7,0.8c9.1,4.4,18.2,8.8,27.3,13.2
	c0.9,0.4,1.4,0.4,2.1-0.3c11-11,22-22.1,33.1-33.1C78.3,17,80.7,14.7,83,12.4z"/>
</svg>
