<?xml version="1.0" encoding="utf-8"?>
<!-- Generator: Adobe Illustrator 22.1.0, SVG Export Plug-In . SVG Version: 6.00 Build 0)  -->
<svg version="1.1" id="Layer_1" xmlns="http://www.w3.org/2000/svg" xmlns:xlink="http://www.w3.org/1999/xlink" x="0px" y="0px"
	 viewBox="0 0 100 100" style="enable-background:new 0 0 100 100;" xml:space="preserve">
<style type="text/css">
	.st0{fill:url(#SVGID_1_);}
</style>
<linearGradient id="SVGID_1_" gradientUnits="userSpaceOnUse" x1="-1.818989e-12" y1="50" x2="100" y2="50">
	<stop  offset="0" style="stop-color:#7A7879"/>
	<stop  offset="0.5" style="stop-color:#020303"/>
	<stop  offset="1" style="stop-color:#7A7879"/>
</linearGradient>
<path class="st0" d="M46.5,99.8c-3.2-0.5-6.5-0.8-9.6-1.7c-10.8-2.9-19.6-9-26.4-17.8c-4.8-6.2-8-13.2-9.4-21
	c-1.3-7.2-1.5-11,0.2-19.8c2.3-10.9,7.7-20,16.1-27.3C24.7,5.8,33.3,1.8,43,0.4c3.8-0.5,10.7-0.8,17.3,0.5
	c20.4,4.5,35.5,20.2,39.2,40.7c0.9,4.9,0.6,14.6-0.3,18.6c-1.9,8.8-5.8,16.6-11.9,23.2c-8.1,8.9-18.1,14.3-29.9,16
	C53.5,100,49.6,100.3,46.5,99.8z M94,50C94.1,25.6,74.7,6.1,50.3,6.1C25.9,6,6.4,25.3,6.3,49.7c-0.1,24.5,19.2,44,43.6,44.1
	C74.5,93.8,94,74.5,94,50z M50.1,75.5c-10.7,0-18.5-5.1-23.2-14.9c-1.8,0.8-3.6,1.6-5.4,2.4c4.5,11,15.9,20.2,30.8,19.3
	c12.6-0.7,22.5-8.5,26.6-19.3c-1.3-0.6-2.5-1.1-3.8-1.7c-0.5-0.2-1.1-0.5-1.6-0.7C68.5,70.1,60.8,75.5,50.1,75.5z M62.6,31.1
	c-3.4,0-6.2,2.9-6.2,6.3c0.1,3.3,2.9,6.2,6.2,6.2c3.4,0,6.3-2.9,6.2-6.3C68.9,33.9,66,31.1,62.6,31.1z M37.6,31.1
	c-3.4,0.1-6.2,2.9-6.2,6.3c0,3.4,3,6.2,6.3,6.2c3.4-0.1,6.2-2.9,6.1-6.2C43.9,34,41,31.1,37.6,31.1z"/>
</svg>
