<?xml version="1.0" encoding="utf-8"?>
<!-- Generator: Adobe Illustrator 22.1.0, SVG Export Plug-In . SVG Version: 6.00 Build 0)  -->
<svg version="1.1" id="Layer_1" xmlns="http://www.w3.org/2000/svg" xmlns:xlink="http://www.w3.org/1999/xlink" x="0px" y="0px"
	 viewBox="0 0 100 100" style="enable-background:new 0 0 100 100;" xml:space="preserve">
<style type="text/css">
	.st0{fill:url(#SVGID_1_);}
</style>
<linearGradient id="SVGID_1_" gradientUnits="userSpaceOnUse" x1="9.746590e-03" y1="50.05" x2="99.8892" y2="50.05">
	<stop  offset="0" style="stop-color:#797879"/>
	<stop  offset="0.5" style="stop-color:#010101"/>
	<stop  offset="1" style="stop-color:#797879"/>
</linearGradient>
<path class="st0" d="M51.5,50.1c0-12.4,0-24.9,0-37.3c0-0.5,0-1,0-1.4c-0.1-1.7-1.1-2.1-2.5-1.2c-0.4,0.3-0.8,0.7-1.2,1
	c-7.2,6-14.4,11.9-21.6,17.9c-0.3,0.3-0.8,0.5-1.2,0.7v40.5c0.4,0.1,0.8,0.3,1.1,0.6c2.5,1.9,4.8,4,7.3,6c5,4.2,10,8.4,15.1,12.5
	c0.6,0.5,1.5,0.6,2.2,0.9c0.3-0.8,0.6-1.6,0.8-2.4c0.1-0.5,0-1.1,0-1.6C51.5,74.2,51.5,62.2,51.5,50.1z M8.2,30
	c-2,0-3.8,0.6-4.8,2.3c-1,1.6-1.9,3.5-2.3,5.3c-1.3,6-1.2,12.1-0.9,18.2c0.1,2.6,0.4,5.3,1.2,7.7C3,68.3,4.5,70.2,9.7,70
	c2.7-0.1,5.5-0.1,8.2-0.1V30.1C14.7,30.1,11.4,30.1,8.2,30z M91.6,14.8c-1.2-1.9-2.6-3.5-4-5.4c-1.8,1.8-3.3,3.4-4.8,5
	c3,3.2,4.9,6.9,6.3,10.9C91.6,32,92.7,39,93,46.2c0.5,10.5-0.7,20.7-4.7,30.4C87,79.8,85,82.7,83.1,86c1.2,1.3,2.7,2.9,4.4,4.7
	c0.3-0.4,0.5-0.8,0.7-1c3.7-4,6.1-8.8,7.8-13.9c4.1-12.5,4.7-25.4,3-38.4C98,29.3,95.9,21.7,91.6,14.8z M82,26.8
	c-1.2-2.6-2.7-5-5-7.1c-1.6,1.7-3.1,3.2-4.6,4.8c5.9,7.7,7.2,16.5,7.2,25.6S78.3,68,72.3,75.6c1.6,1.4,3.2,2.9,5.2,4.7
	c1.5-2.4,3.2-4.8,4.4-7.3c2.8-5.8,3.9-12.1,4.3-18.5C86.9,44.9,86,35.6,82,26.8z M66.4,30.5c-1.5,1.6-3,3.2-4.5,4.8
	c5.2,6.1,5.6,22.6,0,29.6c1.6,1.4,3.2,2.9,4.9,4.4C75.1,61.6,74.6,37.3,66.4,30.5z"/>
</svg>
