<svg viewBox="0 0 24 24" fill="none" xmlns="http://www.w3.org/2000/svg"><path fill-rule="evenodd" clip-rule="evenodd" d="M9.91 6c0-2.21 1.79-4 4-4s4 1.79 4 4-1.79 4-4 4c-.136 0-.267-.017-.396-.034l-.124-.016-3.43-3.43a8.805 8.805 0 0 0-.016-.124A3.001 3.001 0 0 1 9.91 6Zm6 0c0-1.1-.9-2-2-2-.99 0-1.81.72-1.98 1.66l2.31 2.31A2 2 0 0 0 15.91 6Z" fill="inherit"/><path d="M15.6 12.16 21.44 18h.47v-2c0-2.14-3.56-3.5-6.31-3.84Z" fill="inherit"/><path fill-rule="evenodd" clip-rule="evenodd" d="M3.41 2.445 2 3.855l1.41 1.41 4.88 4.88 2.51 2.51c-2.2.6-4.39 1.79-4.39 3.49v2h9.88l5.71 5.71 1.41-1.41-20-20Zm10.88 13.7-1.87-1.87-1.1.3c-2.03.56-2.83 1.33-2.91 1.57h5.88Z" fill="inherit"/></svg>
