<svg viewBox="0 0 24 24" fill="none" xmlns="http://www.w3.org/2000/svg"><path fill-rule="evenodd" clip-rule="evenodd" d="M11.99 2C6.47 2 2 6.48 2 12s4.47 10 9.99 10C17.52 22 22 17.52 22 12S17.52 2 11.99 2Zm7.48 7.16-5.01-.43-2-4.71c3.21.19 5.91 2.27 7.01 5.14ZM12 13.98l2.4 1.44-.64-2.73 2.11-1.83-2.78-.24L12 8.06l-1.09 2.57-2.78.24 2.11 1.83-.63 2.72L12 13.98Zm-.46-9.96-2 4.72-5.02.43c1.1-2.88 3.8-4.97 7.02-5.15Zm-7.31 6.12C4.08 10.74 4 11.36 4 12c0 2.48 1.13 4.7 2.91 6.17l1.11-4.75-3.79-3.28Zm3.61 8.68L12 16.31l4.16 2.5A7.924 7.924 0 0 1 11.99 20c-1.52 0-2.94-.44-4.15-1.18Zm8.14-5.4 1.11 4.75A8.014 8.014 0 0 0 20 12c0-.64-.09-1.27-.23-1.86l-3.79 3.28Z" fill="inherit"/></svg>
