<?xml version="1.0" encoding="utf-8"?>
<!-- Generator: Adobe Illustrator 22.1.0, SVG Export Plug-In . SVG Version: 6.00 Build 0)  -->
<svg version="1.1" id="Not_logged_in" xmlns="http://www.w3.org/2000/svg" xmlns:xlink="http://www.w3.org/1999/xlink" x="0px"
	 y="0px" viewBox="0 0 841.9 595.3" style="enable-background:new 0 0 841.9 595.3;" xml:space="preserve">
<style type="text/css">
	.st0{fill:url(#SVGID_1_);}
	.st1{fill:url(#SVGID_2_);}
	.st2{fill:url(#SVGID_3_);}
	.st3{fill:url(#SVGID_4_);}
	.st4{fill:url(#SVGID_5_);}
	.st5{fill:url(#SVGID_6_);}
	.st6{fill:url(#SVGID_7_);}
	.st7{fill:url(#SVGID_8_);}
	.st8{fill:url(#SVGID_9_);}
	.st9{fill:url(#SVGID_10_);}
	.st10{fill:url(#SVGID_11_);}
	.st11{fill:url(#SVGID_12_);}
	.st12{fill:url(#SVGID_13_);}
	.st13{fill:url(#SVGID_14_);}
	.st14{fill:url(#SVGID_15_);}
	.st15{fill:url(#SVGID_16_);}
	.st16{fill:url(#SVGID_17_);}
	.st17{fill:url(#SVGID_18_);}
	.st18{fill:url(#SVGID_19_);}
	.st19{fill:url(#SVGID_20_);}
	.st20{fill:url(#SVGID_21_);}
	.st21{fill:url(#SVGID_22_);}
	.st22{fill:url(#SVGID_23_);}
	.st23{fill:url(#SVGID_24_);}
	.st24{fill:url(#SVGID_25_);}
	.st25{fill:url(#SVGID_26_);}
	.st26{fill:url(#SVGID_27_);}
	.st27{fill:url(#SVGID_28_);}
	.st28{fill:url(#SVGID_29_);}
	.st29{fill:url(#SVGID_30_);}
	.st30{fill:url(#SVGID_31_);}
</style>
<g>
	<linearGradient id="SVGID_1_" gradientUnits="userSpaceOnUse" x1="415.6788" y1="95.421" x2="415.6788" y2="499.8546">
		<stop  offset="0" style="stop-color:#A6A6A6"/>
		<stop  offset="1" style="stop-color:#171717"/>
	</linearGradient>
	<path class="st0" d="M415.7,95.4c-27.3,0-53.8,5.3-78.7,15.9c-24.1,10.2-45.7,24.8-64.3,43.4c-18.6,18.6-33.2,40.2-43.4,64.3
		c-10.5,24.9-15.9,51.3-15.9,78.7c0,27.3,5.3,53.8,15.9,78.7c10.2,24.1,24.8,45.7,43.4,64.3c18.6,18.6,40.2,33.2,64.3,43.4
		c24.9,10.5,51.3,15.9,78.7,15.9c27.3,0,53.8-5.3,78.7-15.9c24.1-10.2,45.7-24.8,64.3-43.4c18.6-18.6,33.2-40.2,43.4-64.3
		c10.5-24.9,15.9-51.3,15.9-78.7c0-27.3-5.3-53.8-15.9-78.7c-10.2-24.1-24.8-45.7-43.4-64.3c-18.6-18.6-40.2-33.2-64.3-43.4
		C469.5,100.8,443,95.4,415.7,95.4z"/>
	<linearGradient id="SVGID_2_" gradientUnits="userSpaceOnUse" x1="415.6788" y1="587.0605" x2="415.6788" y2="8.2151">
		<stop  offset="0" style="stop-color:#A6A6A6"/>
		<stop  offset="1" style="stop-color:#171717"/>
	</linearGradient>
	<path class="st1" d="M415.7,587.1c-39.1,0-77-7.7-112.7-22.7c-34.5-14.6-65.4-35.4-92-62c-26.6-26.6-47.5-57.5-62-92
		c-15.1-35.7-22.7-73.6-22.7-112.7s7.7-77,22.7-112.7c14.6-34.5,35.4-65.4,62-92c26.6-26.6,57.5-47.5,92-62
		c35.7-15.1,73.6-22.7,112.7-22.7c39.1,0,77,7.7,112.7,22.7c34.5,14.6,65.4,35.4,92,62c26.6,26.6,47.5,57.5,62,92
		c15.1,35.7,22.7,73.6,22.7,112.7s-7.7,77-22.7,112.7c-14.6,34.5-35.4,65.4-62,92c-26.6,26.6-57.5,47.5-92,62
		C492.7,579.4,454.8,587.1,415.7,587.1z M415.7,29.7c-36.2,0-71.3,7.1-104.3,21c-31.9,13.5-60.6,32.8-85.2,57.4
		c-24.6,24.6-43.9,53.3-57.4,85.2c-14,33-21,68.1-21,104.3s7.1,71.3,21,104.3c13.5,31.9,32.8,60.6,57.4,85.2
		c24.6,24.6,53.3,43.9,85.2,57.4c33,14,68.1,21,104.3,21c36.2,0,71.3-7.1,104.3-21c31.9-13.5,60.6-32.8,85.2-57.4
		c24.6-24.6,43.9-53.3,57.4-85.2c14-33,21-68.1,21-104.3s-7.1-71.3-21-104.3c-13.5-31.9-32.8-60.6-57.4-85.2
		c-24.6-24.6-53.3-43.9-85.2-57.4C486.9,36.8,451.9,29.7,415.7,29.7z"/>
	<linearGradient id="SVGID_3_" gradientUnits="userSpaceOnUse" x1="415.6788" y1="0" x2="415.6788" y2="595.2756">
		<stop  offset="0" style="stop-color:#A6A6A6"/>
		<stop  offset="1" style="stop-color:#171717"/>
	</linearGradient>
	<path class="st2" d="M415.7,19c37.6,0,74.1,7.4,108.5,21.9c33.2,14,63,34.1,88.6,59.7c25.6,25.6,45.7,55.4,59.7,88.6
		c14.5,34.3,21.9,70.8,21.9,108.5s-7.4,74.1-21.9,108.5c-14,33.2-34.1,63-59.7,88.6c-25.6,25.6-55.4,45.7-88.6,59.7
		c-34.3,14.5-70.8,21.9-108.5,21.9s-74.1-7.4-108.5-21.9c-33.2-14-63-34.1-88.6-59.7c-25.6-25.6-45.7-55.4-59.7-88.6
		c-14.5-34.3-21.9-70.8-21.9-108.5s7.4-74.1,21.9-108.5c14-33.2,34.1-63,59.7-88.6C244.2,75,274,54.9,307.2,40.9
		C341.6,26.3,378,19,415.7,19 M415.7,0C251.3,0,118,133.3,118,297.6s133.3,297.6,297.6,297.6S713.3,462,713.3,297.6S580.1,0,415.7,0
		L415.7,0z"/>
	<linearGradient id="SVGID_4_" gradientUnits="userSpaceOnUse" x1="415.6788" y1="80.2548" x2="415.6788" y2="515.0208">
		<stop  offset="0" style="stop-color:#DBDBDB"/>
		<stop  offset="0.8437" style="stop-color:#595959"/>
	</linearGradient>
	<path class="st3" d="M415.7,515c-29.4,0-57.8-5.7-84.6-17C305.2,487,282,471.3,262,451.3c-20-20-35.7-43.2-46.6-69.1
		c-11.3-26.7-17.1-55.2-17.1-84.6c0-29.4,5.7-57.8,17-84.6c10.9-25.9,26.6-49.1,46.6-69.1c20-20,43.2-35.7,69.1-46.6
		c26.7-11.3,55.2-17.1,84.6-17.1c29.4,0,57.8,5.7,84.6,17.1c25.9,10.9,49.1,26.6,69.1,46.6c20,20,35.7,43.2,46.6,69.1
		c11.3,26.8,17,55.2,17,84.6c0,29.4-5.7,57.8-17,84.6c-10.9,25.9-26.6,49.1-46.6,69.1c-20,20-43.2,35.7-69.1,46.6
		C473.5,509.3,445.1,515,415.7,515z M415.7,95.4c-27.3,0-53.8,5.3-78.7,15.9c-24.1,10.2-45.7,24.8-64.3,43.4
		c-18.6,18.6-33.2,40.2-43.4,64.3c-10.5,24.9-15.9,51.3-15.9,78.7c0,27.3,5.3,53.8,15.9,78.7c10.2,24.1,24.8,45.7,43.4,64.3
		c18.6,18.6,40.2,33.2,64.3,43.4c24.9,10.5,51.3,15.9,78.7,15.9c27.3,0,53.8-5.3,78.7-15.9c24.1-10.2,45.7-24.8,64.3-43.4
		c18.6-18.6,33.2-40.2,43.4-64.3c10.5-24.9,15.9-51.3,15.9-78.7c0-27.3-5.3-53.8-15.9-78.7c-10.2-24.1-24.8-45.7-43.4-64.3
		c-18.6-18.6-40.2-33.2-64.3-43.4C469.5,100.8,443,95.4,415.7,95.4z"/>
	<linearGradient id="SVGID_5_" gradientUnits="userSpaceOnUse" x1="415.6788" y1="29.7006" x2="415.6788" y2="565.575">
		<stop  offset="0" style="stop-color:#9E9E9E"/>
		<stop  offset="1" style="stop-color:#0D0D0D"/>
	</linearGradient>
	<path class="st4" d="M415.7,87.8c28.4,0,55.8,5.5,81.6,16.5c25,10.6,47.4,25.7,66.7,45c19.3,19.3,34.4,41.7,45,66.7
		c10.9,25.8,16.5,53.3,16.5,81.6s-5.5,55.8-16.5,81.6c-10.6,25-25.7,47.4-45,66.7c-19.3,19.3-41.7,34.4-66.7,45
		c-25.8,10.9-53.3,16.5-81.6,16.5c-28.4,0-55.8-5.5-81.6-16.5c-25-10.6-47.4-25.7-66.7-45c-19.3-19.3-34.4-41.7-45-66.7
		c-10.9-25.8-16.5-53.3-16.5-81.6c0-28.4,5.5-55.8,16.5-81.6c10.6-25,25.7-47.4,45-66.7c19.3-19.3,41.7-34.4,66.7-45
		C359.9,93.4,387.3,87.8,415.7,87.8 M415.7,29.7c-36.2,0-71.3,7.1-104.3,21c-31.9,13.5-60.6,32.8-85.2,57.4
		c-24.6,24.6-43.9,53.3-57.4,85.2c-14,33-21,68.1-21,104.3s7.1,71.3,21,104.3c13.5,31.9,32.8,60.6,57.4,85.2
		c24.6,24.6,53.3,43.9,85.2,57.4c33,14,68.1,21,104.3,21c36.2,0,71.3-7.1,104.3-21c31.9-13.5,60.6-32.8,85.2-57.4
		c24.6-24.6,43.9-53.3,57.4-85.2c14-33,21-68.1,21-104.3s-7.1-71.3-21-104.3c-13.5-31.9-32.8-60.6-57.4-85.2
		c-24.6-24.6-53.3-43.9-85.2-57.4C486.9,36.8,451.9,29.7,415.7,29.7L415.7,29.7z"/>
</g>
<g>
	<radialGradient id="SVGID_6_" cx="359.1213" cy="62.2448" r="9.1629" gradientUnits="userSpaceOnUse">
		<stop  offset="0.421" style="stop-color:#EBEBEB"/>
		<stop  offset="1" style="stop-color:#A3A3A3"/>
	</radialGradient>
	<circle class="st5" cx="359.1" cy="62.2" r="9.2"/>
	<radialGradient id="SVGID_7_" cx="446.9592" cy="58.4533" r="9.1629" gradientUnits="userSpaceOnUse">
		<stop  offset="0.421" style="stop-color:#EBEBEB"/>
		<stop  offset="1" style="stop-color:#A3A3A3"/>
	</radialGradient>
	<circle class="st6" cx="447" cy="58.5" r="9.2"/>
	<radialGradient id="SVGID_8_" cx="530.3737" cy="84.9942" r="9.1629" gradientUnits="userSpaceOnUse">
		<stop  offset="0.421" style="stop-color:#EBEBEB"/>
		<stop  offset="1" style="stop-color:#A3A3A3"/>
	</radialGradient>
	<circle class="st7" cx="530.4" cy="85" r="9.2"/>
	<radialGradient id="SVGID_9_" cx="599.2537" cy="140.6038" r="9.1629" gradientUnits="userSpaceOnUse">
		<stop  offset="0.421" style="stop-color:#C9C9C9"/>
		<stop  offset="1" style="stop-color:#878787"/>
	</radialGradient>
	<circle class="st8" cx="599.3" cy="140.6" r="9.2"/>
	<radialGradient id="SVGID_10_" cx="642.2248" cy="218.0473" r="9.1629" gradientUnits="userSpaceOnUse">
		<stop  offset="0.421" style="stop-color:#C9C9C9"/>
		<stop  offset="1" style="stop-color:#878787"/>
	</radialGradient>
	<circle class="st9" cx="642.2" cy="218" r="9.2"/>
	<radialGradient id="SVGID_11_" cx="654.2314" cy="304.273" r="9.1629" gradientUnits="userSpaceOnUse">
		<stop  offset="0.421" style="stop-color:#BABABA"/>
		<stop  offset="1" style="stop-color:#575757"/>
	</radialGradient>
	<circle class="st10" cx="654.2" cy="304.3" r="9.2"/>
	<radialGradient id="SVGID_12_" cx="634.6417" cy="390.4988" r="9.1629" gradientUnits="userSpaceOnUse">
		<stop  offset="0.421" style="stop-color:#BABABA"/>
		<stop  offset="1" style="stop-color:#575757"/>
	</radialGradient>
	<circle class="st11" cx="634.6" cy="390.5" r="9.2"/>
	<radialGradient id="SVGID_13_" cx="585.3513" cy="462.8868" r="9.1629" gradientUnits="userSpaceOnUse">
		<stop  offset="0.421" style="stop-color:#B5B5B5"/>
		<stop  offset="1" style="stop-color:#454545"/>
	</radialGradient>
	<circle class="st12" cx="585.4" cy="462.9" r="9.2"/>
	<radialGradient id="SVGID_14_" cx="513.3116" cy="513.441" r="9.1629" gradientUnits="userSpaceOnUse">
		<stop  offset="0.421" style="stop-color:#B0B0B0"/>
		<stop  offset="1" style="stop-color:#303030"/>
	</radialGradient>
	<circle class="st13" cx="513.3" cy="513.4" r="9.2"/>
	<radialGradient id="SVGID_15_" cx="427.3695" cy="534.2946" r="9.1629" gradientUnits="userSpaceOnUse">
		<stop  offset="0.421" style="stop-color:#B0B0B0"/>
		<stop  offset="1" style="stop-color:#303030"/>
	</radialGradient>
	<circle class="st14" cx="427.4" cy="534.3" r="9.2"/>
	<radialGradient id="SVGID_16_" cx="340.7954" cy="522.288" r="9.1629" gradientUnits="userSpaceOnUse">
		<stop  offset="0.421" style="stop-color:#B0B0B0"/>
		<stop  offset="1" style="stop-color:#303030"/>
	</radialGradient>
	<circle class="st15" cx="340.8" cy="522.3" r="9.2"/>
	<radialGradient id="SVGID_17_" cx="263.7003" cy="479.9489" r="9.1629" gradientUnits="userSpaceOnUse">
		<stop  offset="0.421" style="stop-color:#B5B5B5"/>
		<stop  offset="1" style="stop-color:#454545"/>
	</radialGradient>
	<circle class="st16" cx="263.7" cy="479.9" r="9.2"/>
	<radialGradient id="SVGID_18_" cx="207.4588" cy="412.3326" r="9.1629" gradientUnits="userSpaceOnUse">
		<stop  offset="0.421" style="stop-color:#BABABA"/>
		<stop  offset="1" style="stop-color:#575757"/>
	</radialGradient>
	<circle class="st17" cx="207.5" cy="412.3" r="9.2"/>
	<radialGradient id="SVGID_19_" cx="177.7582" cy="329.0923" r="9.1629" gradientUnits="userSpaceOnUse">
		<stop  offset="0.421" style="stop-color:#BABABA"/>
		<stop  offset="1" style="stop-color:#575757"/>
	</radialGradient>
	<circle class="st18" cx="177.8" cy="329.1" r="9.2"/>
	<radialGradient id="SVGID_20_" cx="182.8136" cy="241.7122" r="9.1629" gradientUnits="userSpaceOnUse">
		<stop  offset="0.421" style="stop-color:#C9C9C9"/>
		<stop  offset="1" style="stop-color:#878787"/>
	</radialGradient>
	<circle class="st19" cx="182.8" cy="241.7" r="9.2"/>
	<radialGradient id="SVGID_21_" cx="217.8855" cy="161.4574" r="9.1629" gradientUnits="userSpaceOnUse">
		<stop  offset="0.421" style="stop-color:#C9C9C9"/>
		<stop  offset="1" style="stop-color:#878787"/>
	</radialGradient>
	<circle class="st20" cx="217.9" cy="161.5" r="9.2"/>
	<radialGradient id="SVGID_22_" cx="279.4985" cy="98.2647" r="9.1629" gradientUnits="userSpaceOnUse">
		<stop  offset="0.421" style="stop-color:#EBEBEB"/>
		<stop  offset="1" style="stop-color:#A3A3A3"/>
	</radialGradient>
	<circle class="st21" cx="279.5" cy="98.3" r="9.2"/>
</g>
<g>
	<linearGradient id="SVGID_23_" gradientUnits="userSpaceOnUse" x1="679.6138" y1="247.2943" x2="723.8488" y2="247.2943">
		<stop  offset="0" style="stop-color:#8F8F8F"/>
		<stop  offset="0.3481" style="stop-color:#B5B5B5"/>
		<stop  offset="1" style="stop-color:#0D0D0D"/>
	</linearGradient>
	<path class="st22" d="M719.2,305h-34.9c-2.6,0-4.7-2.1-4.7-4.7V194.2c0-2.6,2.1-4.7,4.7-4.7h34.9c2.6,0,4.7,2.1,4.7,4.7v106.1
		C723.8,302.9,721.7,305,719.2,305z"/>
	<linearGradient id="SVGID_24_" gradientUnits="userSpaceOnUse" x1="679.6138" y1="369.0132" x2="723.8488" y2="369.0132">
		<stop  offset="0" style="stop-color:#8F8F8F"/>
		<stop  offset="0.3481" style="stop-color:#B5B5B5"/>
		<stop  offset="1" style="stop-color:#0D0D0D"/>
	</linearGradient>
	<path class="st23" d="M719.2,426.7h-34.9c-2.6,0-4.7-2.1-4.7-4.7V316c0-2.6,2.1-4.7,4.7-4.7h34.9c2.6,0,4.7,2.1,4.7,4.7v106.1
		C723.8,424.6,721.7,426.7,719.2,426.7z"/>
</g>
<g>
	
		<linearGradient id="SVGID_25_" gradientUnits="userSpaceOnUse" x1="445.4904" y1="272.04" x2="489.7253" y2="272.04" gradientTransform="matrix(0.4714 0.4714 -1.2263 1.2263 528.8313 -256.4027)">
		<stop  offset="0" style="stop-color:#A1A1A1"/>
		<stop  offset="0.3481" style="stop-color:#D9D9D9"/>
		<stop  offset="1" style="stop-color:#242424"/>
	</linearGradient>
	<polygon class="st24" points="355.3,378.8 334.5,358 476,216.4 496.9,237.3 	"/>
	
		<linearGradient id="SVGID_26_" gradientUnits="userSpaceOnUse" x1="455.7173" y1="245.017" x2="499.9522" y2="245.017" gradientTransform="matrix(-0.4714 0.4714 -1.2263 -1.2263 941.4022 372.8313)">
		<stop  offset="0" style="stop-color:#A1A1A1"/>
		<stop  offset="0.3481" style="stop-color:#D9D9D9"/>
		<stop  offset="1" style="stop-color:#242424"/>
	</linearGradient>
	<polygon class="st25" points="334.5,237.3 355.3,216.4 496.9,358 476,378.8 	"/>
</g>
<g>
	<linearGradient id="SVGID_27_" gradientUnits="userSpaceOnUse" x1="415.6788" y1="178.1338" x2="415.6788" y2="417.1418">
		<stop  offset="0" style="stop-color:#999999"/>
		<stop  offset="1" style="stop-color:#757575"/>
	</linearGradient>
	<path class="st26" d="M415.7,203.4c52,0,94.2,42.3,94.2,94.2s-42.3,94.2-94.2,94.2s-94.2-42.3-94.2-94.2S363.7,203.4,415.7,203.4
		 M415.7,178.1c-66,0-119.5,53.5-119.5,119.5s53.5,119.5,119.5,119.5s119.5-53.5,119.5-119.5S481.7,178.1,415.7,178.1L415.7,178.1z"
		/>
	<linearGradient id="SVGID_28_" gradientUnits="userSpaceOnUse" x1="415.6785" y1="395.0237" x2="415.6785" y2="200.2513">
		<stop  offset="0" style="stop-color:#A6A6A6"/>
		<stop  offset="1" style="stop-color:#171717"/>
	</linearGradient>
	<path class="st27" d="M415.7,200.3c-53.7,0-97.4,43.7-97.4,97.4S362,395,415.7,395s97.4-43.7,97.4-97.4S469.4,200.3,415.7,200.3z
		 M415.7,391.9c-52,0-94.2-42.3-94.2-94.2s42.3-94.2,94.2-94.2s94.2,42.3,94.2,94.2S467.6,391.9,415.7,391.9z"/>
	<linearGradient id="SVGID_29_" gradientUnits="userSpaceOnUse" x1="415.6788" y1="178.1339" x2="415.6788" y2="417.1418">
		<stop  offset="0" style="stop-color:#A6A6A6"/>
		<stop  offset="1" style="stop-color:#171717"/>
	</linearGradient>
	<path class="st28" d="M415.7,183.2c63.1,0,114.4,51.3,114.4,114.4s-51.3,114.4-114.4,114.4s-114.4-51.3-114.4-114.4
		S352.6,183.2,415.7,183.2 M415.7,178.1c-66,0-119.5,53.5-119.5,119.5s53.5,119.5,119.5,119.5s119.5-53.5,119.5-119.5
		S481.7,178.1,415.7,178.1L415.7,178.1z"/>
</g>
<g>
	<linearGradient id="SVGID_30_" gradientUnits="userSpaceOnUse" x1="415.6788" y1="260.7753" x2="415.6788" y2="334.5002">
		<stop  offset="0" style="stop-color:#BFBFBF"/>
		<stop  offset="1" style="stop-color:#8A8A8A"/>
	</linearGradient>
	<path class="st29" d="M415.7,260.8c-20.4,0-36.9,16.5-36.9,36.9c0,20.4,16.5,36.9,36.9,36.9c20.4,0,36.9-16.5,36.9-36.9
		C452.5,277.3,436,260.8,415.7,260.8L415.7,260.8z"/>
	<linearGradient id="SVGID_31_" gradientUnits="userSpaceOnUse" x1="415.6788" y1="260.7754" x2="415.6788" y2="334.5002">
		<stop  offset="0" style="stop-color:#A6A6A6"/>
		<stop  offset="1" style="stop-color:#292929"/>
	</linearGradient>
	<path class="st30" d="M415.7,262.3c19.5,0,35.3,15.8,35.3,35.3c0,19.5-15.8,35.3-35.3,35.3c-19.5,0-35.3-15.8-35.3-35.3
		C380.4,278.2,396.2,262.3,415.7,262.3 M415.7,260.8c-20.4,0-36.9,16.5-36.9,36.9c0,20.4,16.5,36.9,36.9,36.9
		c20.4,0,36.9-16.5,36.9-36.9C452.5,277.3,436,260.8,415.7,260.8L415.7,260.8z"/>
</g>
</svg>
