<svg fill="none" xmlns="http://www.w3.org/2000/svg" viewBox="0 0 32 32"><g clip-path="url(#a)" stroke="#EC5F5B" stroke-width="2" stroke-miterlimit="10"><path d="M16 28c6.6274 0 12-5.3726 12-12S22.6274 4 16 4 4 9.3726 4 16s5.3726 12 12 12Z"/><path d="M16 16.4c2.0435 0 3.7-1.6565 3.7-3.7S18.0435 9 16 9c-2.0434 0-3.7 1.6565-3.7 3.7s1.6566 3.7 3.7 3.7ZM9.4 26c-.3-.7-.4-1.4-.4-2.2 0-3.9 3.1-7 7-7s7 3.1 7 7c0 .8-.1 1.5-.4 2.2"/></g><defs><clipPath id="a"><path fill="#fff" d="M0 0h32v32H0z"/></clipPath></defs></svg>