<?xml version="1.0" encoding="utf-8"?>
<!-- Generator: Adobe Illustrator 22.1.0, SVG Export Plug-In . SVG Version: 6.00 Build 0)  -->
<svg version="1.1" id="Layer_1" xmlns="http://www.w3.org/2000/svg" xmlns:xlink="http://www.w3.org/1999/xlink" x="0px" y="0px"
	 viewBox="0 0 100 100" style="enable-background:new 0 0 100 100;" xml:space="preserve">
<style type="text/css">
	.st0{fill:url(#alarms_1_);}
</style>
<g id="Group_4">
	
		<linearGradient id="alarms_1_" gradientUnits="userSpaceOnUse" x1="3.9855" y1="998" x2="95.9145" y2="998" gradientTransform="matrix(1 0 0 1 0 -947.9999)">
		<stop  offset="0" style="stop-color:#CECECE"/>
		<stop  offset="0.5" style="stop-color:#FFFFFF"/>
		<stop  offset="1" style="stop-color:#CECECE"/>
	</linearGradient>
	<path id="alarms" class="st0" d="M50.5,15.6c-23.3,0-42.2,18.9-42.2,42.2S27.1,100,50.5,100s42.2-18.9,42.2-42.2l0,0
		C92.7,34.5,73.8,15.6,50.5,15.6z M50.5,94.2c-20.1,0-36.4-16.3-36.4-36.4s16.3-36.4,36.4-36.4s36.4,16.3,36.4,36.4l0,0
		C86.8,77.9,70.6,94.2,50.5,94.2z M68.6,13.3c0.4-0.5,1.3-1.5,2.2-2.3c6.4-6.5,13.6-2.6,16-0.8s3.4,3,5.7,4.9
		c7.1,7.2,1.1,15.2,0,16.4l-1.2,1.2C86,23.9,78,17.2,68.6,13.3z M8.6,32.6l-1.2-1.2c-1.1-1.2-7.1-9.2,0-16.4c2.3-1.8,3.4-3,5.7-4.9
		s9.6-5.8,16,0.8c0.9,0.9,1.8,1.9,2.2,2.3C22,17.2,14,23.9,8.6,32.6z M50.4,27.2c-16.9,0-30.6,13.7-30.6,30.6s13.7,30.6,30.6,30.6
		S81,74.7,81,57.8l0,0C81,40.9,67.3,27.2,50.4,27.2z M38.2,68.8l-3.1-5l11.4-7.1L36.1,38.9l5-2.9l13.3,22.8L38.2,68.8z M47.6,5.8
		h-5.2V0h16.3v5.8h-5.2V11h-5.8L47.6,5.8L47.6,5.8z"/>
</g>
</svg>
