<svg fill="none" xmlns="http://www.w3.org/2000/svg" viewBox="0 0 32 32"><path fill-rule="evenodd" clip-rule="evenodd" d="M24.6667 6.25h-1.0834V4.0833h-2.1666V6.25H10.5833V4.0833H8.4167V6.25H7.3333c-1.1916 0-2.1666.975-2.1666 2.1667V25.75c0 1.1917.975 2.1667 2.1666 2.1667h17.3334c1.1916 0 2.1666-.975 2.1666-2.1667V8.4167c0-1.1917-.975-2.1667-2.1666-2.1667Zm0 19.5H7.3333V13.8333h17.3334V25.75ZM7.3333 11.6667h17.3334v-3.25H7.3333v3.25Zm1.8417 8.125c0-.5983.485-1.0834 1.0833-1.0834.5983 0 1.0834.4851 1.0834 1.0834 0 .5983-.4851 1.0833-1.0834 1.0833-.5983 0-1.0833-.485-1.0833-1.0833Zm1.0833 2.1666c-.5983 0-1.0833.4851-1.0833 1.0834 0 .5983.485 1.0833 1.0833 1.0833.5983 0 1.0834-.485 1.0834-1.0833 0-.5983-.4851-1.0834-1.0834-1.0834Zm2.7084-5.4166c0-.5983.485-1.0834 1.0833-1.0834.5983 0 1.0833.4851 1.0833 1.0834 0 .5983-.485 1.0833-1.0833 1.0833-.5983 0-1.0833-.485-1.0833-1.0833Zm1.0833 2.1666c-.5983 0-1.0833.4851-1.0833 1.0834 0 .5983.485 1.0833 1.0833 1.0833.5983 0 1.0833-.485 1.0833-1.0833 0-.5983-.485-1.0834-1.0833-1.0834Zm-1.0833 4.3334c0-.5983.485-1.0834 1.0833-1.0834.5983 0 1.0833.4851 1.0833 1.0834 0 .5983-.485 1.0833-1.0833 1.0833-.5983 0-1.0833-.485-1.0833-1.0833Zm4.875-7.5834c-.5983 0-1.0834.4851-1.0834 1.0834 0 .5983.4851 1.0833 1.0834 1.0833.5983 0 1.0833-.485 1.0833-1.0833 0-.5983-.485-1.0834-1.0833-1.0834Zm-1.0834 4.3334c0-.5983.4851-1.0834 1.0834-1.0834.5983 0 1.0833.4851 1.0833 1.0834 0 .5983-.485 1.0833-1.0833 1.0833-.5983 0-1.0834-.485-1.0834-1.0833Zm1.0834 2.1666c-.5983 0-1.0834.4851-1.0834 1.0834 0 .5983.4851 1.0833 1.0834 1.0833.5983 0 1.0833-.485 1.0833-1.0833 0-.5983-.485-1.0834-1.0833-1.0834Zm2.7083-5.4166c0-.5983.485-1.0834 1.0833-1.0834.5983 0 1.0834.4851 1.0834 1.0834 0 .5983-.4851 1.0833-1.0834 1.0833-.5983 0-1.0833-.485-1.0833-1.0833Zm1.0833 2.1666c-.5983 0-1.0833.4851-1.0833 1.0834 0 .5983.485 1.0833 1.0833 1.0833.5983 0 1.0834-.485 1.0834-1.0833 0-.5983-.4851-1.0834-1.0834-1.0834Z" fill="#EC5F5B"/></svg>