<?xml version="1.0" encoding="utf-8"?>
<!-- Generator: Adobe Illustrator 22.1.0, SVG Export Plug-In . SVG Version: 6.00 Build 0)  -->
<svg version="1.1" id="Group_1" xmlns="http://www.w3.org/2000/svg" xmlns:xlink="http://www.w3.org/1999/xlink" x="0px" y="0px"
	 viewBox="0 0 100 100" style="enable-background:new 0 0 100 100;" xml:space="preserve">
<style type="text/css">
	.st0{fill:url(#SVGID_1_);}
</style>
<title>challenges</title>
<g id="challenges">
	
		<linearGradient id="SVGID_1_" gradientUnits="userSpaceOnUse" x1="97.375" y1="1040.125" x2="2.625" y2="945.375" gradientTransform="matrix(1 0 0 1 0 -947.9999)">
		<stop  offset="0" style="stop-color:#E4DB87"/>
		<stop  offset="1" style="stop-color:#E38935"/>
	</linearGradient>
	<path class="st0" d="M100,0H82.1L50,32L17.9,0H0v17.7l32.2,32.2L23,59.1l-5.2-5.2l-3.5,3.5l9,9L0,89.5L10.5,100l23.1-23.1l9,9
		l3.5-3.6l-5.4-5.4l9.2-9.2l9.2,9.2l-5.5,5.5l3.5,3.6l9-9l23.2,23L100,89.5L76.8,66.4l9-9l-3.5-3.5l-5.2,5.2l-9.2-9.2L100,17.7V0z
		 M19.4,23v-3.5h3.5l19.8,19.8l-3.5,3.5L19.4,23z M10.5,93l-3.4-3.5l1-1l5.8,1L10.5,93z M18.1,85.4l-5.8-1l3.4-3.4l5.8,1L18.1,85.4z
		 M25.7,77.9l-5.8-1l4.3-4.3l3.4,3.4L25.7,77.9z M92.9,89.5L89.5,93l-3.4-3.4l5.8-1L92.9,89.5z M87.7,84.4l-5.8,1L78.5,82l5.8-1
		L87.7,84.4z M75.9,72.5l4.3,4.3l-5.8,1l-1.9-1.9L75.9,72.5z M69.6,66.1L66,69.6l-9-9l3.5-3.5L69.6,66.1z M34,69.6l-3.5-3.5l46-46
		H80v3.5L34,69.6z"/>
</g>
</svg>
