<svg fill="none" xmlns="http://www.w3.org/2000/svg" viewBox="0 0 32 32"><g clip-path="url(#a)" stroke="#EC5F5B" stroke-width="2" stroke-miterlimit="10" stroke-linecap="round" stroke-linejoin="round"><path d="M24 21c0 4.4-3.6 8-8 8s-8-3.6-8-8 8-12 8-12 8 7.6 8 12Z"/><path d="M24 11c0-4.4-3.6-8-8-8s-8 3.6-8 8c0 1.5.9 3.2 2 5-1.2 1.8-2 3.5-2 5 0 4.4 3.6 8 8 8s8-3.6 8-8c0-1.5-.9-3.2-2-5 1.1-1.8 2-3.5 2-5Z"/><path d="M11.8999 19.6c2.1 2.5 4.1 3.4 4.1 3.4s2-.9 4.1-3.4M16 20v6M16 17.5c.8284 0 1.5-.6716 1.5-1.5s-.6716-1.5-1.5-1.5-1.5.6716-1.5 1.5.6716 1.5 1.5 1.5Z"/></g><defs><clipPath id="a"><path fill="#fff" d="M0 0h32v32H0z"/></clipPath></defs></svg>