<svg viewBox="0 0 76 76" fill="none" xmlns="http://www.w3.org/2000/svg"><path fill-rule="evenodd" clip-rule="evenodd" d="M.286 38C.286 17.234 17.17.4 38 .4 58.829.4 75.714 17.234 75.714 38c0 20.766-16.885 37.6-37.714 37.6C17.17 75.6.286 58.766.286 38Z" fill="url(#a)"/><path d="M33.454 46.02 53.73 24.853a3.029 3.029 0 0 1 4.413 0c1.219 1.272 1.219 3.335 0 4.607l-24.69 25.772-14.339-14.968c-1.219-1.273-1.219-3.335 0-4.608a3.03 3.03 0 0 1 4.414 0l9.926 10.362Z" fill="#fff"/><defs><linearGradient id="a" x1="38" y1="75.6" x2="38" y2=".4" gradientUnits="userSpaceOnUse"><stop offset=".005" stop-color="#F28701"/><stop offset=".979" stop-color="#FFCC01"/></linearGradient></defs></svg>