<?xml version="1.0" encoding="utf-8"?>
<!-- Generator: Adobe Illustrator 22.1.0, SVG Export Plug-In . SVG Version: 6.00 Build 0)  -->
<svg version="1.1" id="Layer_1" xmlns="http://www.w3.org/2000/svg" xmlns:xlink="http://www.w3.org/1999/xlink" x="0px" y="0px"
	 viewBox="0 0 100 100" style="enable-background:new 0 0 100 100;" xml:space="preserve">
<path d="M44.3,6.3c-0.1,3.2,0.6,6.1,2.1,8.5c1.4,2.4,3.6,4.4,6.4,5.8c-1.7,8.2,0.8,15.7,7.4,21.4c4.3,3.8,9.2,5.7,14.5,5.7
	c2.4,0,4.8-0.4,7.3-1.2c2.7,2.9,6.3,5.2,11.3,5.2c0.2,0,0.5,0,0.7,0c-0.3,10.9-6.1,26.6-20.7,35.6C66.1,91.7,58.1,94,50.1,94
	c-10.8,0-21.5-4.2-30.1-11.9C6.1,69.7,2,48.3,10.2,31C17.5,15.6,31.9,7.8,44.3,6.3 M48.6,0C32.4,0,13.7,9.6,4.8,28.5
	c-9.3,19.6-4.6,44,11.2,58.1c10,8.9,22,13.4,34.1,13.4c9,0,18.1-2.5,26.4-7.6C95.6,80.5,102.2,58,99.3,44.5
	c-2.4,0.8-4.3,1.2-6.1,1.2c-3.8,0-6.4-2-9.4-6.5c-3.1,1.6-6.2,2.5-9.2,2.5c-3.7,0-7.3-1.3-10.6-4.2c-6.5-5.7-7.3-12.9-3.8-20.7
	c-9.2-1.8-11.9-7-8.9-16.6C50.5,0,49.6,0,48.6,0L48.6,0z M87.4,6.6C87.6,3.2,84.6,0,81.2,0c-3.2,0-6,2.7-6.2,5.9
	c-0.2,3.5,2.3,6.3,5.8,6.5C84.3,12.5,87.1,10,87.4,6.6z M100,29.2c0-2.2-2-4.1-4.2-4.1c-2.2,0-3.9,1.7-4,3.9c-0.1,2.4,1.6,4.1,4,4.2
	C98,33.2,100,31.4,100,29.2z M75,20.9c-2.2,0-4,1.7-4.1,3.8c-0.1,2.4,1.4,4.2,3.8,4.3c2.3,0.1,4.2-1.6,4.3-3.9
	C79.1,22.9,77.2,20.9,75,20.9z M37.3,45.8c0-4.7-3.5-8.2-8.2-8.2c-4.6,0-8.3,3.7-8.2,8.3c0.1,4.6,3.7,8.2,8.3,8.1
	C33.9,54,37.3,50.5,37.3,45.8z M29.2,68.7c0,3.4,2.8,6.2,6.2,6.2c3.5,0,6.1-2.7,6.1-6.2c0-3.6-2.5-6.1-6.1-6.1
	C31.8,62.6,29.2,65.3,29.2,68.7z M64.5,79.1c3.4,0,6.2-2.8,6.2-6.2c0-3.5-2.6-6.1-6.1-6.1c-3.6,0-6.1,2.5-6.1,6.1
	C58.4,76.3,61.1,79.1,64.5,79.1z M41.5,25.1c-2.3,0-4.1,1.9-4,4.2c0.1,2.4,1.4,3.8,3.9,3.9c2.4,0.1,4.1-1.6,4.1-4
	C45.6,26.8,43.8,25,41.5,25.1z M49.8,46c-2.4,0.1-3.8,1.4-3.9,3.9c-0.1,2.4,1.6,4.1,4,4.1c2.4,0,4.1-1.7,4-4.1
	C53.9,47.6,52.2,45.9,49.8,46z"/>
</svg>
