<?xml version="1.0" encoding="utf-8"?>
<!-- Generator: Adobe Illustrator 22.1.0, SVG Export Plug-In . SVG Version: 6.00 Build 0)  -->
<svg version="1.1" id="Layer_1" xmlns="http://www.w3.org/2000/svg" xmlns:xlink="http://www.w3.org/1999/xlink" x="0px" y="0px"
	 viewBox="0 0 421 522.1" style="enable-background:new 0 0 421 522.1;" xml:space="preserve">
<style type="text/css">
	.st0{fill:#947B60;}
	.st1{fill:url(#SVGID_1_);}
	.st2{fill:url(#SVGID_2_);}
	.st3{fill:url(#SVGID_3_);}
	.st4{fill:url(#SVGID_4_);}
	.st5{fill:url(#SVGID_5_);}
	.st6{fill:url(#SVGID_6_);}
</style>
<g id="Dwarves">
	<g>
		<path class="st0" d="M210.5,13.9c33.2,0,93.1,2.4,129.6,8.6c7.1,39.3,32.7,71,65.7,82.2v122c0,41.4-2.5,68.3-8.3,89.9
			c-5.5,20.6-14.2,37.3-30,57.8l-0.4,0.5l-0.3,0.5c-29,42.8-72.2,77.3-103.2,98.7c-22.6,15.6-42.3,26.7-53.2,32.5
			C183.3,492.1,100.8,444.2,54,375.3l-0.3-0.5l-0.4-0.5c-15.8-20.5-24.5-37.3-30-57.8c-5.8-21.7-8.3-48.6-8.3-89.9v-122
			c33.1-11.2,58.6-42.9,65.7-82.2C117.4,16.3,177.3,13.9,210.5,13.9"/>
		
			<linearGradient id="SVGID_1_" gradientUnits="userSpaceOnUse" x1="10.7398" y1="183.9789" x2="393.7173" y2="405.0912" gradientTransform="matrix(1 0 0 1 0 -72)">
			<stop  offset="0" style="stop-color:#F0D1AF"/>
			<stop  offset="1" style="stop-color:#917659"/>
		</linearGradient>
		<path class="st1" d="M210.5,13.9c33.2,0,93.1,2.4,129.6,8.6c7.1,39.3,32.7,71,65.7,82.2v122c0,41.4-2.5,68.3-8.3,89.9
			c-5.5,20.6-14.2,37.3-30,57.8l-0.4,0.5l-0.3,0.5c-29,42.8-72.2,77.3-103.2,98.7c-22.6,15.6-42.3,26.7-53.2,32.5
			C183.3,492.1,100.8,444.2,54,375.3l-0.3-0.5l-0.4-0.5c-15.8-20.5-24.5-37.3-30-57.8c-5.8-21.7-8.3-48.6-8.3-89.9v-122
			c33.1-11.2,58.6-42.9,65.7-82.2C117.4,16.3,177.3,13.9,210.5,13.9"/>
		
			<linearGradient id="SVGID_2_" gradientUnits="userSpaceOnUse" x1="-5.2246" y1="173.5492" x2="407.3808" y2="411.7671" gradientTransform="matrix(1 0 0 1 0 -72)">
			<stop  offset="0" style="stop-color:#626261"/>
			<stop  offset="1" style="stop-color:#2B2B2C"/>
		</linearGradient>
		<path class="st2" d="M210.5,20c32.4,0,90.8,2.3,126.4,8.4c6.9,38.3,31.9,69.3,64.1,80.2v119c0,40.3-2.4,66.6-8.1,87.7
			c-5.4,20-13.8,36.4-29.2,56.4l-0.4,0.5l-0.3,0.5c-28.3,41.7-70.4,75.4-100.6,96.3c-22.1,15.2-41.3,26.1-51.8,31.7
			c-26.4-14.1-106.9-60.9-152.5-128l-0.3-0.5l-0.4-0.5c-15.4-20-23.9-36.3-29.2-56.4c-5.7-21.1-8.1-47.4-8.1-87.7v-119
			c32.2-10.9,57.2-41.9,64.1-80.2C119.7,22.3,178.1,20,210.5,20 M210.5,0C171.2,0,99.9,3.2,65.9,11.7C63.8,56.3,34,89.3,0,92.5
			c0,0,0,99.9,0,135c0,80.8,9.6,114.8,41.5,156.3c58.5,86.1,169,139.3,169,139.3s110.6-53.2,169-139.3
			c31.9-41.5,41.5-75.5,41.5-156.3c0-35.1,0-135,0-135c-34-3.2-63.8-36.1-65.9-80.8C321.1,3.2,249.8,0,210.5,0L210.5,0z"/>
	</g>
</g>
<linearGradient id="SVGID_3_" gradientUnits="userSpaceOnUse" x1="165.4344" y1="253.8024" x2="188.2283" y2="231.0085">
	<stop  offset="0" style="stop-color:#946E57"/>
	<stop  offset="1" style="stop-color:#4F382B"/>
</linearGradient>
<path class="st3" d="M72.8,161.1c7.3,7.3,176.6,176.7,184.7,184.8c8.1,8.1,12.3,3.9,14.4,2s6.9-6.4,10.1-9.6s4.3-8.6-2-14.9
	S99.1,141.3,95.3,138.6c-3.8-2.7-7.8-6.1-12.5-2s-9,8.5-11.7,10.6S66.2,154.4,72.8,161.1z"/>
<linearGradient id="SVGID_4_" gradientUnits="userSpaceOnUse" x1="86.9627" y1="172.1272" x2="141.2575" y2="226.422">
	<stop  offset="0" style="stop-color:#666666"/>
	<stop  offset="1" style="stop-color:#2B2B2B"/>
</linearGradient>
<path class="st4" d="M211.6,134.9c-3.6-5.2-22.7-23.2-25.9-26c-3.1-2.8-7.5-2.9-10.6,0.2c-1.9,1.8-26.8,26.7-49.3,49.2
	c-2.9-2.9-5.1-5.1-5.8-5.8c-3.3-3.3-8-5.3-12.2-1.2c-4.2,4.1-17.8,17.9-22.4,22.6c-4.6,4.7-1.5,9.7,1.6,12.8c0,0,2.1,2.1,5.3,5.3
	c-0.3,0.3-0.6,0.6-0.8,0.9c-12.9,13.1-36.6,43-41.9,68.7s-4,37.7,6.5,39.2c7,0.9,9.3-2.8,11.1-7c1.8-4.2,12-26.6,26.9-44.1
	c6.3-7.4,15.8-18.2,26.3-29.6c4.3,4.3,7.5,7.5,8.2,8.1c2.5,2.4,5.9,4.7,10.9,0c5-4.7,19.4-19.8,22.6-23.1s2.8-7.8-1.5-12
	c-1-1-3.6-3.6-7.1-7c3.8-3.6,7.5-7,11-10c15.2-13.2,34.9-23.6,42.2-28C212.3,145.2,215.3,140.1,211.6,134.9z"/>
<linearGradient id="SVGID_5_" gradientUnits="userSpaceOnUse" x1="252.7392" y1="265.6494" x2="216.0446" y2="228.9548">
	<stop  offset="0" style="stop-color:#946E57"/>
	<stop  offset="1" style="stop-color:#4F382B"/>
</linearGradient>
<path class="st5" d="M129.8,315.2c2.4-2.2,3.9-3,6.6-0.3c2.8,2.7,3,3,3,3S301.3,156.1,311,147.2s18.1-5.3,23.6-0.5s8.1,15.4,0,23.8
	S163.5,342.3,163.5,342.3s1.7,1.6,3.1,2.9c1.3,1.3,3.7,2.7,0.5,6s-10.4,10.8-12.7,12.7s-2.7,1.4-4.5-0.4
	c-1.8-1.8-29.2-29.1-30.9-30.9c-1.6-1.8-3.9-2.7-1.1-5.4C120.6,324.5,129.8,315.2,129.8,315.2z"/>
<linearGradient id="SVGID_6_" gradientUnits="userSpaceOnUse" x1="328.279" y1="153.3107" x2="272.7251" y2="208.8646">
	<stop  offset="0" style="stop-color:#666666"/>
	<stop  offset="1" style="stop-color:#2B2B2B"/>
</linearGradient>
<path class="st6" d="M231.7,167c4,1.8,25.6,10.3,28.9,12.1s6.4,3.6,10.2,7.6s23.8,23,25.1,24.3s4.6,6,6.5,10.4s9.5,22.3,10.9,25.6
	s1.6,5.9,7.3,6.5c5.6,0.6,10,1.2,13.3,1.6c3.3,0.4,5.2,2,9.3-2.1c4.1-4.1,25.9-25.8,28.5-28.7s3.6-2.5,2.9-8.4
	c-0.7-5.9-1.2-9.6-1.7-14.4s-0.7-5-4.8-6.7c-4.1-1.7-24.4-10.2-27.2-11.4s-4.4-1.6-8.9-5.9c-4.5-4.4-26.3-25.9-28.6-28.5
	s-4.2-5.6-5.8-9.5s-9.5-22.8-10.5-25.1c-1-2.3-1.4-4.9-5.6-5.4c-4.2-0.5-14.3-1.8-17-2c-2.7-0.2-3.7-0.5-5.8,1.6
	c-2.1,2.1-28.2,28-30.1,30.1c-1.9,2.1-2.7,2.2-2.2,6.8c0.6,4.7,1.5,12.9,1.9,16.4C228.8,165.4,229.3,165.9,231.7,167z"/>
</svg>
