<?xml version="1.0" encoding="utf-8"?>
<!-- Generator: Adobe Illustrator 22.1.0, SVG Export Plug-In . SVG Version: 6.00 Build 0)  -->
<svg version="1.1" id="Layer_1" xmlns="http://www.w3.org/2000/svg" xmlns:xlink="http://www.w3.org/1999/xlink" x="0px" y="0px"
	 viewBox="0 0 421 522.1" style="enable-background:new 0 0 421 522.1;" xml:space="preserve">
<style type="text/css">
	.st0{fill:url(#SVGID_1_);}
	.st1{fill:url(#SVGID_2_);}
	.st2{fill:url(#SVGID_3_);}
</style>
<g id="Elves">
	<g>
		
			<linearGradient id="SVGID_1_" gradientUnits="userSpaceOnUse" x1="48.8228" y1="468.9984" x2="371.9588" y2="145.8624" gradientTransform="matrix(1 0 0 -1 0 523.2756)">
			<stop  offset="0" style="stop-color:#009943"/>
			<stop  offset="1" style="stop-color:#054C25"/>
		</linearGradient>
		<path class="st0" d="M210.5,13.9c33.2,0,93.1,2.4,129.6,8.6c7.1,39.3,32.7,71,65.7,82.2v122c0,41.4-2.5,68.3-8.3,89.9
			c-5.5,20.6-14.2,37.3-30,57.8l-0.4,0.5l-0.3,0.5c-29,42.8-72.2,77.3-103.2,98.7c-22.6,15.6-42.3,26.7-53.2,32.5
			C183.3,492.1,100.8,444.2,54,375.3l-0.3-0.5l-0.4-0.5c-15.8-20.5-24.5-37.3-30-57.8c-5.8-21.7-8.3-48.6-8.3-89.9v-122
			c33.1-11.2,58.6-42.9,65.7-82.2C117.4,16.3,177.3,13.9,210.5,13.9"/>
		
			<linearGradient id="SVGID_2_" gradientUnits="userSpaceOnUse" x1="37.1961" y1="482.8717" x2="383.8228" y2="136.245" gradientTransform="matrix(1 0 0 -1 0 523.2756)">
			<stop  offset="0" style="stop-color:#FFDC69"/>
			<stop  offset="1" style="stop-color:#BB9014"/>
		</linearGradient>
		<path class="st1" d="M210.5,20c32.4,0,90.8,2.3,126.4,8.4c6.9,38.3,31.9,69.3,64.1,80.2v119c0,40.3-2.4,66.6-8.1,87.7
			c-5.4,20-13.8,36.4-29.2,56.4l-0.4,0.5l-0.3,0.5c-28.3,41.7-70.4,75.4-100.6,96.3c-22.1,15.2-41.3,26.1-51.8,31.7
			c-26.4-14.1-106.9-60.9-152.5-128l-0.3-0.5l-0.4-0.5c-15.4-20-23.9-36.3-29.2-56.4c-5.7-21.1-8.1-47.4-8.1-87.7v-119
			c32.2-10.9,57.2-41.9,64.1-80.2C119.7,22.3,178.1,20,210.5,20 M210.5,0C171.2,0,99.9,3.2,65.9,11.7C63.8,56.3,34,89.3,0,92.5
			c0,0,0,99.9,0,135c0,80.8,9.6,114.8,41.5,156.3c58.5,86.1,169,139.3,169,139.3s110.6-53.2,169-139.3
			c31.9-41.5,41.5-75.5,41.5-156.3c0-35.1,0-135,0-135c-34-3.2-63.8-36.1-65.9-80.8C321.1,3.2,249.8,0,210.5,0L210.5,0z"/>
	</g>
	
		<linearGradient id="SVGID_3_" gradientUnits="userSpaceOnUse" x1="88.8437" y1="416.4265" x2="333.1954" y2="172.0747" gradientTransform="matrix(1 0 0 -1 0 523.2756)">
		<stop  offset="0" style="stop-color:#FFFFFF"/>
		<stop  offset="1" style="stop-color:#D0D0D0"/>
	</linearGradient>
	<path class="st2" d="M124.4,245.8c2,1.3,3.8,2.6,5.6,3.7c9.9,5.9,19.7,12,29.8,17.6c2.6,1.5,5.9,1.8,8.7,2.7c2.4-3,4.4-5.4,6.8-8.2
		c-5.5-3-10.7-5.7-15.8-8.7s-10-6.2-15-9.3c-2.7-1.7-5.3-3.7-8.1-5.1c-12.6-6.3-20.8-16.4-26-29.1c-2.2-5.4-5.4-10.5-5.7-16.7
		c-0.1-1.5-1.5-3.2-2.7-4.4c-8.7-9.1-14.6-19.5-18.6-31.5c-2.8-8.4-4.3-16.9-2.1-25c3.1-11.7,6.1-23.8,15.5-32.9
		c-13.1,28.9-12.3,56.5,7,84c5.9-16.7,11.2-32.2,27.8-39.9c-11.2,12.8-18.4,27.4-20.3,44.7c9.4,12.9,23.9,18.4,37.6,26.4
		c3.8-12,11.9-19.9,21.6-26.8c-0.5,1-1,2.1-1.6,3c-3.4,5.1-6.9,10.1-10.3,15.2c-2.5,3.8-4.6,7.8-3.3,13.1
		c17.4,7.1,34.9,14.3,52.4,21.3c1.7,0.7,4.1,0.8,5.7,0.2c17.7-7.1,35.3-14.3,53.5-21.7c0-13.3-11.4-20.5-15-31.9
		c4.1,3.9,8.7,7.5,12.3,11.9c3.5,4.4,6,9.7,9.2,15.1c12.9-7.3,27-13,36.8-25.4c-1.4-17.5-9-32-20-45.1c16,7.8,21.9,22.8,27.2,39.2
		c11-11.8,14.7-25.8,15.9-40.6c1.3-14.9-2.2-29-9.1-42.4c0.5-0.2,0.9-0.5,1.4-0.7c2.3,3.5,5.3,6.7,6.9,10.5
		c3.4,8.2,7.4,16.2,8.5,25.2c0.9,7.5-0.2,14.7-2.5,22.1c-4.1,12.7-10.4,23.6-19.7,33c-1.1,1.2-1.6,3.1-2.1,4.8
		c-3.6,12.4-7.9,24.6-17.3,33.9c-3.7,3.7-8.4,6.5-12.7,9.6c-5,3.6-9.9,7.3-15.1,10.4c-8,4.7-16.4,8.9-25.1,13.6
		c2.2,2.7,4.3,5.3,6.7,8.3c2.4-0.8,5-1.2,7.2-2.5c10.2-5.9,20.2-11.9,30.3-18c1.8-1.1,3.5-2.3,5-3.2c1,0.7,1.4,0.8,1.6,1.1
		c5.1,10,1.5,26.1-7.8,32.1c-7.8,5.1-16,9.6-24.3,14c-4.5,2.4-6.6,5.7-8.7,10.4c-4.6,10.6-2.9,20.6-0.1,30.9
		c5.5,20.3,11,40.7,16.5,61c0.2,0.6,0.4,1.1,0.5,1.7c1.3,12.2,1.5,14.6-9.5,21c-15.3,9-30.5,18.1-45.4,27.6
		c-5.6,3.5-10.3,3.4-15.9-0.1c-15.7-9.8-31.6-19.4-47.5-28.8c-6-3.5-9.2-8.1-7.7-15.2c2.1-9.7,4.2-19.4,6.7-29
		c3.8-14.4,8-28.7,11.8-43.1c2.4-9,2.8-18-0.4-27c-1.2-3.5-2.8-5.9-6.1-7.6c-8.3-4.4-16.4-9.1-24.5-13.6c-8.7-4.9-14-11.6-12.5-22.3
		C122.3,255.1,120.5,250.5,124.4,245.8z M172.9,322.6c-1.7,6.3-3.1,11.5-4.4,16.6c-5.4,19.9-11,39.8-16.1,59.8
		c-2.1,8.2-0.7,10.8,6.5,15.3c14.2,8.9,28.4,17.7,42.6,26.4c1.2,0.8,2.7,1.2,4,1.8c-0.2-2.6-1.2-4.5-2.2-6.3
		c-7.6-12.9-15.2-25.7-22.7-38.5c-4.1-6.9-6.2-14.1-4-22.2c2.4-8.8,4.4-17.7,6.3-26.6c0.5-2.3,0.6-5.2-0.3-7.3
		C179.8,335.4,176.5,329.5,172.9,322.6z M213,443.1c2.7-1.1,4.2-1.6,5.4-2.3c4.4-2.7,8.8-5.4,13.2-8.2c10.1-6.3,20.3-12.5,30.4-18.9
		c5.9-3.7,7.1-6.8,5.8-13.5c-0.3-1.8-0.7-3.5-1.2-5.2c-6.2-22.9-12.4-45.9-18.6-68.8c-0.4-0.1-0.9-0.3-1.3-0.4
		c-2.8,5.4-5.5,10.8-8.3,16.1c-1.7,3.2-1.6,6.4-0.7,9.8c1.9,6.7,3.3,13.5,5.2,20.2c2.8,10.1,0.9,19.1-4.6,27.9
		c-7.6,12.2-14.7,24.6-21.9,37C215.4,438.3,214.6,440.1,213,443.1z M188.2,356c-0.6,0-1.2-0.1-1.8-0.1c-2.6,8.1-4.3,16.4-4.4,25
		c-0.1,5.3,0.9,10.2,3.6,14.8c7.3,12.3,14.4,24.7,21.6,37.1c0.7,1.3,1.8,2.3,3,3.9c1.5-2.5,2.6-4.3,3.7-6.2
		c5.8-10,11-20.3,17.4-29.8c5.6-8.3,7.3-17,6.1-26.6c-0.5-4.1-1.4-8.2-2.3-12.3c-0.2-1.2-1-2.2-1.6-3.3c-1.3,5.4-1.8,10.5-1.9,15.6
		c-0.1,8.2-4.5,14.2-12.6,15.4c-5.2,0.8-10.7,0.9-16,0.2c-9.3-1.2-13.6-6.8-13.8-16.1C189.3,367.7,188.6,361.8,188.2,356z
		 M201.8,245.6c0.1-0.6,0.2-1.2,0.2-1.8c-16.2-6.6-32.4-13.1-48.6-19.7c-3.6,12.2,9,27.9,27.3,33.1
		C187.6,253.3,194.7,249.5,201.8,245.6z M268,224.4c-13.6,3.7-45.6,17.4-48.8,21c7.3,4,14.5,7.9,21.4,11.7
		C259,251.5,271.1,236.5,268,224.4z M213.6,324.1c1.3-14,3.9-27,12.6-37.7c-3.4-5.3-8.2-8.5-13.4-11.1c-1.1-0.5-2.9-0.8-3.9-0.3
		c-5.5,2.8-10.8,5.7-13.7,11.4c7.7,11.2,7.7,11.2,12.7,37.1c0.6,0.1,1.4,0.4,2.1,0.4C211,324.2,212,324.1,213.6,324.1z M232.3,338
		c1.1-1.8,2-3.3,3-4.7c7.2-10.1,12.5-21.1,16-32.9c2.1-7.1,2.7-14.4-1.5-22c-5.4,3.1-10.7,6.1-16.4,9.3c10.3,16.6,1.3,29.9-6.8,43.5
		C228.4,333.4,230.2,335.5,232.3,338z M171,278.2c-0.8,2.6-1.5,4.4-2,6.2c-2,8.1,0.1,15.8,3.2,23.2c3,7.1,6.5,14,10.2,20.8
		c1.5,2.8,3.8,5.2,6.1,8.3c2.2-2.6,3.9-4.6,5.4-6.5c-8.3-13.8-16-27-6.3-42.8C181.9,284.3,176.8,281.4,171,278.2z M218.9,342.8
		c1.7,3.4-1.2,4.8-2.5,6.8c-1.5,2.2-3.6,4.3-2,8.1c2,0,4.2,0,6.3,0s4.2,0,6,0c6.3-13.5-0.9-20.1-9.6-25.5
		c-8.7-5.3-19.8,0.8-25.8,12.1c0.8,4.1,1.8,8.5,2.7,13c4.3,0,8.1,0,11.9,0c2.2-6.3-6.1-8.4-5.2-13.8
		C207.4,340.2,210.6,340,218.9,342.8z M226.4,367.2c-8.8-3.6-22.4-3.8-31.4-0.6c-0.1,2.1-0.4,4.5-0.4,6.8c0,7,4.4,11.5,11.3,11.7
		c3.4,0.1,6.8,0.1,10.1-0.1c4.6-0.3,9.8-4.1,10.3-7.8C226.8,374,226.4,370.6,226.4,367.2z M128.1,255.2c-2.3,10.6-1.1,14.5,6.7,19.6
		c7,4.6,14.2,8.8,21.4,13c1.8,1,3.9,1.5,6.1,2.3c1-4.9,1.9-9.1,2.9-13.7C152.2,270.9,139.6,264.7,128.1,255.2z M112.8,199.2
		c5.1,20.2,18.1,32,35.7,39.7c-0.6-6.1-1.2-12.1-1.8-18.5C135.9,213.7,124.9,206.8,112.8,199.2z M272.6,238.7
		c17.5-6.1,33.7-24.1,35-39c-11.4,7.1-22.6,14.1-33.2,20.7C273.8,227.1,273.2,232.9,272.6,238.7z M259,290.2
		c11.1-6,21.8-11.2,30.6-19.2c4.6-4.2,3.5-9.8,2.6-14.7c-12.4,7-24.4,13.8-36.4,20.5C256.8,280.9,257.7,284.9,259,290.2z M189,259.6
		c7.4,2.6,13.8,4.9,20.3,7.1c0.7,0.2,1.6,0.3,2.3,0.1c6.6-2.2,13.2-4.6,19.8-6.9c0.1-0.5,0.2-1,0.3-1.6c-6.5-3.2-12.9-6.4-19.4-9.6
		c-0.8-0.4-2.1-0.4-2.9-0.1C202.4,251.5,195.6,254.5,189,259.6z M174.6,273.8c5.2,2.8,10.3,5.6,15.6,8.5c4.1-3.7,8.2-7.2,13-11.5
		c-7.4-3.4-14.4-5.5-21.5-7C178.4,266.7,175.1,268.9,174.6,273.8z M247.9,273.1c-3-3.6-5.6-6.6-8-9.5c-7.9,1.9-14.7,3.9-22,7.1
		c5,4.4,9.1,7.9,13.2,11.5C236.3,279.4,241.3,276.7,247.9,273.1z M228.8,292.2c-6.4,11.3-10.2,22.1-9,34.7
		C229.4,322.3,233.9,305.2,228.8,292.2z M199.9,326.3c3.9-5.8-0.8-26.2-7.7-32.9C187.2,302.4,190,317.8,199.9,326.3z"/>
</g>
</svg>
