<svg fill="none" xmlns="http://www.w3.org/2000/svg" viewBox="0 0 42 42"><path fill-rule="evenodd" clip-rule="evenodd" d="M21.0026 2.092h-.0052c-10.4412 0-18.9055 8.4642-18.9055 18.9054v.0052c0 10.4412 8.4643 18.9055 18.9055 18.9055h.0052c10.4412 0 18.9055-8.4643 18.9055-18.9055v-.0052c0-10.4412-8.4643-18.9055-18.9055-18.9055ZM20.9974 0h.0052C32.5992 0 42 9.4008 42 20.9974v.0052C42 32.5992 32.5992 42 21.0026 42h-.0052C9.4008 42 0 32.5992 0 21.0026v-.0052C0 9.4008 9.4008 0 20.9974 0Z" fill="#1FA8BC"/><path d="M33.9315 30.5769a16.5112 16.5112 0 0 0 2.1586-4.0808c.638-1.7834.9838-3.7165.9897-5.746-.0195-4.8795-2.1213-9.2527-5.4423-12.2478l-.0077.0187c-.0188.0458-.0319.0778-.0499.127a.8715.8715 0 0 0-.0211.064l-.0002.0007a.5306.5306 0 0 0 .0191.0412l-1.1103.5638c.758 1.4924.2802 1.7586-.27 2.065l3.7341 19.1942Zm0 0a9.1688 9.1688 0 0 0 .1121-.8986c.1546-2.089-.4481-4.3743-2.5092-5.8012l-.0753-.0521-.0821-.0405c-.6143-.3034-1.2218-.6818-1.6814-1.0875-.4838-.4271-.6633-.7595-.6986-.9497-.1414-.7894.0685-1.6855.5499-2.4054l.0012-.0019c.0681-.1021.2481-.3001.4903-.4504.2389-.1483.4248-.1822.5482-.1659l.1627-1.2345m3.1822 13.0877L30.6582 13.228c.0528.2057.1285.2902.3018.3931.1146.0681.2672.1371.4884.2211.1091.0414.2243.0826.3552.1291l.0247.0088c.1202.0428.2527.0899.3877.1402.6307.2331 1.1872.591 1.5843 1.0521.383.4446.7187 1.1204.556 1.8906-.1736.8223-.8161 1.3111-1.4731 1.534-.6411.2174-1.4241.2431-2.2985.1265l.1646-1.2343m0 0c-.9984-.1316-1.9027.658-2.2375 1.1605l3.2711-3.3619c1.8969.6999 2.0613 2.6141-1.0336 2.2014ZM5.8266 19.8846c-.193-.1994-.4714-.44-.839-.566.033-.4818.0816-.9753.1524-1.4423 1.3085-7.4133 7.4802-13.073 14.9962-13.4704.5135.6274 1.1414.9718 1.6536 1.1806-.1033.0072-.2114.0141-.325.0214-.2625.0168-.5549.0356-.888.0634-.816.0683-1.7904.191-2.6879.5389-.924.358-1.8264.979-2.3823 2.059-.3397.6598-.465 1.3485-.2699 2.0313.181.6331.5892 1.0747.8907 1.3589.1474.1391.303.2703.4301.3776l.0201.017c.1407.1188.251.2128.3493.3064.2003.1908.2501.2893.2647.334l.0001.0004c.0802.2458.0551.3451.0517.3577l-.0001.0005c-.0026.0101-.013.0496-.0989.1254-.2364.2089-.6826.3958-1.4048.6327a10.475 10.475 0 0 1-.3275.0976c-.5641.162-1.3981.4015-2.1563.9594-.977.7189-1.8002 1.887-2.5448 3.8406l-.0004.0009c-.4781 1.2574-.5773 2.3884-.2531 3.3692.3292.9959 1.0279 1.6361 1.7396 2.0319 1.3008.7236 2.8963.7658 3.3477.7777l.0356.001.1807.005c.8047.0221 1.4886.0408 2.1671.1617l.0017.0002c1.0932.1932 1.7217.4415 2.0994.662.3523.2057.535.4146.6962.645.0647.0924.1097.1631.1651.2502.0379.0595.0807.1267.1379.2137.1185.1801.2755.405.4867.6235.2512.2598.5424.4733.8888.6392v.1443l1.0189.1883a.6133.6133 0 0 1 .0803.0198.6375.6375 0 0 1 .0041.1295.9443.9443 0 0 1-.0181.1344l-.004.018c-.3475.452-.7601.8625-1.1864 1.2592a41.3686 41.3686 0 0 1-.2884.265c-.3518.3214-.7369.6733-1.004.9849l-.0068.008-.0067.0081c-.6554.7916-1.1625 1.7843-1.462 2.7938-.155.5224-.2622 1.0759-.2971 1.631-.1411-.2611-.2857-.5585-.43-.8887-.3871-.8856-.7264-1.9005-.9636-2.8433-.2362-.9695-.8373-1.6033-1.4464-2.0398-.4507-.3229-.9935-.5928-1.4228-.8062-.1029-.0512-.1993-.0991-.2864-.1438-.5246-.269-.8465-.4772-1.0466-.7071-.1521-.1749-.2775-.4097-.2554-.8811v-.0002c.053-1.1303-.5876-1.913-1.2337-2.4163-.6177-.4812-1.4197-.8513-2.0966-1.1584l-.1973-.0892c-.6536-.2957-1.2339-.5582-1.7294-.8659-.5444-.338-.8262-.6374-.9493-.9078l-.0177-.0388-.0203-.0376c-.4876-.9017-.914-1.5545-1.3117-1.9654Zm-1.8264 1.6972c0-.0002.0026.0017.0076.0063a.0655.0655 0 0 1-.0076-.0063Zm19.4946 6.8246.0006.0016-.0006-.0016Zm7.163-15.1798c-.0929-.3657-.0894-.5492-.0803-.6212l.0803.6212Zm-.0725-.6588a.0269.0269 0 0 1-.0024.0074.03.03 0 0 1 .0024-.0074Zm.9682-3.8698.0004.0019-.0004-.0019Z" fill="#1FA8BC" stroke="#1FA8BC" stroke-width="2.4904"/></svg>