<svg viewBox="0 0 40 40" fill="none" xmlns="http://www.w3.org/2000/svg">
<path d="M23.0542 27.7445C20.1947 27.2095 22.1753 24.837 16.7017 23.8716C15.7314 23.703 14.7611 23.6856 13.7794 23.6565C12.792 23.6274 7.54676 23.4995 9.4588 18.4694C11.0683 14.236 12.7349 14.2069 14.3673 13.672C15.9483 13.1602 17.5921 12.5031 16.9585 10.5725C16.4563 9.03732 13.8479 8.65934 14.9266 6.5659C16.6846 3.15243 22.883 5.10049 23.3396 3.39667C23.6649 1.22764 21.2906 2.22783 19.9836 0.378631C19.8123 0.134396 19.527 -0.0109811 19.2359 0.000649108C9.72135 0.35537 1.90197 7.46724 0.269606 16.7656C-0.00435788 18.5392 -0.00435859 20.5861 0.00134898 21.5514C0.00134898 21.6503 0.0812504 21.7317 0.183987 21.7317H0.1897C0.298144 21.7317 0.389462 21.6445 0.400877 21.534C0.486491 20.6908 0.537866 18.2019 2.73528 22.2725C3.99095 25.0288 9.89256 25.2789 9.76699 27.8841C9.59577 31.4894 14.2931 30.8614 14.9552 33.5829C15.5374 35.9031 16.6218 38.5839 17.7291 39.7294C18.2656 40.2877 19.6982 39.9562 19.4813 38.9735C19.0932 37.2289 19.858 34.8564 21.0965 33.3503C21.7472 32.5885 23.117 31.6115 24.1215 30.2392C24.3099 29.9833 24.8122 28.076 23.0542 27.7503V27.7445ZM30.7423 3.18151C30.5825 3.07684 30.3999 3.28037 30.514 3.43156C30.5882 3.53623 30.6624 3.6409 30.7138 3.73394C31.8895 5.32147 30.2058 5.70526 30.9193 7.1067C32.643 10.4969 28.836 8.40347 29.7435 11.9798C30.0802 13.3056 31.1932 13.544 32.4375 14.0034C34.6235 14.8117 34.8118 17.0215 31.2446 16.5446C30.0917 16.3934 29.0472 17.3006 28.6591 17.8821C27.9228 18.987 27.5689 20.3942 27.8086 21.7142C28.0598 23.0866 29.772 24.3252 31.3359 25.0986C34.9945 27.634 33.7559 33.3328 31.3473 36.0717C31.0049 36.4613 31.49 37.0254 31.9124 36.7346H31.9181C32.3861 36.3857 32.8313 36.0194 33.2651 35.6356L33.2879 35.6123C33.3621 35.5484 33.4363 35.4786 33.5105 35.4088C35.8392 33.234 37.6599 30.5009 38.7729 27.4189C39.5605 25.2033 39.9886 22.8075 40 20.3012C39.9772 13.1021 36.2958 6.78687 30.748 3.17569L30.7423 3.18151Z" fill="none"/>
</svg>
