<?xml version="1.0" encoding="utf-8"?>
<!-- Generator: Adobe Illustrator 22.1.0, SVG Export Plug-In . SVG Version: 6.00 Build 0)  -->
<svg version="1.1" id="Humans" xmlns="http://www.w3.org/2000/svg" xmlns:xlink="http://www.w3.org/1999/xlink" x="0px" y="0px"
	 viewBox="0 0 421 522.1" style="enable-background:new 0 0 421 522.1;" xml:space="preserve">
<style type="text/css">
	.st0{fill:url(#SVGID_1_);}
	.st1{fill:url(#SVGID_2_);}
	.st2{fill:url(#SVGID_3_);}
	.st3{fill:url(#SVGID_4_);}
</style>
<linearGradient id="SVGID_1_" gradientUnits="userSpaceOnUse" x1="48.9726" y1="54.4012" x2="372.0011" y2="377.4297">
	<stop  offset="2.664299e-03" style="stop-color:#5782C2"/>
	<stop  offset="0.5071" style="stop-color:#3763AD"/>
	<stop  offset="1" style="stop-color:#223F6D"/>
</linearGradient>
<path class="st0" d="M210.5,13.9c33.2,0,93.1,2.4,129.6,8.6c7.1,39.3,32.7,71,65.7,82.2v122c0,41.4-2.5,68.3-8.3,89.9
	c-5.5,20.6-14.2,37.3-30,57.8l-0.4,0.5l-0.3,0.5c-29,42.8-72.2,77.3-103.2,98.7c-22.6,15.6-42.3,26.7-53.2,32.5
	c-27.1-14.5-109.6-62.4-156.4-131.3l-0.3-0.5l-0.4-0.5c-15.8-20.5-24.5-37.3-30-57.8c-5.8-21.7-8.3-48.6-8.3-89.9v-122
	c33.1-11.2,58.6-42.9,65.7-82.2C117.4,16.3,177.3,13.9,210.5,13.9"/>
<linearGradient id="SVGID_2_" gradientUnits="userSpaceOnUse" x1="37.1889" y1="40.4197" x2="383.8111" y2="387.0419">
	<stop  offset="0" style="stop-color:#646464"/>
	<stop  offset="0.5071" style="stop-color:#3D3D3D"/>
	<stop  offset="1" style="stop-color:#191A1A"/>
</linearGradient>
<path class="st1" d="M210.5,20c32.4,0,90.8,2.3,126.4,8.4c6.9,38.3,31.9,69.3,64.1,80.2v119c0,40.3-2.4,66.6-8.1,87.7
	c-5.4,20-13.8,36.4-29.2,56.4l-0.4,0.5l-0.3,0.5c-28.3,41.7-70.4,75.4-100.6,96.3c-22.1,15.2-41.3,26.1-51.8,31.7
	c-26.4-14.1-106.9-60.9-152.5-128l-0.3-0.5l-0.4-0.5c-15.4-20-23.9-36.3-29.2-56.4c-5.7-21.1-8.1-47.4-8.1-87.7v-119
	c32.2-10.9,57.2-41.9,64.1-80.2C119.7,22.3,178.1,20,210.5,20 M210.5,0C171.2,0,99.9,3.2,65.9,11.7C63.8,56.3,34,89.3,0,92.5
	c0,0,0,99.9,0,135c0,80.8,9.6,114.8,41.5,156.3c58.5,86.1,169,139.3,169,139.3s110.6-53.2,169-139.3c31.9-41.5,41.5-75.5,41.5-156.3
	c0-35.1,0-135,0-135c-34-3.2-63.8-36.1-65.9-80.8C321.1,3.2,249.8,0,210.5,0L210.5,0z"/>
<g>
	<g>
		<linearGradient id="SVGID_3_" gradientUnits="userSpaceOnUse" x1="97.079" y1="131.3886" x2="297.6677" y2="331.9774">
			<stop  offset="0" style="stop-color:#646464"/>
			<stop  offset="0.5071" style="stop-color:#3D3D3D"/>
			<stop  offset="1" style="stop-color:#191A1A"/>
		</linearGradient>
		<path class="st2" d="M191.8,389.3l0.8-9l-6-11.1c-6.9-12.6-17.8-29.9-24.4-37c-1.2-1.3-3.5-3.4-6.2-5.8
			c-13.1-11.8-37.5-33.8-41.1-59c-0.9-5.5-0.9-12.1-0.2-18.9c-3.8,8.4-7.6,18.5-11.1,31.3l-5.3,19.1l-7-18.6
			c-4.9-13.1-7.2-35-2.7-50.2l-8.8,6v-16.5c0.4-5.2,4.5-51.7,25.6-68c11-8.5,28.9-22.4,47.2-29.3l-40.8-5.4l58.6-5.1
			c1.3-0.1,2.9-0.2,4.7-0.2c13.9,0,45.8,3.9,63.7,9.3l14.1,1.2c16.2,1.3,31.5,17.6,36.4,32c3.4,9.8,4.5,21.5,4.9,27.1
			c2.8,2.2,7.3,5.7,9.8,8.7c2.6,3.1,2.8,6.4,2.9,8.6c0.1,2.2,0.2,2.5,2.4,3.7c8.2,4.7,32.5,22.2,37.4,27.8
			c6.9,7.8,0.3,18.8-4.1,26.2l-0.8,1.4c-0.9,1.6-1.9,3.7-3,6c-2.7,5.8-5.4,11.7-9.9,14.8c1.2,1.9,1.5,4.1,1.5,5.7
			c0,0.8,0,1.8,0.1,2.7c0.2,5.4,0.8,18.1-10.3,19.4c-3.4,0.4-9.2,0.8-15.2,0.8c-10.4,0-18.5-1.2-23.9-3.5c-4.8-2.1-14-5.9-22.1-9.2
			c4.4,5,14.7,14.7,16.7,16.2c8.9,5.7,3.5,18.5,1.7,22.7c-5.1,11.9-32.6,57.7-74.7,63.6l-13.9,1.9L191.8,389.3z"/>
		<linearGradient id="SVGID_4_" gradientUnits="userSpaceOnUse" x1="86.4217" y1="126.8325" x2="299.1363" y2="339.5471">
			<stop  offset="0" style="stop-color:#FFDD8D"/>
			<stop  offset="0.5071" style="stop-color:#F0C04B"/>
			<stop  offset="1" style="stop-color:#C99A27"/>
		</linearGradient>
		<path class="st3" d="M174.8,118.2c17.5,0,58.9,6,69.8,12c11.9,6.6,22,21.1,22,21.1s-5.5-15.9-14.6-22.7
			c13,1.1,26.6,15.3,30.9,27.6c4.3,12.4,4.7,28.4,4.7,28.4s7.9,5.7,11.1,9.5c3.2,3.8-1.4,8.9,7.1,13.8c8.5,4.9,31.7,21.9,35.8,26.5
			c4.1,4.6-2.2,14-5.7,20c-3.5,5.9-6.8,16.5-11.6,19.2c-4.9,2.7-12.8,3.4-14.6,5.9c1.5-0.1,3.2-0.2,4.8-0.2c4.7,0,9.1,0.7,9.1,4.9
			c0,5.5,1.6,15-4.5,15.7c-2.7,0.3-8.3,0.7-14.5,0.7c-7.5,0-15.9-0.6-21.3-3c-3.8-1.6,1.7-17.1-4.7-19.8c-5-2.1-16.1-15.8-23.1-19.3
			c-7-3.5-11.3-30-11.3-30s-4.3,20.5-3.6,27.6c0.7,7.1-28.3-7.2-32.2-10.1c-3.9-2.8-3-20.5-2.1-24.7c-4.6,2-11.2,13.8-16.6,13.1
			c-5.4-0.7-13-16.7-13.6-25.4s-0.8-19.3-0.5-28.7c-6.4,6.2-9.9,25.5-10.9,34.4c-1,8.9,3.6,31.2,19.4,44.4c18,15,44,21.3,61.4,35.5
			c15,12.2,25.9,21.1,26.4,21.4c1.8,1.1,3.8,3.9-0.7,14.7c-8.8,18.1-32.3,56.2-75.9,61c0.5-10.1,1.1-16.6-3-25.6
			s-17.8-30.3-25.4-38.4c-7.6-8.1-41.6-33.2-45.6-61.3c-3-17.8,5.4-48.9,7.6-53.7c-9.5,13-21.6,29.2-31.6,65.3
			c-5.9-15.7-7.3-44.3,1.8-54.8c4.3-5.1,4.5-27.9,2.8-33.2c-3.2,6.3-16.1,22.5-23,36.7c-1.6-22.1,15.1-58.2,30.3-69.9
			c14.8-11.4,41.6-32,63.2-32c0.6,0,1.2,0,1.8,0c10.7,0.7,19.4,2.9,19.4,2.9s-9.2-7.6-22.9-9.4C171.8,118.3,173.2,118.2,174.8,118.2
			 M174.8,105.2c-20.2-0.5-34.7,1.5-42.1,2.4c-7.4,0.9-19.6,2.9-40.4,13.3c24.3,1,38.1,5.1,38.1,5.1c-11.6,6.9-21.9,14.8-29.2,20.5
			c-22.8,17.6-34,50.5-35.6,67.8s-2.9,32.8,0,42.9c6.3-8.1,13.1-12.6,13.1-12.6c0,10.3,2.6,26.5,6.3,37.9
			c3.8,11.5,14.6,27.1,14.6,27.1s4.1-14.2,5.8-18.5s4.9-12.2,5.3-13.3c7.6,23.2,28.8,42.3,40.9,53.2c2.5,2.2,4.8,4.3,5.8,5.4
			c6.1,6.5,21.1,28,23.5,35.7s2.4,7.7,1.6,15.6c-0.8,7.9-7.1,19.2-7.1,19.2l27.9-3.9c19.5-2.7,38.6-13.7,55.5-31.8
			c13.5-14.5,21.8-29.6,24.4-35.6c4.9-11.5,4.4-19.1,1.9-24.2c5.4,1.3,11.9,1.9,19.7,1.9c7.9,0,14.2-0.6,15.9-0.8
			c7.8-0.9,13.7-6.5,15.5-14.6c0.9-4.1,0.7-8.2,0.6-11.5c0-0.9-0.1-1.8-0.1-2.5c0-0.7-0.1-2.1-0.4-3.8c3.6-4,6-9.2,8.3-14
			c1-2.1,1.9-4.1,2.7-5.4c0.3-0.4,0.5-0.9,0.8-1.4c4.7-7.8,13.4-22.4,3.4-33.8c-5.3-6-28.8-23.1-38.3-28.7
			c-0.2-2.7-0.9-7.2-4.4-11.3c-2.2-2.7-5.6-5.6-8.5-7.9c-0.6-6.5-1.9-16.9-5-25.9c-5.7-16.6-23-34.7-42-36.3l-13.5-1.1
			C220.5,109,189,105.2,174.8,105.2C174.8,105.2,195,105.7,174.8,105.2z M326.2,246c2.9,3.1,2.4,9.5,2.4,9.5s1.6-1.6,3.5-2.7
			c1.9-1.1,3,8.8,3,8.8s9.2-12.3,11.8-17.9c2.6-5.7-0.9-15.2-0.9-15.2s-5.2,3.5-4.2,6.3s-1.2,5-4.6,6.2c-3.3,1.2-13.9-5.6-19.7-9.3
			C318.3,235,323.3,242.9,326.2,246z M270.7,205.8c6.9,1.4,21.5,3.2,21.5,3.2s-6.7-5.9-11.1-10.7c-4.5-4.9-12.4-2.8-22.7-2.4
			C258.4,195.9,263.8,204.4,270.7,205.8z M201.3,304.7c-19.8-15.8-23.9-17-39.3-39.7s-16.3-42.4-19.8-62.8
			c-3.6,18.1-2.4,49.5,6.5,70.6c8.9,21.1,35.6,34.8,51,52.7c15.4,17.8,14.4,38.9,14.4,38.9C223.3,350,221.1,320.5,201.3,304.7z
			 M243.6,174c0.7-2.6,14.4,1.2,18.8,2s22.5,6.5,25.1,8.5c2.6,2,5.6-3.5,5.6-3.5l-4.5-7.8c0,0-14.7-5.5-24.8-7.2s-14.2-1.4-19.3-9.4
			c-5.1-8-18.8-19.5-18.8-19.5s9.1,16.7,6.6,19.8c-0.9,1.2-13.5-19.2-53.8-16.6c20.5,6.7,39.9,21.9,40.7,32
			c-9.7-5.7-15.2-9.5-18.2-6.4c-3,3.1,0.7,25,6.6,27c5.9,2,3.6,9.9,6.7,18.2c2.1-9.9,8.4-17.3,14.6-20
			C235.3,188.6,240.3,190.6,243.6,174z"/>
	</g>
</g>
</svg>
