<svg width="28" height="28" viewBox="0 0 28 28" fill="none" xmlns="http://www.w3.org/2000/svg">
<path d="M12.6667 7.33333H15.3333V10H12.6667V7.33333Z" fill="#00AFC2"/>
<path d="M12.6667 12.6667H15.3333V20.6667H12.6667V12.6667Z" fill="#00AFC2"/>
<path fill-rule="evenodd" clip-rule="evenodd" d="M0.666667 14C0.666667 6.64001 6.63997 0.666667 14 0.666667C21.36 0.666667 27.3333 6.64001 27.3333 14C27.3333 21.36 21.36 27.3333 14 27.3333C6.63997 27.3333 0.666667 21.36 0.666667 14ZM3.33333 14C3.33333 19.88 8.11996 24.6667 14 24.6667C19.88 24.6667 24.6667 19.88 24.6667 14C24.6667 8.12 19.88 3.33333 14 3.33333C8.11996 3.33333 3.33333 8.12 3.33333 14Z" fill="#006974"/>
</svg>
