<svg width="320" height="320" fill="none" xmlns="http://www.w3.org/2000/svg"><g clip-path="url(#Frame 13930__a)"><path fill="#fff" d="M0 0h320v320H0z"/><path d="M177.597 211.17c-23.027-4.05-7.094-22.145-51.13-29.509-7.803-1.315-15.606-1.42-23.519-1.631-7.967-.21-50.148-1.21-34.76-39.503 12.988-32.244 26.357-32.507 39.508-36.558 12.714-3.945 25.974-8.89 20.899-23.617-4.038-11.73-25.047-14.571-16.37-30.509 14.133-25.985 64.063-11.151 67.719-24.144 2.619-16.517-16.48-8.89-27.012-22.986a7.443 7.443 0 0 0-6.057-2.893C70.262 2.502 7.345 56.68-5.805 127.535c-2.184 13.518-2.238 29.088-2.184 36.452 0 .789.655 1.368 1.474 1.368.873 0 1.637-.684 1.691-1.526.71-6.417 1.092-25.406 18.826 5.628 10.095 20.988 57.624 22.934 56.642 42.765-1.364 27.458 36.451 22.671 41.744 43.396 4.693 17.674 13.424 38.083 22.319 46.815 4.311 4.26 15.879 1.735 14.133-5.734-3.11-13.308 3.001-31.403 12.987-42.817 5.239-5.786 16.261-13.255 24.337-23.67 1.474-1.947 5.566-16.465-8.567-18.937v-.105Zm61.935-187.101c-1.255-.79-2.729.736-1.855 1.946.6.789 1.2 1.578 1.637 2.314 9.494 12.098-4.093 15.044 1.637 25.722 13.86 25.827-16.753 9.889-9.441 37.084 2.729 10.099 11.678 11.887 21.664 15.412 17.625 6.154 19.153 22.986-9.604 19.357-9.277-1.157-17.68 5.786-20.79 10.205-5.948 8.416-8.786 19.146-6.876 29.193 2.019 10.468 15.77 19.883 28.375 25.774 29.467 19.305 19.481 62.701.055 83.583-2.729 2.946 1.146 7.259 4.529 5.05a188.144 188.144 0 0 0 10.859-8.364l.218-.157c.601-.526 1.201-1.052 1.801-1.526 37.557-33.151 59.616-83.459 59.759-133.553-.218-54.81-37.386-84.478-82.023-111.988l.055-.052Z" fill="#EC5F5B"/><path d="M.155-16C-16.682-16-57.138 27.153-70 23.834l63.14 116.182 53.027 24.038a81.997 81.997 0 0 1 37.295 33.922l-23.675-41.363L91.5 38.5l60.5-37C122-16 16.992-16 .155-16Zm318 .5c-16.837 0-57.293 43.153-70.155 39.834l63.14 116.182 53.027 24.038a81.995 81.995 0 0 1 37.295 33.922l-23.675-41.363L447.942 4.417C408.187 14.376 334.992-15.5 318.155-15.5Z" fill="#EC5F5B"/></g><defs><clipPath id="Frame 13930__a"><path fill="#fff" d="M0 0h320v320H0z"/></clipPath></defs></svg>
