<?xml version="1.0" encoding="utf-8"?>
<!-- Generator: Adobe Illustrator 22.1.0, SVG Export Plug-In . SVG Version: 6.00 Build 0)  -->
<svg version="1.1" id="Layer_1" xmlns="http://www.w3.org/2000/svg" xmlns:xlink="http://www.w3.org/1999/xlink" x="0px" y="0px"
	 viewBox="0 0 100 100" style="enable-background:new 0 0 100 100;" xml:space="preserve">
<style type="text/css">
	.st0{fill:url(#messages_1_);}
</style>
<title>messages</title>
<g id="Group_2">
	
		<linearGradient id="messages_1_" gradientUnits="userSpaceOnUse" x1="90.4589" y1="10.36" x2="9.5411" y2="91.2778" gradientTransform="matrix(1 0 0 -1 0 100.8189)">
		<stop  offset="0" style="stop-color:#E4DB87"/>
		<stop  offset="1" style="stop-color:#E38935"/>
	</linearGradient>
	<path id="messages" class="st0" d="M92.3,14.6H7.7C3.5,14.6,0,18,0,22.3v55.5c0,4.2,3.5,7.7,7.7,7.7h84.6c4.2,0,7.7-3.5,7.7-7.7
		V22.3C100,18,96.5,14.6,92.3,14.6z M55.9,53.8c-3.1,2.9-4.6,2.9-5.9,2.9c-1.7,0-4.3-1.5-7.6-4.6c-3.6-3.3-24-22.7-32.8-31h80.7
		L55.9,53.8z M30.2,49.6L6.5,72.3V27.1C12.7,33,23,42.7,30.2,49.6z M34.9,54.1c1.4,1.3,2.5,2.3,3.1,2.9c4.7,4.4,8.4,6.3,12,6.3
		c2.8,0,6-0.6,10.4-4.7l4.6-4.4l26,24.8H9.1L34.9,54.1z M69.8,49.6l23.7-22.5v45.2L69.8,49.6z"/>
</g>
</svg>
