<?xml version="1.0" encoding="utf-8"?>
<!-- Generator: Adobe Illustrator 22.1.0, SVG Export Plug-In . SVG Version: 6.00 Build 0)  -->
<svg version="1.1" id="Layer_1" xmlns="http://www.w3.org/2000/svg" xmlns:xlink="http://www.w3.org/1999/xlink" x="0px" y="0px"
	 viewBox="0 0 100 100" style="enable-background:new 0 0 100 100;" xml:space="preserve">
<style type="text/css">
	.st0{fill:#1D1D1B;}
</style>
<path class="st0" d="M98.9,27.8c-2.1-4.7-6.3-7.1-11.3-8c-0.4-0.1-1-0.4-1.2-0.8c-3.2-5.2-7.9-7.8-14-7.8c-18.9,0-37.7,0-56.6,0
	C7.9,11.3,0,17.9,0,25.5c0,6.9,0,43.5,0,48s2.1,8.2,4.6,10.7c3,2.9,6.5,4.5,10.7,4.5c18.9,0,37.8,0,56.6,0c6,0,10.9-2.4,15.2-6.3
	c3.8-3.5,5.7-7.9,6.6-13c1.7-9.9,4.6-25,5.6-29.6S100.3,30.7,98.9,27.8z M82.7,73.1c0,5.3-4.3,9.5-9.5,9.5H15.3
	c-5.3,0-9.5-4.3-9.5-9.5V26.9c0-5.3,4.3-9.5,9.5-9.5h57.8c5.3,0,9.5,4.3,9.5,9.5L82.7,73.1L82.7,73.1z M36.2,35.5c0-2.4,0-4.8,0-7.2
	c0-3-1.8-5-4.8-5c-4.9-0.1-9.7-0.1-14.6,0c-3,0-4.9,2.1-4.9,5.1c0,4.7,0,9.5,0,14.2c0,3.1,1.9,5,5,5c4.8,0,9.6,0,14.5,0
	c2.9,0,4.8-1.9,4.8-4.8C36.2,40.3,36.2,37.9,36.2,35.5L36.2,35.5z M72.4,31c2.5,0,4.2-1.3,4.2-3.2c0-0.4,0-0.8,0-1.2
	c0-2.2-1.6-3.4-4.4-3.4c-2,0-4,0-6,0c-6.5,0-12.9,0-19.4,0c-2.9,0-4.5,1.3-4.5,3.5c0,0.3,0,0.7,0,1c0,2.1,1.6,3.4,4.4,3.4
	c4.2,0,8.5,0,12.7,0C63.7,31,68.1,31,72.4,31z M72.4,47.5c2.5,0,4.2-1.3,4.2-3.2c0-0.4,0-0.8,0-1.2c0-2.2-1.6-3.4-4.4-3.4
	c-2,0-4,0-6,0c-6.5,0-12.9,0-19.4,0c-2.9,0-4.5,1.3-4.5,3.5c0,0.3,0,0.7,0,1c0,2.1,1.6,3.4,4.4,3.4c4.2,0,8.5,0,12.7,0
	C63.7,47.5,68.1,47.5,72.4,47.5z M44.4,75.8c1.2,0,2.4,0,3.6,0c8.3,0,16.6,0,24.9,0c1.3,0,2.4-0.3,3-1.1c0.5-0.7,0.7-1.6,0.7-2.4
	c0.1-2.6-1.2-3.5-4.5-3.5c-8.7,0-17.4,0-26.1,0c-10.1,0-20.1,0-30.2,0c-0.9,0-2.1,0.4-2.7,0.9c-1.6,1.3-1.4,2.9-0.7,4.5
	c0.6,1.4,2.1,1.8,3.9,1.8C25.7,75.8,35,75.8,44.4,75.8L44.4,75.8z M44.4,61.7c1.2,0,2.4,0,3.6,0c8.3,0,16.6,0,24.9,0
	c1.3,0,2.4-0.3,3-1.1c0.5-0.7,0.7-1.6,0.7-2.4c0.1-2.6-1.2-3.5-4.5-3.5c-8.7,0-17.4,0-26.1,0c-10.1,0-20.1,0-30.2,0
	c-0.9,0-2.1,0.4-2.7,0.9c-1.6,1.3-1.4,2.9-0.7,4.5c0.6,1.4,2.1,1.8,3.9,1.8C25.7,61.7,35,61.7,44.4,61.7L44.4,61.7z"/>
</svg>
