<?xml version="1.0" encoding="utf-8"?>
<!-- Generator: Adobe Illustrator 22.1.0, SVG Export Plug-In . SVG Version: 6.00 Build 0)  -->
<svg version="1.1" id="Layer_1" xmlns="http://www.w3.org/2000/svg" xmlns:xlink="http://www.w3.org/1999/xlink" x="0px" y="0px"
	 viewBox="0 0 100 100" style="enable-background:new 0 0 100 100;" xml:space="preserve">
<style type="text/css">
	.st0{fill:url(#SVGID_1_);}
</style>
<g id="Group_4">
	
		<linearGradient id="SVGID_1_" gradientUnits="userSpaceOnUse" x1="76.6555" y1="12.0724" x2="0.4633" y2="88.2646" gradientTransform="matrix(1 0 0 -1 0 100.8189)">
		<stop  offset="0" style="stop-color:#E4DB87"/>
		<stop  offset="1" style="stop-color:#E38935"/>
	</linearGradient>
	<path class="st0" d="M84.1,18.3L68.6,45.1V15c0-2.7-2.2-4.9-4.9-4.9H42.5V8.3l0,0c-0.2-4.6-4-8.2-8.6-8c-4.4,0.2-7.9,3.7-8,8l0,0
		v1.8h-21C2.2,10.1,0,12.3,0,15v79.8c0,2.7,2.2,4.9,4.9,4.9h58.7c2.7,0,4.9-2.2,4.9-4.9v-13L100,27.4L84.1,18.3z M34.2,6.3
		c1.3,0,2.3,1,2.3,2.3s-1,2.3-2.3,2.3s-2.3-1-2.3-2.3l0,0C31.9,7.3,32.9,6.3,34.2,6.3z M62.6,93.8H6V16.1h12v6h32.5v-6h12.1v39.3
		L51.3,74.9v18.4l11.3-6.8V93.8z M63.2,79.3l-0.5,0.3l-5.4-3l22.8-39.5l5.6,3.1L63.2,79.3z M83.1,31.9l3.2-5.5l5.6,3.2L88.7,35
		L83.1,31.9z M56.6,35H23.9v-6h32.8V35z M17.9,32c0,1.7-1.3,3-3,3s-3-1.3-3-3c0-1.7,1.3-3,3-3S17.9,30.3,17.9,32z M56.6,47.9H23.9
		V42h32.8V47.9z M17.9,45c0,1.7-1.3,3-3,3s-3-1.3-3-3s1.3-3,3-3S17.9,43.3,17.9,45z M17.9,57.9c0,1.7-1.3,3-3,3s-3-1.3-3-3
		s1.3-3,3-3C16.6,54.9,17.9,56.2,17.9,57.9L17.9,57.9z M17.9,70.9c0,1.7-1.3,3-3,3s-3-1.3-3-3s1.3-3,3-3
		C16.6,67.9,17.9,69.2,17.9,70.9L17.9,70.9z M17.9,83.8c0,1.7-1.3,3-3,3s-3-1.3-3-3s1.3-3,3-3C16.6,80.8,17.9,82.1,17.9,83.8
		L17.9,83.8z M52.6,60.9H23.9v-6h32.5L52.6,60.9z M23.9,67.9h24.2l-2.8,4.4v1.6H23.9L23.9,67.9z M23.9,80.8h21.4v6H23.9L23.9,80.8z"
		/>
</g>
</svg>
