<?xml version="1.0" encoding="utf-8"?>
<!-- Generator: Adobe Illustrator 22.1.0, SVG Export Plug-In . SVG Version: 6.00 Build 0)  -->
<svg version="1.1" id="Layer_1" xmlns="http://www.w3.org/2000/svg" xmlns:xlink="http://www.w3.org/1999/xlink" x="0px" y="0px"
	 viewBox="0 0 421 522.1" style="enable-background:new 0 0 421 522.1;" xml:space="preserve">
<style type="text/css">
	.st0{fill:url(#SVGID_1_);}
	.st1{fill:url(#SVGID_2_);}
	.st2{fill:url(#SVGID_3_);}
	.st3{fill:url(#SVGID_4_);}
	.st4{fill:url(#SVGID_5_);}
	.st5{fill:url(#SVGID_6_);}
	.st6{fill:url(#SVGID_7_);}
	.st7{fill:url(#SVGID_8_);}
	.st8{fill:url(#SVGID_9_);}
</style>
<g id="Orcs">
	<g>
		
			<linearGradient id="SVGID_1_" gradientUnits="userSpaceOnUse" x1="48.8228" y1="468.9984" x2="371.9588" y2="145.8624" gradientTransform="matrix(1 0 0 -1 0 523.2756)">
			<stop  offset="0" style="stop-color:#3D3D3D"/>
			<stop  offset="1" style="stop-color:#0D0D0C"/>
		</linearGradient>
		<path class="st0" d="M210.5,13.9c33.2,0,93.1,2.4,129.6,8.6c7.1,39.3,32.7,71,65.7,82.2v122c0,41.4-2.5,68.3-8.3,89.9
			c-5.5,20.6-14.2,37.3-30,57.8l-0.4,0.5l-0.3,0.5c-29,42.8-72.2,77.3-103.2,98.7c-22.6,15.6-42.3,26.7-53.2,32.5
			C183.3,492.1,100.8,444.2,54,375.3l-0.3-0.5l-0.4-0.5c-15.8-20.5-24.5-37.3-30-57.8c-5.8-21.7-8.3-48.6-8.3-89.9v-122
			c33.1-11.2,58.6-42.9,65.7-82.2C117.4,16.3,177.3,13.9,210.5,13.9"/>
		
			<linearGradient id="SVGID_2_" gradientUnits="userSpaceOnUse" x1="37.1961" y1="482.8717" x2="383.8228" y2="136.245" gradientTransform="matrix(1 0 0 -1 0 523.2756)">
			<stop  offset="0" style="stop-color:#F0BC5B"/>
			<stop  offset="0.5195" style="stop-color:#D29A34"/>
			<stop  offset="1" style="stop-color:#B27E1E"/>
		</linearGradient>
		<path class="st1" d="M210.5,20c32.4,0,90.8,2.3,126.4,8.4c6.9,38.3,31.9,69.3,64.1,80.2v119c0,40.3-2.4,66.6-8.1,87.7
			c-5.4,20-13.8,36.4-29.2,56.4l-0.4,0.5l-0.3,0.5c-28.3,41.7-70.4,75.4-100.6,96.3c-22.1,15.2-41.3,26.1-51.8,31.7
			c-26.4-14.1-106.9-60.9-152.5-128l-0.3-0.5l-0.4-0.5c-15.4-20-23.9-36.3-29.2-56.4c-5.7-21.1-8.1-47.4-8.1-87.7v-119
			c32.2-10.9,57.2-41.9,64.1-80.2C119.7,22.3,178.1,20,210.5,20 M210.5,0C171.2,0,99.9,3.2,65.9,11.7C63.8,56.3,34,89.3,0,92.5
			c0,0,0,99.9,0,135c0,80.8,9.6,114.8,41.5,156.3c58.5,86.1,169,139.3,169,139.3s110.6-53.2,169-139.3
			c31.9-41.5,41.5-75.5,41.5-156.3c0-35.1,0-135,0-135c-34-3.2-63.8-36.1-65.9-80.8C321.1,3.2,249.8,0,210.5,0L210.5,0z"/>
	</g>
	
		<linearGradient id="SVGID_3_" gradientUnits="userSpaceOnUse" x1="153.1" y1="337.1756" x2="321.7" y2="168.5756" gradientTransform="matrix(1 0 0 -1 0 523.2756)">
		<stop  offset="0" style="stop-color:#FFFFFF"/>
		<stop  offset="0.9991" style="stop-color:#D0D0D0"/>
	</linearGradient>
	<polygon class="st2" points="118.2,261.2 160.3,178.9 220,142.8 264.7,160.8 314.9,192.1 314.9,268.9 321.8,275.8 321.8,290.1 
		300.5,306 287.5,294.9 277.7,299.2 267.5,287.6 269.5,281.8 239.4,260.7 287.8,351.1 277.7,398.7 224.6,342.5 135.7,324.5 	"/>
	
		<linearGradient id="SVGID_4_" gradientUnits="userSpaceOnUse" x1="130.3" y1="237.0756" x2="130.3" y2="311.5756" gradientTransform="matrix(1 0 0 -1 0 523.2756)">
		<stop  offset="0" style="stop-color:#B14D30"/>
		<stop  offset="0.5195" style="stop-color:#943115"/>
		<stop  offset="1" style="stop-color:#732510"/>
	</linearGradient>
	<polygon class="st3" points="81.3,286.2 102.8,219.6 164.4,211.7 179.3,252.3 	"/>
	
		<linearGradient id="SVGID_5_" gradientUnits="userSpaceOnUse" x1="121.1721" y1="283.3405" x2="132.0271" y2="344.9025" gradientTransform="matrix(1 0 0 -1 0 523.2756)">
		<stop  offset="0" style="stop-color:#C26725"/>
		<stop  offset="0.5195" style="stop-color:#AD5517"/>
		<stop  offset="1" style="stop-color:#904014"/>
	</linearGradient>
	<polygon class="st4" points="116.3,175.6 72.2,231.3 174.6,223.3 179.8,188.4 	"/>
	
		<linearGradient id="SVGID_6_" gradientUnits="userSpaceOnUse" x1="137.2609" y1="332.5833" x2="157.7195" y2="388.7928" gradientTransform="matrix(1 0 0 -1 0 523.2756)">
		<stop  offset="0" style="stop-color:#DE8B24"/>
		<stop  offset="0.5195" style="stop-color:#C27314"/>
		<stop  offset="1" style="stop-color:#AB5E16"/>
	</linearGradient>
	<polygon class="st5" points="148.7,131.2 90.3,173.6 183.8,201.8 196.3,174.6 	"/>
	
		<linearGradient id="SVGID_7_" gradientUnits="userSpaceOnUse" x1="160.086" y1="368.2291" x2="206.3174" y2="423.3255" gradientTransform="matrix(1 0 0 -1 0 523.2756)">
		<stop  offset="0" style="stop-color:#E7B456"/>
		<stop  offset="0.5195" style="stop-color:#D29A34"/>
		<stop  offset="1" style="stop-color:#B7821E"/>
	</linearGradient>
	<polygon class="st6" points="118.2,119.9 198.5,182.7 226.3,161.2 214.6,106.9 	"/>
	
		<linearGradient id="SVGID_8_" gradientUnits="userSpaceOnUse" x1="201.3892" y1="384.2557" x2="269.3475" y2="408.9905" gradientTransform="matrix(1 0 0 -1 0 523.2756)">
		<stop  offset="0" style="stop-color:#FDD79F"/>
		<stop  offset="0.5195" style="stop-color:#E3B677"/>
		<stop  offset="0.9991" style="stop-color:#BB9257"/>
	</linearGradient>
	<polygon class="st7" points="223.3,169.6 181.4,84.1 271.1,119.1 262.7,178.9 	"/>
	
		<linearGradient id="SVGID_9_" gradientUnits="userSpaceOnUse" x1="255.9" y1="336.0256" x2="327.4" y2="336.0256" gradientTransform="matrix(1 0 0 -1 0 523.2756)">
		<stop  offset="0" style="stop-color:#DE8B24"/>
		<stop  offset="0.5195" style="stop-color:#C27314"/>
		<stop  offset="1" style="stop-color:#AB5E16"/>
	</linearGradient>
	<polygon class="st8" points="293.5,112 263.4,102.2 255.9,211.7 261.9,249.4 293.5,272.3 298.1,230.9 281.5,215.8 280.8,178.9 
		327.4,241.4 327.4,169.2 	"/>
</g>
</svg>
