<svg fill="none" xmlns="http://www.w3.org/2000/svg" viewBox="0 0 274 60"><path d="M116.2 1.6c-12 0-20.7 9-20.7 20.5v15.3c0 3 2.5 5.4 5.5 5.4s5.5-2.4 5.5-5.4V22.1c0-5.7 4-10.5 9.7-10.5 5.7 0 9.7 4.8 9.7 10.5v15.3c0 3 2.4 5.4 5.5 5.4 3 0 5.4-2.4 5.4-5.4l.1-16.8c-.7-10.7-9.1-19-20.7-19ZM21 .9C9.4 1 0 9.4 0 22v32.4C0 57.4 2.5 60 5.6 60c3 0 5.5-2.5 5.5-5.6V39.1c3.2 2.3 7.2 3.8 11.5 3.8 11.2 0 19.6-9.3 19.6-21S33.2.9 21 .9Zm0 31.7c-5.4 0-10-4.4-10-10.7 0-6.3 4.5-10.7 10-10.7 5.6 0 10 4.5 10 10.7 0 6.2-4.4 10.7-10 10.7Zm201.7-4.8c-2.2 0-3.3 1.1-4.9 2.5a9.5 9.5 0 0 1-6.2 2.3c-5.8 0-10-4.8-10-10.7 0-6 4.3-10.7 10-10.7.8 0 2.2.2 2.7.4l-6.8 7.8c-.9 1-1.2 2.2-1.2 3.4 0 2.9 2.3 5 5.3 5 1.5 0 2.7-.5 3.8-1.8l10.3-12.2a5.7 5.7 0 0 0 1.5-3.9c0-1.5-.7-3.1-2-4.2-2.2-2-7.1-4.8-13.6-4.8a20.6 20.6 0 0 0-21.2 21c0 11.7 9 21 21.2 21 6.8 0 12.2-3 15-6.2a6 6 0 0 0 1.5-3.6c0-3.1-2.4-5.3-5.4-5.3ZM252.8.9a20.6 20.6 0 0 0-21.1 21c0 11.7 8.9 21 21.1 21 12.3 0 21.2-9.3 21.2-21s-8.9-21-21.2-21Zm0 31.7c-5.7 0-10-5-10-10.7 0-5.8 4.3-10.7 10-10.7 5.8 0 10 5 10 10.7 0 5.8-4.2 10.7-10 10.7ZM164.3 1a20.7 20.7 0 0 0-21.2 21c0 11.7 8.4 21 19.6 21 4.3 0 8.2-1.5 11.5-3.8V42c0 6-5.2 7.7-9.8 7.7-3 0-5-1.2-6.3-2.3-1.4-1.2-2.6-2.5-4.8-2.5-3.1 0-5.5 2.2-5.5 5.3 0 1 .6 2.4 1.6 3.6 2.7 3.3 8.2 6.2 15 6.2 10.7 0 20.9-4.3 20.9-17V22c0-12.4-9.5-20.9-21-20.9Zm0 31.7c-5.7 0-10-4.6-10-10.7s4.3-10.7 10-10.7c5.6 0 9.9 4.5 9.9 10.7 0 6.2-4.5 10.7-10 10.7ZM67.9 1.2a20.7 20.7 0 0 0-21.2 21 20.6 20.6 0 0 0 15.5 20.3C67 44 71 42 72.6 41c2.4-1.5 3-3.5 3-5.5 0-2.5-1.3-4.7-4.3-4.8-2.8 0-4.5 2.5-8.9 0-2.9-1.6-4.5-4.7-4.5-8.5 0-6.1 4.5-10.7 10-10.7 5.4 0 9.9 4.6 9.9 10.7v15.4c0 3.1 2.4 5.6 5.5 5.6s5.6-2.5 5.6-5.6V22.2c0-12.5-9.5-21-21-21Z" fill="url(#a)"/><defs><linearGradient id="a" x1="0" y1="30.5" x2="274" y2="30.5" gradientUnits="userSpaceOnUse"><stop stop-color="#EC5F65"/><stop offset=".5" stop-color="#ED6A5B"/><stop offset=".7" stop-color="#EE7361"/><stop offset="1" stop-color="#F0826B"/></linearGradient></defs></svg>