<svg viewBox="0 0 80 18" fill="none" xmlns="http://www.w3.org/2000/svg">
<path d="M33.9363 0.968364C30.4256 0.968364 27.8899 3.62287 27.8899 6.98201L27.9084 11.4639C27.9084 12.3488 28.6091 13.0534 29.4943 13.0534C30.3795 13.0534 31.0802 12.3511 31.0802 11.4639V6.98201H31.0849C31.0849 5.32554 32.2858 3.91858 33.9386 3.91858C35.5914 3.91858 36.7693 5.32554 36.7693 6.98201V11.4639C36.7693 12.3488 37.4724 13.0534 38.3553 13.0534C39.2381 13.0534 39.9412 12.3511 39.9412 11.4639C39.9412 11.4639 39.9827 6.69553 39.9735 6.5546C39.7683 3.40108 37.3018 0.968364 33.9409 0.968364H33.9363ZM6.13168 0.776611C2.75465 0.776611 0 3.25784 0 6.92194V16.4264C0 17.3297 0.7169 18.0505 1.62052 18.0505C2.52413 18.0505 3.24103 17.332 3.24103 16.4264V11.9537C4.18845 12.6491 5.34563 13.0673 6.59501 13.0673C9.85679 13.0673 12.3095 10.355 12.3095 6.92194C12.3095 3.48887 9.67238 0.776611 6.13168 0.776611ZM6.13168 10.0524C4.55957 10.0524 3.23873 8.75398 3.23873 6.92194C3.23873 5.08989 4.51117 3.79152 6.13168 3.79152C7.7522 3.79152 9.04769 5.11299 9.04769 6.92194C9.04769 8.73088 7.77525 10.0524 6.13168 10.0524ZM65.0073 8.63847C64.3827 8.63847 64.0599 8.98732 63.5966 9.38007C63.2024 9.70582 62.6238 10.0524 61.7686 10.0524C60.102 10.0524 58.8526 8.66157 58.8526 6.92194C58.8526 5.1823 60.1251 3.79152 61.7686 3.79152C62.0222 3.79152 62.4164 3.83772 62.5777 3.90703L60.5884 6.20344C60.3348 6.48068 60.2403 6.82953 60.2403 7.17838C60.2403 8.03549 60.9111 8.66157 61.7894 8.66157C62.2296 8.66157 62.5754 8.49985 62.9004 8.1279L65.8856 4.55622C66.2106 4.16116 66.3259 3.81462 66.3259 3.41956C66.3259 2.9552 66.1184 2.49314 65.7473 2.16739C65.0995 1.56441 63.6658 0.776611 61.7686 0.776611C58.1818 0.776611 55.5908 3.48887 55.5908 6.92194C55.5908 10.355 58.2049 13.0673 61.7686 13.0673C63.758 13.0673 65.3554 12.2102 66.1415 11.2583C66.4411 10.9095 66.6048 10.5167 66.6048 10.191C66.6048 9.28766 65.911 8.63847 65.0073 8.63847ZM73.8222 0.778922C70.2354 0.778922 67.6444 3.49118 67.6444 6.92425C67.6444 10.3573 70.2354 13.0696 73.8222 13.0696C77.409 13.0696 80 10.3573 80 6.92425C80 3.49118 77.409 0.778922 73.8222 0.778922ZM73.8222 10.0547C72.1325 10.0547 70.9062 8.61768 70.9062 6.92425C70.9062 5.23082 72.1325 3.79383 73.8222 3.79383C75.5119 3.79383 76.7152 5.23082 76.7152 6.92425C76.7152 8.61768 75.5119 10.0547 73.8222 10.0547ZM47.9585 0.829747C44.4178 0.829747 41.7807 3.54201 41.7807 6.97507C41.7807 10.4081 44.2334 13.1204 47.4952 13.1204C48.7446 13.1204 49.9017 12.7022 50.8492 12.0068V12.8131C50.8492 14.592 49.3485 15.0703 47.9931 15.0703C47.1379 15.0703 46.5593 14.7214 46.1651 14.398C45.7479 14.0491 45.4021 13.6564 44.7544 13.6564C43.853 13.6564 43.1569 14.3056 43.1569 15.2089C43.1569 15.5346 43.3182 15.9274 43.6202 16.2762C44.4063 17.2258 46.0037 18.0852 47.9931 18.0852C51.1212 18.0852 54.0879 16.833 54.0879 13.1088V6.97507C54.0879 3.31098 51.3355 0.829747 47.9562 0.829747H47.9585ZM47.9585 10.1055C46.3149 10.1055 45.0425 8.76092 45.0425 6.97507C45.0425 5.18923 46.3149 3.84465 47.9585 3.84465C49.6021 3.84465 50.8515 5.16613 50.8515 6.97507C50.8515 8.78402 49.5329 10.1055 47.9585 10.1055ZM19.815 0.864401C16.2743 0.864401 13.6372 3.57666 13.6372 7.00973C13.6372 10.0131 15.5943 12.2841 18.1392 12.9494C18.1392 12.9494 18.153 12.9541 18.1599 12.9564C19.5661 13.393 20.7417 12.8108 21.1935 12.522C21.8943 12.0738 22.0925 11.4917 22.0925 10.9072C22.0925 10.1864 21.6799 9.5233 20.8177 9.50944C20.0133 9.49558 19.5015 10.2279 18.2222 9.50944C17.3716 9.03122 16.899 8.12097 16.899 7.00973C16.899 5.22389 18.2175 3.87931 19.815 3.87931C21.4125 3.87931 22.708 5.22389 22.708 7.00973V11.5309C22.708 12.4342 23.4249 13.1551 24.3285 13.1551C25.2321 13.1551 25.949 12.4366 25.949 11.5309V7.00973C25.949 3.34563 23.1967 0.864401 19.8173 0.864401H19.815Z" fill="url(#paint0_linear_9303_1389)"/>
<defs>
<linearGradient id="paint0_linear_9303_1389" x1="0.00230514" y1="9.43089" x2="80" y2="9.43089" gradientUnits="userSpaceOnUse">
<stop stop-color="#EC5F65"/>
<stop offset="0.45" stop-color="#ED6A5B"/>
<stop offset="0.65" stop-color="#EE7361"/>
<stop offset="1" stop-color="#F0826B"/>
</linearGradient>
</defs>
</svg>
