<svg fill="none" xmlns="http://www.w3.org/2000/svg" viewBox="0 0 32 32"><g clip-path="url(#a)"><path d="M16.5 3C11.8202 3 8 6.8314 8 11.5249c0 1.1494.191 2.2031.573 3.1609 0 .0958 0 .0958.0955.1916l5.2528 11.59c.0956.1916.2866.479.4776.5747.4775.5748 1.2415.9579 2.1011.9579.8596 0 1.6236-.3831 2.1011-.9579.191-.1915.2865-.3831.382-.5747l.0956-.1915 5.2528-11.3985c0-.0958.0955-.1916.0955-.2874.382-.9578.573-2.0115.573-3.0651C25 6.8314 21.1798 3 16.5 3Zm0 13.0268c-2.4831 0-4.4888-2.0115-4.4888-4.5019s2.0057-4.502 4.4888-4.502c2.4831 0 4.4888 2.0116 4.4888 4.502 0 2.4904-2.0057 4.5019-4.4888 4.5019Z" stroke="#00AFC2" stroke-width="2" stroke-miterlimit="10"/></g><defs><clipPath id="a"><path fill="#fff" d="M0 0h32v32H0z"/></clipPath></defs></svg>