<?xml version="1.0" encoding="utf-8"?>
<!-- Generator: Adobe Illustrator 22.1.0, SVG Export Plug-In . SVG Version: 6.00 Build 0)  -->
<svg version="1.1" id="Group_1" xmlns="http://www.w3.org/2000/svg" xmlns:xlink="http://www.w3.org/1999/xlink" x="0px" y="0px"
	 viewBox="0 0 100 100" style="enable-background:new 0 0 100 100;" xml:space="preserve">
<style type="text/css">
	.st0{fill:url(#SVGID_1_);}
</style>
<title>players</title>
<g id="players">
	
		<linearGradient id="SVGID_1_" gradientUnits="userSpaceOnUse" x1="7.188679e-02" y1="49.8333" x2="99.8868" y2="49.8333" gradientTransform="matrix(1 0 0 -1 0 99.8583)">
		<stop  offset="0" style="stop-color:#CECECE"/>
		<stop  offset="0.5" style="stop-color:#FFFFFF"/>
		<stop  offset="1" style="stop-color:#CECECE"/>
	</linearGradient>
	<path class="st0" d="M94.9,51.3c-4.2,1.2-11.6,3.8-11.6,3.8V100H16.7V55c0,0-7.4-2.5-11.6-3.8s-6-4.7-4.6-9.6s5.4-18.9,6.9-24.3
		s4.9-7.9,9.3-9.3S27.1,5,28,4.6c0.9-0.3,1.7-0.7,2.5-1.3c0.7-0.7,1.6-1.1,2.6-1.3C38.6,0.8,44.3,0.1,50,0
		c5.7,0.1,11.4,0.8,16.9,2.1c0.9,0.3,1.8,0.7,2.6,1.3c0.8,0.6,1.6,1,2.5,1.3c0.9,0.3,6.8,2,11.2,3.4s7.8,3.9,9.3,9.3
		s5.5,19.4,6.9,24.3S99.1,50,94.9,51.3z M35.9,7.7C39.3,12,47.7,17.8,50,17.8s10.7-6.1,13.9-10.2C59.4,6.7,54.7,6.1,50,6
		C45.3,6.2,40.6,6.7,35.9,7.7z M16.6,38.5v-8.4c0.1-4.7,0.7-10.9,6.4-12.6c3.9-1.1,8.3-2.4,10.9-3.2c-1.3-1.3-2.5-2.7-3.6-4.2
		c-0.2,0-0.5,0.1-0.7,0.2l-1.8,0.5l-9.5,2.9c-3.2,1-4.5,2.3-5.3,5.1c-1.1,4-3.6,12.7-5.4,19C7,40,6.5,41.9,6.1,43.2
		c-0.2,0.6-0.3,1.3-0.2,1.9c0.3,0.1,0.5,0.2,0.8,0.3c3,1,7.4,2.4,9.9,3.3L16.6,38.5z M77.2,94v-6H22.6v6H77.2z M93.6,43.4
		c-0.3-1.3-0.9-3.2-1.5-5.4c-1.8-6.4-4.3-15-5.4-19.1c-0.7-2.8-2.1-4.1-5.2-5.1L72,11l-1.8-0.5c-0.2-0.1-0.5-0.2-0.7-0.3
		c-1,1.5-2.2,2.8-3.5,4.1l11,3.3c5.1,1.6,6.1,6.7,6.4,11.1v12.2l-0.1,1.5v6.5c2.5-0.9,6.9-2.4,9.9-3.3c0.3,0,0.6-0.1,0.8-0.3
		C94.1,44.6,94,44,93.6,43.4z"/>
</g>
</svg>
