<svg viewBox="0 0 38 38" fill="none" xmlns="http://www.w3.org/2000/svg">
<circle cx="16" cy="16" r="16" fill="#CCF6FB"/>
<path fill-rule="evenodd" clip-rule="evenodd" d="M16 6C12.13 6 9 9.13 9 13C9 18.25 16 26 16 26C16 26 23 18.25 23 13C23 9.13 19.87 6 16 6ZM11 13C11 10.24 13.24 8 16 8C18.76 8 21 10.24 21 13C21 15.88 18.12 20.19 16 22.88C13.92 20.21 11 15.85 11 13ZM13.5 13C13.5 11.6193 14.6193 10.5 16 10.5C16.8932 10.5 17.7185 10.9765 18.1651 11.75C18.6116 12.5235 18.6116 13.4765 18.1651 14.25C17.7185 15.0235 16.8932 15.5 16 15.5C14.6193 15.5 13.5 14.3807 13.5 13Z" fill="#1FA8BC"/>
</svg>
