<?xml version="1.0" encoding="utf-8"?>
<!-- Generator: Adobe Illustrator 22.1.0, SVG Export Plug-In . SVG Version: 6.00 Build 0)  -->
<svg version="1.1" id="Layer_1" xmlns="http://www.w3.org/2000/svg" xmlns:xlink="http://www.w3.org/1999/xlink" x="0px" y="0px"
	 viewBox="0 0 100 100" style="enable-background:new 0 0 100 100;" xml:space="preserve">
<style type="text/css">
	.st0{fill:url(#SVGID_1_);}
	.st1{fill:url(#SVGID_2_);}
</style>
<g>
	<g>
		
			<linearGradient id="SVGID_1_" gradientUnits="userSpaceOnUse" x1="85.2986" y1="15.4328" x2="14.5553" y2="86.1761" gradientTransform="matrix(1 0 0 -1 0 100.8189)">
			<stop  offset="0" style="stop-color:#E4DB87"/>
			<stop  offset="1" style="stop-color:#E38935"/>
		</linearGradient>
		<path class="st0" d="M44,0c3.9,0,7.7,0,11.6,0c3.2,1.2,4.8,3.5,5,6.9c0.1,1.4,0.4,2.8,0.8,4.1c0.2,0.6,0.7,1.2,1.3,1.5
			c4.1,2.6,7.8,2.6,11.2-1.2c0-0.1,0.1-0.1,0.2-0.1c3-2,5.8-1.8,8.5,0.6c1.7,1.6,3.4,3.3,5,5c3.5,3.6,3.9,6.2,0.7,10.1
			c-2.5,3.1-3.4,5.8-1.2,9.4c0.8,1.4,1.4,2.3,3.1,2.5c3.9,0.5,8.1,0.6,9.9,5.3c0,4,0,8,0,12c-1.4,3.1-3.9,4.6-7.3,4.9
			c-1.2,0.1-2.4,0.2-3.5,0.6c-0.7,0.2-1.4,0.9-1.9,1.5c-2.5,3.8-2.4,7.4,1.2,10.6c0.2,0.1,0.3,0.3,0.4,0.5c1.9,2.9,1.8,5.7-0.6,8.3
			c-1.6,1.7-3.3,3.4-5,5c-3.7,3.6-6.2,4-10.3,0.8c-3-2.4-5.5-3.4-9.2-1.2c-1.5,0.9-2.4,1.6-2.7,3.4c-0.5,3.8-0.8,7.9-5.2,9.7
			c-4,0-8,0-12,0c-3.2-1.4-4.6-3.9-4.9-7.2c-0.1-1.1-0.2-2.3-0.5-3.3c-0.3-0.8-1-1.7-1.7-2.2c-3.7-2.5-7.1-1.9-10.1,1.3
			c-0.3,0.3-0.7,0.5-1.1,0.8c-2.5,1.6-5.4,1.4-7.6-0.6c-2.3-2.1-4.5-4.3-6.6-6.6c-2.1-2.3-2.2-4.9-0.6-7.5c0.6-0.9,1.2-1.9,1.9-2.7
			c2-2,2.1-3.9,0.8-6.6c-1.2-2.6-2.4-3.9-5.3-4.1C4.8,61,1.4,60.1,0,56c0-3.9,0-7.7,0-11.6c1.2-3.1,3.5-4.8,6.9-5
			c1.4-0.1,2.8-0.4,4.1-0.8c0.5-0.1,1.2-0.6,1.4-1c2.7-5.7,2.7-5.7-0.9-10.7c-0.3-0.4-0.5-0.7-0.8-1.1c-1.7-2.7-1.5-5.6,0.7-7.9
			c2-2.2,4.1-4.2,6.3-6.2c2.4-2.2,5.1-2.4,7.9-0.6c0.7,0.4,1.4,0.9,2,1.4c2.3,2.2,4.5,2.6,7.6,1.1c2.3-1.1,3.4-2.2,3.6-4.7
			C39.1,5.1,39.7,1.5,44,0z M22.1,85.1c2.6-1.8,4.9-3.4,7.1-5.1c1.4-1,2.7-1.1,4.3-0.4c2.5,1.2,5,2.1,7.6,3.1c1.4,0.5,2.3,1.4,2.6,3
			c0.3,2.4,0.7,4.8,1.3,7.2c0.1,0.6,0.9,1.3,1.5,1.4c2.4,0.2,4.7,0.2,7.1,0c0.6,0,1.4-0.8,1.5-1.3c0.6-2.4,1-4.8,1.3-7.2
			c0.2-1.6,1.1-2.5,2.5-3c2.7-1,5.3-2.1,8-3.3c1.5-0.7,2.8-0.6,4.1,0.4c1.9,1.4,3.8,2.8,5.8,4.1c0.5,0.3,1.7,0.2,2.2-0.2
			c1.6-1.4,3-3,4.6-4.5c1-0.9,1.1-1.7,0.3-2.8c-1.4-1.8-2.6-3.8-4-5.6c-1-1.4-1-2.6-0.3-4.1c1.2-2.5,2.2-5.1,3.2-7.8
			c0.5-1.4,1.3-2.4,2.9-2.6c2.3-0.3,4.6-0.9,7-1.2c1.3-0.2,1.8-0.7,1.8-2c-0.1-2.1-0.1-4.3,0-6.4c0-1.3-0.4-1.8-1.8-2
			c-2.3-0.3-4.5-0.9-6.8-1.2c-1.7-0.2-2.6-1.1-3.2-2.7c-1-2.6-2-5.2-3.2-7.8c-0.7-1.5-0.7-2.8,0.3-4.1c1.4-1.8,2.6-3.8,4-5.6
			c0.8-1,0.9-1.7-0.1-2.6c-1.6-1.5-3.1-3.2-4.8-4.6c-0.5-0.4-1.7-0.5-2.2-0.2c-1.8,1.1-3.6,2.4-5.2,3.7c-1.7,1.4-3.3,1.5-5.3,0.4
			c-2.2-1.2-4.6-2.1-7-2.8c-2.1-0.6-3-1.9-3.3-3.9c-0.3-2.1-0.7-4.1-0.9-6.1c-0.2-1.3-0.7-1.8-2-1.7c-2.1,0.1-4.3,0.1-6.4,0
			c-1.2,0-1.7,0.4-1.9,1.6c-0.3,2.3-0.8,4.7-1.2,7c-0.3,1.6-1.1,2.6-2.7,3.2c-2.6,1-5.2,2-7.7,3.2c-1.6,0.8-2.9,0.7-4.3-0.3
			c-1.9-1.4-3.8-2.8-5.8-4.1c-0.5-0.3-1.5-0.4-1.8,0C19,18,17,20,14.9,22c1.9,2.7,3.8,5,5.2,7.5c0.6,1,0.6,2.7,0.3,3.8
			c-0.8,2.7-2.1,5.2-3,7.8c-0.6,1.7-1.6,2.6-3.3,2.8c-2.1,0.3-4.2,0.7-6.4,1c-1.3,0.2-2.1,0.6-2,2.2c0.1,2.1,0.1,4.1,0,6.2
			c-0.1,1.3,0.5,1.9,1.7,2c2.2,0.3,4.4,0.7,6.6,1c1.7,0.3,2.8,1,3.4,2.7c1,2.7,2.1,5.3,3.3,7.9c0.7,1.4,0.7,2.6-0.3,3.9
			c-1.5,2-2.9,3.9-4.2,6c-0.3,0.5-0.2,1.7,0.2,2.2C18.1,81.1,20,83,22.1,85.1z"/>
		
			<linearGradient id="SVGID_2_" gradientUnits="userSpaceOnUse" x1="65.1701" y1="35.6301" x2="34.7697" y2="66.0305" gradientTransform="matrix(1 0 0 -1 0 100.8189)">
			<stop  offset="0" style="stop-color:#E4DB87"/>
			<stop  offset="1" style="stop-color:#E38935"/>
		</linearGradient>
		<path class="st1" d="M28.4,50c0-11.9,9.8-21.6,21.6-21.6s21.4,9.7,21.5,21.5c0.1,11.9-9.7,21.7-21.5,21.7
			C38.2,71.6,28.5,61.9,28.4,50z M49.9,65.9c8.9,0,15.9-6.9,16-15.8c0.1-8.8-7-15.9-15.8-16c-8.9-0.1-15.9,6.9-16,15.8
			C34.1,58.8,41,65.8,49.9,65.9z"/>
	</g>
</g>
</svg>
