<?xml version="1.0" encoding="utf-8"?>
<!-- Generator: Adobe Illustrator 22.1.0, SVG Export Plug-In . SVG Version: 6.00 Build 0)  -->
<svg version="1.1" id="Layer_1" xmlns="http://www.w3.org/2000/svg" xmlns:xlink="http://www.w3.org/1999/xlink" x="0px" y="0px"
	 viewBox="0 0 100 100" style="enable-background:new 0 0 100 100;" xml:space="preserve">
<style type="text/css">
	.st0{fill:url(#SVGID_1_);}
</style>
<linearGradient id="SVGID_1_" gradientUnits="userSpaceOnUse" x1="0" y1="50.5816" x2="100" y2="50.5816">
	<stop  offset="0" style="stop-color:#CECECE"/>
	<stop  offset="0.5" style="stop-color:#FFFFFF"/>
	<stop  offset="1" style="stop-color:#CECECE"/>
</linearGradient>
<path class="st0" d="M0,50.6C11.8,43.3,23.2,36.3,35,29c0,4,0,7.5,0,11.3c7.5,0,14.7,0,22,0c0,6.9,0,13.4,0,20.4
	c-7.2,0-14.3,0-21.8,0c0,3.9,0,7.4,0,11.5C23.2,64.9,11.9,57.9,0,50.6z M46.5,66.1h-6v17.3c0,2.5,2,4.5,4.5,4.5h13.8v-6H46.5V66.1z
	 M46.5,34.8V19.3h12.3v-6H45c-2.5,0-4.5,2-4.5,4.5v16.9H46.5z M100,81.2c0,4-1.3,5.3-5.2,6.3c-7.7,2-15.4,4.1-23,6.2
	c-5,1.4-7.7-0.7-7.7-5.9c0-12.4,0-24.7,0-37.1c0,0,0,0,0,0c0-12.4,0-24.7,0-37.1c0-5.7,2.5-7.5,8-6.1c7.8,2,15.6,4,23.4,5.9
	c3.1,0.8,4.4,2.5,4.4,5.8C100,39.9,100,60.5,100,81.2z M78.8,37.2c0-2.2-1.8-4-4-4c-2.2,0-4,1.8-4,4c0,2.2,1.8,4,4,4
	C77,41.3,78.8,39.4,78.8,37.2z"/>
</svg>
