<?xml version="1.0" encoding="utf-8"?>
<!-- Generator: Adobe Illustrator 22.1.0, SVG Export Plug-In . SVG Version: 6.00 Build 0)  -->
<svg version="1.1" id="Layer_1" xmlns="http://www.w3.org/2000/svg" xmlns:xlink="http://www.w3.org/1999/xlink" x="0px" y="0px"
	 viewBox="0 0 100 100" style="enable-background:new 0 0 100 100;" xml:space="preserve">
<style type="text/css">
	.st0{fill:url(#SVGID_1_);}
</style>
<linearGradient id="SVGID_1_" gradientUnits="userSpaceOnUse" x1="0" y1="50" x2="100" y2="50">
	<stop  offset="0" style="stop-color:#797879"/>
	<stop  offset="0.5" style="stop-color:#020203"/>
	<stop  offset="1" style="stop-color:#797879"/>
</linearGradient>
<path class="st0" d="M19.1,97.9c0.2-1.5,0.5-2.8,0.7-4.1c0.7-4.3,1.5-8.7,2.2-13c0.9-5.6,1.9-11.1,2.9-16.7c0.1-0.7,0-1.2-0.6-1.7
	c-1.5-1.4-2.9-2.8-4.4-4.3c-3.1-3-6.2-6.1-9.3-9.1c-1.6-1.6-3.2-3.2-4.9-4.8c-1.7-1.7-3.4-3.4-5.1-5C0.4,39.1,0.2,39,0,38.7
	c0.8-0.1,1.5-0.3,2.2-0.4c5.3-0.8,10.6-1.5,15.9-2.3c4.7-0.7,9.4-1.4,14.1-2.1c0.5-0.1,1-0.2,1.5-0.2c0.5,0,0.9-0.3,1.1-0.8
	c2.4-5,4.8-9.9,7.2-14.9c1.7-3.5,3.5-7,5.2-10.5c0.7-1.5,1.5-3,2.2-4.5c0.1-0.3,0.3-0.6,0.5-1c0.3,0.5,0.6,1,0.8,1.4
	c2.1,4.3,4.2,8.7,6.3,13c2.7,5.5,5.4,10.9,8,16.4c0.2,0.5,0.6,0.7,1.1,0.8c5.1,0.7,10.2,1.5,15.3,2.2c5.8,0.8,11.6,1.7,17.4,2.5
	c0.3,0,0.7,0.1,1.1,0.2c-0.1,0.2-0.2,0.3-0.3,0.4c-3.1,3.1-6.2,6.1-9.3,9.2c-2.7,2.7-5.5,5.3-8.2,8c-2.2,2.2-4.4,4.4-6.7,6.6
	c-0.4,0.4-0.4,0.7-0.3,1.1c0.9,5.2,1.8,10.4,2.7,15.7c0.8,4.8,1.6,9.7,2.4,14.5c0.2,1,0.4,2,0.5,3c0,0.2,0,0.4,0.1,0.8
	c-1-0.5-1.8-1-2.7-1.4c-3.8-2-7.7-4-11.5-6.1c-2.7-1.5-5.5-2.9-8.2-4.4c-2.7-1.4-5.4-2.9-8.1-4.3c-0.2-0.1-0.6-0.1-0.9,0
	c-6.9,3.6-13.7,7.3-20.6,10.9c-3,1.6-6.1,3.2-9.1,4.8C19.6,97.7,19.4,97.8,19.1,97.9z"/>
</svg>
