<svg fill="none" xmlns="http://www.w3.org/2000/svg" viewBox="0 0 335 192"><path fill="url(#a)" d="M0 0h335v192H0z"/><mask id="c" style="mask-type:alpha" maskUnits="userSpaceOnUse" x="0" y="0" width="335" height="192"><rect width="335" height="192" rx="16" fill="url(#b)"/></mask><g mask="url(#c)"><path opacity=".25" d="M330.365 60.0275c4.936-2.7547 9.766-5.999 13.019-10.6988 6.828-9.9618 3.64-22.5361-1.445-32.5381-5.726-11.2844-13.82-21.5726-22.859-30.4209-9.229-9.0588-19.811-16.7412-31.258-22.7764-11.371-5.9817-23.545-10.3487-36.138-12.7905-12.27-2.3639-24.92-2.9638-37.265-.9-6.078 1.0048-12.112 2.6426-17.809 5.0843-7.478 1.5946-14.882 3.6183-22.108 6.0313-12.201 4.0484-24.55 9.1593-34.077 18.076-4.373 4.0944-8.026 9.0384-9.887 14.7613-1.84 5.587-1.795 11.606-.08 17.1883 3.799 12.4047 14.173 21.1819 24.835 27.7912 6.727 4.1615 13.734 7.768 20.372 12.0549 6.192 4.0089 12.002 8.6124 17.309 13.7643 5.232 5.0984 9.998 10.6951 14.172 16.7008 4.051 5.8057 7.381 12.0423 10.797 18.2643 6.311 11.4725 13.297 23.9125 25.254 30.3475 10.136 5.484 22.578 5.258 32.734-.012 5.087-2.648 9.394-6.488 12.546-11.259 3.518-5.341 5.628-11.415 7.541-17.478 1.923-6.1307 3.627-12.379 6.447-18.1757 2.767-5.7216 6.704-10.4265 11.936-14.0259 4.982-3.5129 10.603-6.008 15.964-8.9889Z" fill="url(#d)"/><mask id="f" style="mask-type:alpha" maskUnits="userSpaceOnUse" x="169" y="46" width="243" height="182"><path d="M408.003 131.008c-1.988-5.432-4.865-10.618-8.843-14.853-4.1-4.388-9.21-7.426-14.779-9.605-5.814-2.271-11.903-3.683-17.778-5.739-5.875-2.0558-11.322-4.8484-15.881-9.1754-8.782-8.3164-13.77-19.7323-21.45-28.9386-3.733-4.4497-8.078-8.2243-13.188-10.9862-5.018-2.7313-10.587-4.4498-16.218-5.217-7.986-1.1047-16.187-.3375-23.836 2.1175-.153.0614-26.775 8.8381-31.12 33.9407-4.375 25.195-20.44-5.4317-62.391 31.486-4.162 3.652-5.08 5.524-6.548 7.672-5.661 8.224-7.191 17.829-6.946 27.741.244 9.974 3.457 19.978 9.363 28.049 6.303 8.593 15.514 13.994 25.764 16.479 11.169 2.701 22.827 1.995 34.149.921 11.842-1.135 23.745-2.885 35.678-2.424 5.753.215 11.506.982 17.044 2.67 5.692 1.718 10.955 4.48 15.881 7.764 9.853 6.536 18.513 14.883 29.13 20.223 5.294 2.67 11.016 4.419 16.922 4.787 5.967.368 11.964-.552 17.655-2.455 11.75-3.959 21.756-12.091 28.549-22.433 7.038-10.679 10.771-23.23 12.179-35.874 1.346-12.029.826-24.673-3.336-36.15Z" fill="url(#e)"/></mask><g opacity=".24" fill="#fff" mask="url(#f)"><path d="M313.112 48.4804c.407-.7048.13-1.6265-.619-2.0587-.748-.4322-1.685-.2112-2.092.4935-.407.7048-.13 1.6264.619 2.0586.749.4322 1.685.2113 2.092-.4934ZM322.034 53.6316c.407-.7048.13-1.6265-.618-2.0587-.749-.4321-1.686-.2112-2.093.4936-.406.7047-.129 1.6264.619 2.0586.749.4322 1.685.2112 2.092-.4935ZM331.119 58.2212c.089-.8165-.525-1.5835-1.372-1.7131-.848-.1296-1.607.4272-1.696 1.2437-.09.8165.525 1.5835 1.372 1.7131.847.1296 1.607-.4272 1.696-1.2437ZM290.741 46.0532c.407-.7048.13-1.6264-.619-2.0586-.748-.4322-1.685-.2113-2.092.4935-.407.7047-.13 1.6264.619 2.0586.749.4322 1.685.2112 2.092-.4935ZM299.664 51.2044c.407-.7048.13-1.6265-.619-2.0586-.749-.4322-1.685-.2113-2.092.4935-.407.7047-.13 1.6264.618 2.0586.749.4322 1.686.2112 2.093-.4935ZM308.57 56.3468c.407-.7047.13-1.6264-.619-2.0586-.748-.4322-1.685-.2112-2.092.4935-.407.7048-.13 1.6264.619 2.0586.748.4322 1.685.2113 2.092-.4935ZM317.492 61.4985c.407-.7047.13-1.6264-.619-2.0586-.749-.4322-1.685-.2112-2.092.4935-.407.7048-.13 1.6264.619 2.0586.748.4322 1.685.2113 2.092-.4935ZM326.582 66.0903c.089-.8165-.525-1.5835-1.372-1.7131-.848-.1295-1.607.4273-1.696 1.2438-.09.8166.524 1.5835 1.372 1.7131.847.1296 1.607-.4273 1.696-1.2438ZM335.321 71.7926c.407-.7048.13-1.6264-.619-2.0586-.748-.4322-1.685-.2112-2.092.4935-.407.7047-.13 1.6264.619 2.0586.748.4322 1.685.2112 2.092-.4935ZM276.893 46.8409c-.674-.5395-1.643-.4691-2.164.1573-.522.6265-.399 1.5716.275 2.1111.674.5396 1.643.4691 2.164-.1573.522-.6264.399-1.5716-.275-2.1111ZM286.207 53.9058c.407-.7048.13-1.6264-.618-2.0586-.749-.4322-1.686-.2113-2.093.4935-.406.7047-.129 1.6264.619 2.0586.749.4322 1.685.2112 2.092-.4935ZM295.129 59.0565c.407-.7048.13-1.6264-.619-2.0586-.748-.4322-1.685-.2112-2.092.4935-.407.7048-.13 1.6264.619 2.0586.748.4322 1.685.2112 2.092-.4935ZM304.036 64.1994c.407-.7047.13-1.6264-.618-2.0586-.749-.4322-1.686-.2112-2.093.4935-.406.7048-.129 1.6264.619 2.0586.749.4322 1.685.2113 2.092-.4935ZM312.958 69.3506c.407-.7047.13-1.6264-.619-2.0586-.748-.4322-1.685-.2112-2.092.4935-.407.7048-.13 1.6265.619 2.0587.748.4321 1.685.2112 2.092-.4936ZM322.047 73.9425c.09-.8166-.525-1.5835-1.372-1.7131-.847-.1296-1.607.4272-1.696 1.2438-.09.8165.525 1.5835 1.372 1.7131.847.1296 1.607-.4273 1.696-1.2438ZM330.788 79.6442c.407-.7047.13-1.6264-.619-2.0585-.748-.4322-1.685-.2113-2.092.4935-.407.7047-.13 1.6264.619 2.0586.748.4322 1.685.2112 2.092-.4936ZM254.937 46.3228c.407-.7048.13-1.6265-.618-2.0587-.749-.4321-1.686-.2112-2.093.4936-.406.7047-.129 1.6264.619 2.0586.749.4321 1.685.2112 2.092-.4935ZM263.845 51.4652c.407-.7048.13-1.6264-.619-2.0586-.749-.4322-1.685-.2113-2.092.4935-.407.7047-.13 1.6264.618 2.0586.749.4322 1.686.2112 2.093-.4935ZM272.356 54.6944c-.674-.5395-1.643-.469-2.164.1574-.522.6264-.399 1.5716.275 2.1111.674.5395 1.643.469 2.164-.1574.522-.6264.399-1.5716-.275-2.1111ZM281.674 61.7593c.406-.7047.129-1.6264-.619-2.0586-.749-.4322-1.685-.2113-2.092.4935-.407.7047-.13 1.6264.618 2.0586.749.4322 1.686.2112 2.093-.4935ZM290.595 66.9095c.407-.7047.13-1.6264-.619-2.0586-.748-.4321-1.685-.2112-2.092.4936-.407.7047-.13 1.6264.619 2.0586.749.4321 1.685.2112 2.092-.4936ZM299.503 72.0525c.406-.7048.129-1.6264-.619-2.0586-.749-.4322-1.685-.2113-2.092.4935-.407.7047-.13 1.6264.618 2.0586.749.4322 1.686.2112 2.093-.4935ZM308.424 77.2037c.407-.7048.13-1.6264-.619-2.0586-.748-.4322-1.685-.2113-2.092.4935-.407.7047-.13 1.6264.619 2.0586.749.4322 1.685.2112 2.092-.4935ZM317.512 81.7956c.09-.8165-.525-1.5835-1.372-1.7131-.848-.1296-1.607.4273-1.696 1.2438-.09.8165.525 1.5834 1.372 1.713.847.1296 1.607-.4272 1.696-1.2437ZM326.254 87.4968c.407-.7047.13-1.6264-.619-2.0586-.748-.4321-1.685-.2112-2.092.4936-.407.7047-.13 1.6264.619 2.0586.748.4321 1.685.2112 2.092-.4936ZM335.161 92.6398c.407-.7048.13-1.6265-.619-2.0587-.748-.4322-1.685-.2112-2.092.4935-.407.7048-.13 1.6265.619 2.0587.748.4321 1.685.2112 2.092-.4935ZM241.601 47.8993c-.241-.8039-1.099-1.2994-1.916-1.1067-.817.1928-1.284 1.0007-1.042 1.8046.241.804 1.1 1.2994 1.917 1.1067.817-.1927 1.283-1.0007 1.041-1.8046ZM250.403 54.1753c.407-.7047.13-1.6264-.619-2.0586-.748-.4322-1.685-.2112-2.092.4935-.407.7048-.13 1.6265.619 2.0587.748.4321 1.685.2112 2.092-.4936ZM259.311 59.3178c.407-.7048.13-1.6264-.619-2.0586-.748-.4322-1.685-.2113-2.092.4935-.407.7047-.13 1.6264.619 2.0586.748.4322 1.685.2112 2.092-.4935ZM267.914 62.6283c-.635-.5825-1.61-.5793-2.178.0072-.568.5865-.514 1.5343.122 2.1168.635.5826 1.61.5794 2.178-.0071.568-.5866.513-1.5343-.122-2.1169ZM277.14 69.611c.407-.7048.13-1.6265-.618-2.0587-.749-.4322-1.686-.2112-2.093.4935-.407.7048-.129 1.6265.619 2.0587.749.4322 1.685.2112 2.092-.4935ZM286.061 74.7621c.407-.7047.13-1.6264-.618-2.0586-.749-.4322-1.686-.2112-2.092.4936-.407.7047-.13 1.6264.618 2.0585.749.4322 1.685.2113 2.092-.4935ZM294.969 79.9051c.407-.7048.13-1.6265-.619-2.0587-.748-.4321-1.685-.2112-2.092.4936-.407.7047-.13 1.6264.619 2.0586.749.4322 1.685.2112 2.092-.4935ZM303.891 85.0563c.407-.7048.13-1.6264-.619-2.0586-.748-.4322-1.685-.2113-2.092.4935-.407.7047-.13 1.6264.619 2.0586.748.4322 1.685.2112 2.092-.4935ZM312.917 89.0748c-.241-.8039-1.1-1.2994-1.917-1.1067-.817.1927-1.283 1.0007-1.042 1.8046.242.804 1.1 1.2994 1.917 1.1067.817-.1927 1.284-1.0006 1.042-1.8046ZM321.72 95.3494c.407-.7047.13-1.6264-.618-2.0586-.749-.4322-1.686-.2112-2.093.4935-.407.7048-.13 1.6265.619 2.0586.749.4322 1.685.2113 2.092-.4935ZM330.628 100.493c.406-.7049.129-1.6266-.619-2.0588-.749-.4322-1.685-.2113-2.092.4935-.407.7047-.13 1.6263.618 2.0583.749.432 1.686.212 2.093-.493ZM219.119 46.5835c.407-.7047.13-1.6264-.619-2.0586-.748-.4322-1.685-.2112-2.092.4935-.407.7048-.13 1.6265.619 2.0586.749.4322 1.685.2113 2.092-.4935ZM228.041 51.7343c.407-.7048.13-1.6264-.619-2.0586-.748-.4322-1.685-.2112-2.092.4935-.407.7047-.13 1.6264.619 2.0586.748.4322 1.685.2112 2.092-.4935ZM237.124 56.3257c.089-.8166-.525-1.5835-1.373-1.7131-.847-.1296-1.606.4272-1.696 1.2438-.089.8165.525 1.5835 1.373 1.7131.847.1296 1.606-.4273 1.696-1.2438ZM245.87 62.0279c.407-.7047.13-1.6264-.619-2.0586-.749-.4322-1.685-.2112-2.092.4935-.407.7048-.13 1.6265.619 2.0586.748.4322 1.685.2113 2.092-.4935ZM254.777 67.1704c.407-.7048.13-1.6265-.619-2.0586-.748-.4322-1.685-.2113-2.092.4935-.407.7047-.13 1.6264.619 2.0586.748.4322 1.685.2112 2.092-.4935ZM263.28 70.4023c-.674-.5395-1.643-.469-2.164.1574-.522.6264-.399 1.5716.275 2.1111.674.5395 1.643.4691 2.164-.1573.522-.6265.399-1.5716-.275-2.1112ZM272.606 77.4645c.407-.7048.13-1.6264-.619-2.0586-.748-.4322-1.685-.2113-2.092.4935-.407.7047-.13 1.6264.619 2.0586.748.4322 1.685.2112 2.092-.4935ZM281.528 82.6156c.407-.7047.13-1.6264-.619-2.0585-.748-.4322-1.685-.2113-2.092.4935-.407.7047-.13 1.6264.619 2.0586.748.4322 1.685.2112 2.092-.4936ZM290.435 87.7577c.407-.7048.13-1.6265-.618-2.0587-.749-.4322-1.686-.2112-2.092.4935-.407.7048-.13 1.6265.618 2.0587.749.4321 1.686.2112 2.092-.4935ZM299.357 92.9089c.407-.7048.13-1.6265-.619-2.0586-.748-.4322-1.685-.2113-2.092.4935-.407.7047-.13 1.6264.619 2.0586.748.4322 1.685.2112 2.092-.4935ZM308.442 97.5003c.09-.8165-.525-1.5834-1.372-1.7131-.847-.1296-1.607.4273-1.696 1.2438-.09.8165.525 1.5834 1.372 1.713.847.1297 1.607-.4272 1.696-1.2437ZM317.186 103.202c.407-.704.13-1.626-.618-2.058-.749-.432-1.686-.211-2.092.493-.407.705-.13 1.627.618 2.059.749.432 1.685.211 2.092-.494ZM326.094 108.345c.407-.705.13-1.626-.619-2.059-.749-.432-1.685-.211-2.092.494-.407.705-.13 1.626.619 2.058.748.433 1.685.212 2.092-.493ZM334.598 111.576c-.674-.54-1.643-.469-2.164.157-.522.626-.398 1.572.275 2.111.674.54 1.643.469 2.165-.157.521-.627.398-1.572-.276-2.111ZM205.67 49.3072c.407-.7047.13-1.6264-.618-2.0586-.749-.4322-1.686-.2113-2.093.4935-.407.7047-.13 1.6264.619 2.0586.749.4321 1.685.2112 2.092-.4935ZM214.577 54.4496c.407-.7047.13-1.6264-.619-2.0586-.748-.4322-1.685-.2112-2.092.4935-.407.7047-.13 1.6264.619 2.0586.748.4322 1.685.2112 2.092-.4935ZM223.499 59.6008c.407-.7047.13-1.6264-.619-2.0586-.748-.4322-1.685-.2112-2.092.4935-.407.7047-.13 1.6264.619 2.0586.749.4322 1.685.2112 2.092-.4935ZM232.587 64.1945c.09-.8165-.525-1.5835-1.372-1.7131-.847-.1296-1.607.4273-1.696 1.2438-.09.8165.525 1.5835 1.372 1.7131.847.1296 1.607-.4273 1.696-1.2438ZM241.328 69.8944c.406-.7047.129-1.6263-.619-2.0585-.749-.4322-1.685-.2113-2.092.4935-.407.7047-.13 1.6263.618 2.0585.749.4322 1.686.2113 2.093-.4935ZM250.235 75.0369c.407-.7047.13-1.6264-.619-2.0586-.748-.4322-1.685-.2113-2.092.4935-.407.7047-.13 1.6264.619 2.0586.748.4321 1.685.2112 2.092-.4935ZM258.755 78.2656c-.673-.5395-1.642-.469-2.164.1574-.521.6264-.398 1.5715.276 2.1111.673.5395 1.642.469 2.164-.1574.522-.6264.398-1.5715-.276-2.1111ZM268.064 85.3305c.407-.7047.13-1.6264-.618-2.0586-.749-.4322-1.686-.2112-2.093.4935-.406.7047-.129 1.6264.619 2.0586.749.4322 1.685.2113 2.092-.4935ZM276.986 90.4817c.407-.7047.13-1.6264-.618-2.0586-.749-.4322-1.686-.2112-2.092.4935-.407.7048-.13 1.6264.618 2.0586.749.4322 1.685.2112 2.092-.4935ZM285.893 95.6242c.407-.7048.13-1.6264-.619-2.0586-.748-.4322-1.685-.2113-2.092.4935-.407.7047-.13 1.6263.619 2.0585.748.4322 1.685.2113 2.092-.4934ZM294.816 100.776c.407-.705.13-1.6265-.619-2.0587-.748-.4322-1.685-.2113-2.092.4934-.407.7048-.13 1.6263.619 2.0583.748.433 1.685.212 2.092-.493ZM303.906 105.369c.09-.817-.525-1.584-1.372-1.713-.847-.13-1.607.427-1.696 1.243-.09.817.525 1.584 1.372 1.713.847.13 1.607-.427 1.696-1.243ZM312.644 111.069c.407-.704.13-1.626-.618-2.058-.749-.432-1.686-.211-2.093.493-.406.705-.129 1.627.619 2.059.749.432 1.685.211 2.092-.494ZM321.552 116.212c.406-.705.129-1.626-.619-2.059-.749-.432-1.685-.211-2.092.494-.407.705-.13 1.626.618 2.058.749.433 1.686.212 2.093-.493ZM330.073 119.441c-.673-.54-1.642-.469-2.164.157-.521.626-.398 1.572.276 2.111.674.54 1.642.469 2.164-.157.522-.627.398-1.572-.276-2.111ZM182.899 44.945c-.673-.5395-1.642-.469-2.164.1574-.521.6264-.398 1.5716.276 2.1111.673.5395 1.642.469 2.164-.1574.522-.6264.398-1.5716-.276-2.1111ZM192.214 52.009c.407-.7048.13-1.6264-.619-2.0586-.748-.4322-1.685-.2113-2.092.4935-.407.7047-.13 1.6264.619 2.0586.748.4322 1.685.2112 2.092-.4935ZM201.136 57.1597c.407-.7047.13-1.6264-.619-2.0586-.748-.4322-1.685-.2112-2.092.4935-.407.7048-.13 1.6265.619 2.0586.748.4322 1.685.2113 2.092-.4935ZM210.043 62.3031c.407-.7048.13-1.6264-.618-2.0586-.749-.4322-1.686-.2113-2.093.4935-.406.7047-.129 1.6264.619 2.0586.749.4322 1.685.2112 2.092-.4935ZM218.966 67.4534c.407-.7048.13-1.6265-.619-2.0587-.748-.4321-1.685-.2112-2.092.4936-.407.7047-.13 1.6264.619 2.0586.748.4322 1.685.2112 2.092-.4935ZM228.052 72.0471c.089-.8165-.525-1.5834-1.372-1.713-.848-.1296-1.607.4272-1.696 1.2437-.09.8165.524 1.5835 1.372 1.7131.847.1296 1.607-.4273 1.696-1.2438ZM236.795 77.747c.407-.7047.13-1.6264-.619-2.0586-.748-.4322-1.685-.2112-2.092.4935-.407.7048-.13 1.6264.619 2.0586.748.4322 1.685.2112 2.092-.4935ZM245.701 82.8894c.407-.7047.13-1.6264-.619-2.0586-.748-.4322-1.685-.2112-2.092.4935-.407.7048-.13 1.6265.619 2.0586.749.4322 1.685.2113 2.092-.4935ZM254.217 86.1196c-.673-.5395-1.642-.469-2.164.1574-.521.6264-.398 1.5715.276 2.1111.673.5395 1.642.469 2.164-.1574.522-.6264.398-1.5716-.276-2.1111ZM263.53 93.1831c.407-.7048.13-1.6264-.619-2.0586-.748-.4322-1.685-.2113-2.092.4935-.407.7047-.13 1.6264.619 2.0586.749.4322 1.685.2112 2.092-.4935ZM272.453 98.3338c.406-.7048.13-1.6264-.619-2.0586-.749-.4322-1.685-.2112-2.092.4935-.407.7048-.13 1.6264.618 2.0586.749.4322 1.686.2112 2.093-.4935ZM281.36 103.477c.406-.705.129-1.627-.619-2.059-.749-.432-1.685-.211-2.092.494-.407.704-.13 1.626.618 2.058.749.432 1.686.211 2.093-.493ZM290.282 108.628c.407-.705.13-1.626-.619-2.059-.749-.432-1.685-.211-2.092.494-.407.705-.13 1.626.618 2.058.749.433 1.686.212 2.093-.493ZM299.371 113.222c.089-.817-.525-1.584-1.372-1.713-.848-.13-1.607.427-1.696 1.243-.09.817.524 1.584 1.372 1.713.847.13 1.607-.427 1.696-1.243ZM308.11 118.922c.407-.705.13-1.627-.618-2.059-.749-.432-1.685-.211-2.092.493-.407.705-.13 1.627.618 2.059.749.432 1.686.211 2.092-.493ZM317.018 124.064c.407-.704.13-1.626-.619-2.058-.748-.432-1.685-.211-2.092.493-.407.705-.13 1.627.619 2.059.748.432 1.685.211 2.092-.494ZM325.536 127.294c-.674-.54-1.643-.469-2.164.157-.522.626-.398 1.572.275 2.111.674.54 1.643.469 2.165-.157.521-.627.398-1.572-.276-2.111ZM334.847 134.358c.407-.705.13-1.627-.619-2.059-.748-.432-1.685-.211-2.092.494-.407.704-.13 1.626.619 2.058.748.432 1.685.211 2.092-.493ZM169.852 49.5679c.407-.7047.13-1.6264-.619-2.0586-.749-.4322-1.685-.2112-2.092.4935-.407.7048-.13 1.6264.618 2.0586.749.4322 1.686.2113 2.093-.4935ZM178.362 52.7981c-.674-.5395-1.643-.4691-2.164.1573-.522.6264-.399 1.5716.275 2.1111.674.5396 1.643.4691 2.164-.1573.522-.6264.399-1.5716-.275-2.1111ZM187.68 59.8616c.407-.7048.13-1.6265-.619-2.0587-.748-.4321-1.685-.2112-2.092.4936-.407.7047-.13 1.6264.619 2.0586.749.4322 1.685.2112 2.092-.4935ZM196.603 65.0123c.407-.7047.13-1.6264-.619-2.0586-.749-.4322-1.685-.2112-2.092.4935-.407.7048-.13 1.6264.619 2.0586.748.4322 1.685.2113 2.092-.4935ZM205.509 70.1557c.407-.7048.13-1.6265-.619-2.0586-.748-.4322-1.685-.2113-2.092.4935-.407.7047-.13 1.6264.619 2.0586.748.4322 1.685.2112 2.092-.4935ZM214.432 75.3064c.406-.7047.129-1.6264-.619-2.0586-.749-.4322-1.685-.2112-2.092.4935-.407.7048-.13 1.6264.618 2.0586.749.4322 1.686.2113 2.093-.4935ZM223.518 79.8992c.089-.8165-.525-1.5835-1.372-1.7131-.848-.1296-1.607.4273-1.697 1.2438-.089.8165.525 1.5835 1.373 1.7131.847.1296 1.606-.4273 1.696-1.2438ZM232.261 85.6001c.406-.7048.129-1.6265-.619-2.0587-.749-.4321-1.685-.2112-2.092.4936-.407.7047-.13 1.6264.618 2.0586.749.4322 1.686.2112 2.093-.4935ZM241.167 90.7425c.407-.7048.13-1.6264-.618-2.0586-.749-.4322-1.686-.2113-2.092.4935-.407.7047-.13 1.6264.618 2.0586.749.4322 1.686.2112 2.092-.4935ZM249.68 93.9727c-.674-.5395-1.643-.4691-2.165.1573-.521.6264-.398 1.5716.276 2.1111.674.5395 1.643.4691 2.164-.1573.522-.6264.398-1.5716-.275-2.1111ZM258.997 101.037c.407-.705.13-1.6268-.619-2.059-.748-.4322-1.685-.2113-2.092.4935-.407.7045-.13 1.6265.619 2.0585.748.432 1.685.211 2.092-.493ZM267.919 106.187c.407-.705.13-1.627-.619-2.059-.748-.432-1.685-.211-2.092.494-.407.705-.13 1.626.619 2.058.748.433 1.685.212 2.092-.493ZM276.826 111.329c.407-.704.13-1.626-.619-2.058-.749-.433-1.685-.212-2.092.493-.407.705-.13 1.627.619 2.059.748.432 1.685.211 2.092-.494ZM285.748 116.481c.407-.705.13-1.626-.619-2.059-.748-.432-1.685-.211-2.092.494-.407.705-.13 1.626.619 2.058.748.433 1.685.212 2.092-.493ZM294.835 121.074c.09-.817-.525-1.584-1.372-1.713-.847-.13-1.607.427-1.696 1.243-.09.817.525 1.584 1.372 1.714.848.129 1.607-.428 1.696-1.244ZM303.577 126.775c.407-.705.13-1.627-.618-2.059-.749-.432-1.686-.211-2.093.494-.406.704-.129 1.626.619 2.058.749.432 1.685.211 2.092-.493ZM312.484 131.917c.407-.705.13-1.626-.619-2.059-.749-.432-1.685-.211-2.092.494-.407.705-.13 1.626.618 2.059.749.432 1.686.211 2.093-.494ZM320.998 135.147c-.674-.539-1.643-.469-2.165.158-.521.626-.398 1.571.276 2.111.674.539 1.643.469 2.164-.158.522-.626.398-1.571-.275-2.111ZM330.313 142.21c.407-.704.13-1.626-.619-2.058-.748-.433-1.685-.212-2.092.493-.407.705-.13 1.627.619 2.059.748.432 1.685.211 2.092-.494ZM173.917 60.7264c-.635-.5826-1.61-.5794-2.178.0072-.568.5865-.514 1.5343.121 2.1168.635.5826 1.61.5794 2.178-.0072.568-.5865.514-1.5343-.121-2.1168ZM183.147 67.7142c.407-.7047.13-1.6264-.619-2.0586-.749-.4322-1.685-.2112-2.092.4935-.407.7047-.13 1.6264.619 2.0586.748.4322 1.685.2112 2.092-.4935ZM192.069 72.865c.407-.7048.13-1.6264-.618-2.0586-.749-.4322-1.686-.2113-2.093.4934-.406.7048-.129 1.6264.619 2.0586.749.4322 1.685.2113 2.092-.4934ZM200.975 78.0078c.407-.7047.13-1.6264-.618-2.0585-.749-.4322-1.686-.2113-2.093.4934-.406.7048-.129 1.6264.619 2.0586.749.4322 1.685.2113 2.092-.4935ZM209.898 83.159c.407-.7047.13-1.6263-.619-2.0585-.748-.4322-1.685-.2113-2.092.4934-.407.7048-.13 1.6264.619 2.0586.748.4322 1.685.2113 2.092-.4935ZM218.925 87.1766c-.241-.8039-1.1-1.2994-1.917-1.1067-.817.1928-1.283 1.0007-1.042 1.8046.242.804 1.1 1.2995 1.917 1.1067.817-.1927 1.284-1.0006 1.042-1.8046ZM227.728 93.4527c.407-.7047.13-1.6264-.619-2.0586-.749-.4322-1.685-.2112-2.092.4935-.407.7047-.13 1.6264.619 2.0586.748.4321 1.685.2112 2.092-.4935ZM236.634 98.5947c.406-.7048.129-1.6264-.619-2.0586-.749-.4322-1.685-.2113-2.092.4934-.407.7048-.13 1.6264.618 2.0586.749.4322 1.686.2113 2.093-.4934ZM245.234 101.906c-.635-.583-1.61-.579-2.178.007-.568.587-.514 1.535.122 2.117.635.583 1.61.579 2.178-.007.568-.587.513-1.534-.122-2.117ZM254.463 108.889c.406-.705.129-1.626-.619-2.058-.749-.433-1.685-.212-2.092.493-.407.705-.13 1.626.618 2.059.749.432 1.686.211 2.093-.494ZM263.385 114.039c.406-.704.129-1.626-.619-2.058-.749-.432-1.685-.211-2.092.493-.407.705-.13 1.627.618 2.059.749.432 1.686.211 2.093-.494ZM272.292 119.182c.407-.705.13-1.626-.619-2.059-.748-.432-1.685-.211-2.092.494-.407.705-.13 1.626.619 2.058.748.433 1.685.212 2.092-.493ZM281.215 124.333c.406-.705.129-1.626-.619-2.058-.749-.433-1.685-.212-2.092.493-.407.705-.13 1.626.618 2.059.749.432 1.686.211 2.093-.494ZM290.241 128.352c-.241-.804-1.099-1.3-1.916-1.107-.817.193-1.284 1.001-1.042 1.805.241.804 1.099 1.299 1.916 1.106.818-.192 1.284-1 1.042-1.804ZM299.043 134.627c.407-.705.13-1.627-.619-2.059-.748-.432-1.685-.211-2.092.494-.407.704-.13 1.626.619 2.058.748.432 1.685.211 2.092-.493ZM307.95 139.77c.407-.705.13-1.627-.618-2.059-.749-.432-1.686-.211-2.093.494-.406.704-.129 1.626.619 2.058.749.432 1.685.211 2.092-.493ZM316.552 143.086c-.635-.583-1.61-.58-2.178.007-.568.586-.513 1.534.122 2.117.635.582 1.61.579 2.178-.007.568-.587.514-1.535-.122-2.117ZM325.779 150.063c.407-.705.13-1.627-.618-2.059-.749-.432-1.686-.211-2.093.494-.407.704-.13 1.626.619 2.058.749.433 1.685.212 2.092-.493ZM334.702 155.215c.407-.705.13-1.627-.619-2.059-.749-.432-1.685-.211-2.092.493-.407.705-.13 1.627.619 2.059.748.432 1.685.211 2.092-.493ZM169.286 68.5056c-.674-.5396-1.643-.4691-2.164.1573-.522.6264-.398 1.5716.275 2.1111.674.5395 1.643.4691 2.165-.1573.521-.6264.398-1.5716-.276-2.1111ZM178.613 75.5677c.406-.7048.129-1.6264-.619-2.0586-.749-.4322-1.685-.2113-2.092.4935-.407.7047-.13 1.6264.618 2.0586.749.4322 1.686.2112 2.093-.4935ZM187.535 80.7175c.407-.7047.13-1.6264-.619-2.0586-.748-.4322-1.685-.2112-2.092.4935-.407.7047-.13 1.6264.619 2.0586.749.4322 1.685.2113 2.092-.4935ZM196.442 85.8604c.407-.7048.13-1.6264-.619-2.0586-.748-.4322-1.685-.2113-2.092.4935-.407.7047-.13 1.6264.619 2.0586.748.4322 1.685.2112 2.092-.4935ZM205.364 91.0116c.407-.7048.13-1.6264-.619-2.0586-.748-.4322-1.685-.2112-2.092.4935-.407.7047-.13 1.6264.619 2.0586.748.4322 1.685.2112 2.092-.4935ZM214.448 95.6044c.089-.8166-.525-1.5836-1.372-1.7131-.848-.1296-1.607.4272-1.697 1.2438-.089.8165.525 1.5835 1.373 1.7131.847.1296 1.606-.4273 1.696-1.2438ZM223.193 101.305c.407-.705.13-1.6262-.619-2.0584-.748-.4322-1.685-.2112-2.092.4935-.407.7049-.13 1.6269.619 2.0589.748.432 1.685.211 2.092-.494ZM232.1 106.448c.407-.705.13-1.627-.618-2.059-.749-.432-1.686-.211-2.093.494-.406.704-.129 1.626.619 2.058.749.432 1.685.211 2.092-.493ZM240.604 109.68c-.674-.54-1.643-.469-2.164.157-.522.626-.398 1.572.275 2.111.674.54 1.643.469 2.165-.157.521-.627.398-1.572-.276-2.111ZM249.929 116.741c.407-.704.13-1.626-.618-2.058-.749-.432-1.686-.212-2.093.493-.407.705-.13 1.627.619 2.059.749.432 1.685.211 2.092-.494ZM258.851 121.893c.407-.705.13-1.626-.618-2.059-.749-.432-1.686-.211-2.093.494-.406.705-.129 1.626.619 2.058.749.433 1.685.212 2.092-.493ZM267.758 127.035c.407-.705.13-1.626-.619-2.059-.748-.432-1.685-.211-2.092.494-.407.705-.13 1.626.619 2.058.749.433 1.685.212 2.092-.493ZM276.681 132.187c.407-.705.13-1.627-.619-2.059-.749-.432-1.685-.211-2.092.494-.407.704-.13 1.626.619 2.058.748.432 1.685.211 2.092-.493ZM285.766 136.778c.09-.816-.525-1.583-1.372-1.713-.847-.129-1.607.428-1.696 1.244-.089.817.525 1.584 1.372 1.713.848.13 1.607-.427 1.696-1.244ZM294.51 142.48c.407-.705.13-1.627-.619-2.059-.749-.432-1.685-.211-2.092.494-.407.704-.13 1.626.619 2.058.748.432 1.685.212 2.092-.493ZM303.417 147.622c.406-.705.129-1.626-.619-2.058-.749-.433-1.685-.212-2.092.493-.407.705-.13 1.627.618 2.059.749.432 1.686.211 2.093-.494ZM311.922 150.854c-.674-.54-1.643-.469-2.165.157-.521.627-.398 1.572.276 2.111.674.54 1.643.469 2.164-.157.522-.627.398-1.572-.275-2.111ZM321.246 157.916c.407-.705.13-1.627-.619-2.059-.748-.432-1.685-.211-2.092.494-.407.705-.13 1.626.619 2.058.748.433 1.685.212 2.092-.493ZM330.168 163.067c.407-.705.13-1.627-.619-2.059-.748-.432-1.685-.211-2.092.494-.407.704-.13 1.626.619 2.058.748.432 1.685.211 2.092-.493ZM174.071 83.4332c.407-.7047.13-1.6264-.618-2.0586-.749-.4322-1.686-.2112-2.092.4935-.407.7048-.13 1.6264.618 2.0586.749.4322 1.685.2113 2.092-.4935ZM182.993 88.5845c.406-.7048.129-1.6265-.619-2.0587-.749-.4321-1.685-.2112-2.092.4935-.407.7048-.13 1.6265.618 2.0587.749.4321 1.686.2112 2.093-.4935ZM191.9 93.7273c.407-.7047.13-1.6264-.619-2.0586-.748-.4322-1.685-.2112-2.092.4935-.407.7048-.13 1.6264.619 2.0586.748.4322 1.685.2113 2.092-.4935ZM200.822 98.8781c.407-.7048.13-1.6264-.618-2.0586-.749-.4322-1.686-.2113-2.092.4935-.407.7047-.13 1.6264.618 2.0586.749.4322 1.685.2112 2.092-.4935ZM209.911 103.474c.089-.817-.525-1.584-1.372-1.713-.848-.13-1.607.427-1.697 1.243-.089.817.525 1.584 1.373 1.713.847.13 1.606-.427 1.696-1.243ZM218.651 109.172c.407-.705.13-1.627-.618-2.059-.749-.432-1.686-.211-2.093.494-.406.704-.129 1.626.619 2.058.749.432 1.685.211 2.092-.493ZM227.558 114.314c.407-.705.13-1.626-.619-2.058-.748-.433-1.685-.212-2.092.493-.407.705-.13 1.626.619 2.059.749.432 1.685.211 2.092-.494ZM236.08 117.544c-.674-.54-1.643-.469-2.165.157-.521.627-.398 1.572.276 2.111.674.54 1.643.469 2.164-.157.522-.626.398-1.572-.275-2.111ZM245.388 124.608c.407-.705.13-1.627-.619-2.059-.748-.432-1.685-.211-2.092.494-.407.704-.13 1.626.619 2.058.748.432 1.685.212 2.092-.493ZM254.31 129.759c.407-.705.13-1.626-.619-2.059-.749-.432-1.685-.211-2.092.494-.407.705-.13 1.626.618 2.058.749.433 1.686.212 2.093-.493ZM263.216 134.901c.407-.704.13-1.626-.619-2.058-.748-.432-1.685-.211-2.092.493-.407.705-.13 1.627.619 2.059.748.432 1.685.211 2.092-.494ZM272.139 140.053c.407-.705.13-1.626-.619-2.058-.749-.433-1.685-.212-2.092.493-.407.705-.13 1.626.618 2.059.749.432 1.686.211 2.093-.494ZM281.229 144.647c.09-.817-.525-1.584-1.372-1.713-.847-.13-1.607.427-1.696 1.244-.089.816.525 1.583 1.372 1.713.848.129 1.607-.428 1.696-1.244ZM289.968 150.347c.407-.705.13-1.627-.619-2.059-.748-.432-1.685-.211-2.092.494-.407.704-.13 1.626.619 2.058.748.432 1.685.211 2.092-.493ZM298.875 155.489c.407-.705.13-1.626-.618-2.058-.749-.433-1.686-.212-2.093.493-.406.705-.129 1.626.619 2.059.749.432 1.685.211 2.092-.494ZM307.398 158.718c-.674-.54-1.643-.469-2.165.157-.521.627-.398 1.572.276 2.111.674.54 1.643.469 2.164-.157.522-.626.398-1.572-.275-2.111ZM316.703 165.783c.407-.705.13-1.627-.618-2.059-.749-.432-1.686-.211-2.093.494-.406.704-.129 1.626.619 2.058.749.433 1.685.212 2.092-.493ZM325.626 170.933c.407-.705.13-1.626-.619-2.058-.748-.433-1.685-.212-2.092.493-.407.705-.13 1.626.619 2.059.748.432 1.685.211 2.092-.494ZM334.533 176.076c.407-.705.13-1.627-.619-2.059-.749-.432-1.685-.211-2.092.493-.407.705-.13 1.627.619 2.059.748.432 1.685.211 2.092-.493ZM169.537 91.2863c.407-.7048.13-1.6264-.619-2.0586-.748-.4322-1.685-.2113-2.092.4935-.407.7047-.13 1.6264.619 2.0586.749.4322 1.685.2112 2.092-.4935ZM178.459 96.437c.407-.7047.13-1.6264-.618-2.0586-.749-.4322-1.686-.2112-2.093.4935-.407.7048-.13 1.6265.619 2.0586.749.4322 1.685.2113 2.092-.4935ZM187.367 101.58c.406-.704.129-1.626-.619-2.0582-.749-.4322-1.685-.2113-2.092.4932-.407.705-.13 1.627.618 2.059.749.432 1.686.211 2.093-.494ZM196.289 106.731c.407-.705.13-1.627-.619-2.059-.748-.432-1.685-.211-2.092.494-.407.704-.13 1.626.619 2.058.748.432 1.685.211 2.092-.493ZM205.376 111.325c.089-.816-.525-1.583-1.373-1.713-.847-.129-1.606.427-1.696 1.244-.089.816.525 1.583 1.373 1.713.847.13 1.606-.427 1.696-1.244ZM214.118 117.024c.407-.704.13-1.626-.619-2.058-.748-.432-1.685-.212-2.092.493-.407.705-.13 1.627.619 2.059.748.432 1.685.211 2.092-.494ZM223.025 122.167c.407-.705.13-1.627-.619-2.059-.748-.432-1.685-.211-2.092.494-.407.704-.13 1.626.619 2.058.748.432 1.685.211 2.092-.493ZM231.542 125.397c-.674-.539-1.643-.469-2.164.158-.522.626-.398 1.571.275 2.111.674.539 1.643.469 2.165-.158.521-.626.398-1.571-.276-2.111ZM240.854 132.46c.407-.704.13-1.626-.619-2.058-.748-.432-1.685-.211-2.092.493-.407.705-.13 1.627.619 2.059.748.432 1.685.211 2.092-.494ZM249.776 137.611c.407-.705.13-1.626-.619-2.058-.748-.433-1.685-.212-2.092.493-.407.705-.13 1.626.619 2.059.748.432 1.685.211 2.092-.494ZM258.683 142.754c.407-.705.13-1.626-.619-2.059-.749-.432-1.685-.211-2.092.494-.407.705-.13 1.626.619 2.059.748.432 1.685.211 2.092-.494ZM267.604 147.905c.407-.704.13-1.626-.618-2.058-.749-.433-1.686-.212-2.092.493-.407.705-.13 1.627.618 2.059.749.432 1.686.211 2.092-.494ZM276.695 152.5c.089-.817-.525-1.584-1.373-1.713-.847-.13-1.606.427-1.696 1.244-.089.816.525 1.583 1.373 1.713.847.129 1.606-.428 1.696-1.244ZM285.435 158.199c.407-.704.13-1.626-.619-2.058-.749-.432-1.685-.212-2.092.493-.407.705-.13 1.627.619 2.059.748.432 1.685.211 2.092-.494ZM294.342 163.342c.406-.705.129-1.627-.619-2.059-.749-.432-1.685-.211-2.092.494-.407.704-.13 1.626.618 2.058.749.432 1.686.212 2.093-.493ZM302.86 166.572c-.674-.54-1.643-.469-2.165.157-.521.627-.398 1.572.276 2.111.674.54 1.643.469 2.164-.157.522-.626.398-1.572-.275-2.111ZM312.17 173.635c.406-.704.129-1.626-.619-2.058-.749-.432-1.685-.211-2.092.493-.407.705-.13 1.627.618 2.059.749.432 1.686.211 2.093-.494ZM321.092 178.787c.407-.705.13-1.627-.619-2.059-.748-.432-1.685-.211-2.092.494-.407.704-.13 1.626.619 2.058.749.432 1.685.211 2.092-.493ZM329.999 183.929c.407-.705.13-1.626-.619-2.059-.748-.432-1.685-.211-2.092.494-.407.705-.13 1.626.619 2.059.748.432 1.685.211 2.092-.494ZM173.926 104.29c.407-.705.13-1.627-.618-2.059-.749-.432-1.686-.211-2.092.494-.407.704-.13 1.626.618 2.058.749.432 1.685.211 2.092-.493ZM182.832 109.433c.407-.705.13-1.626-.618-2.059-.749-.432-1.686-.211-2.093.494-.406.705-.129 1.626.619 2.058.749.433 1.685.212 2.092-.493ZM191.755 114.584c.407-.705.13-1.627-.619-2.059-.748-.432-1.685-.211-2.092.494-.407.704-.13 1.626.619 2.058.748.432 1.685.211 2.092-.493ZM200.841 119.178c.09-.817-.524-1.584-1.372-1.713-.847-.13-1.607.427-1.696 1.244-.089.816.525 1.583 1.372 1.713.848.129 1.607-.428 1.696-1.244ZM209.584 124.877c.407-.705.13-1.627-.618-2.059-.749-.432-1.686-.211-2.093.494-.406.705-.129 1.626.619 2.058.749.433 1.685.212 2.092-.493ZM218.491 130.02c.407-.705.13-1.627-.619-2.059-.749-.432-1.685-.211-2.092.494-.407.704-.13 1.626.618 2.058.749.432 1.686.212 2.093-.493ZM227.004 133.251c-.674-.54-1.643-.469-2.165.157-.521.627-.398 1.572.276 2.111.674.54 1.643.469 2.164-.157.522-.626.398-1.572-.275-2.111ZM236.32 140.314c.407-.705.13-1.627-.618-2.059-.749-.432-1.685-.211-2.092.494-.407.705-.13 1.626.618 2.058.749.433 1.686.212 2.092-.493ZM245.242 145.464c.407-.705.13-1.626-.619-2.058-.748-.433-1.685-.212-2.092.493-.407.705-.13 1.626.619 2.059.749.432 1.685.211 2.092-.494ZM254.149 150.607c.406-.705.129-1.627-.619-2.059-.749-.432-1.685-.211-2.092.493-.407.705-.13 1.627.618 2.059.749.432 1.686.211 2.093-.493ZM263.071 155.758c.407-.704.13-1.626-.619-2.058-.748-.433-1.685-.212-2.092.493-.407.705-.13 1.627.619 2.059.749.432 1.685.211 2.092-.494ZM272.16 160.352c.089-.817-.525-1.583-1.373-1.713-.847-.13-1.606.427-1.696 1.244-.089.816.525 1.583 1.372 1.713.848.129 1.607-.427 1.697-1.244ZM280.901 166.052c.407-.705.13-1.627-.619-2.059-.748-.432-1.685-.211-2.092.494-.407.705-.13 1.626.619 2.058.748.433 1.685.212 2.092-.493ZM289.807 171.194c.407-.705.13-1.627-.618-2.059-.749-.432-1.686-.211-2.093.494-.406.705-.129 1.626.619 2.058.749.433 1.685.212 2.092-.493ZM298.321 174.425c-.674-.539-1.643-.469-2.164.158-.522.626-.399 1.571.275 2.111.674.539 1.643.469 2.164-.157.522-.627.399-1.572-.275-2.112ZM307.636 181.488c.407-.705.13-1.627-.618-2.059-.749-.432-1.686-.211-2.093.493-.406.705-.129 1.627.619 2.059.749.432 1.685.211 2.092-.493ZM316.558 186.639c.407-.705.13-1.626-.619-2.058-.748-.433-1.685-.212-2.092.493-.407.705-.13 1.627.619 2.059.748.432 1.685.211 2.092-.494ZM325.465 191.781c.407-.705.13-1.626-.619-2.058-.748-.433-1.685-.212-2.092.493-.407.705-.13 1.626.619 2.059.749.432 1.685.211 2.092-.494ZM169.392 112.142c.407-.705.13-1.626-.619-2.058-.749-.433-1.685-.212-2.092.493-.407.705-.13 1.627.619 2.059.748.432 1.685.211 2.092-.494ZM178.299 117.285c.406-.705.129-1.626-.619-2.059-.749-.432-1.685-.211-2.092.494-.407.705-.13 1.626.618 2.059.749.432 1.686.211 2.093-.494ZM187.221 122.436c.407-.704.13-1.626-.619-2.058-.748-.432-1.685-.212-2.092.493-.407.705-.13 1.627.619 2.059.748.432 1.685.211 2.092-.494ZM195.806 125.747c-.635-.582-1.61-.579-2.178.008-.568.586-.514 1.534.121 2.116.635.583 1.61.58 2.178-.007.568-.586.514-1.534-.121-2.117ZM205.05 132.729c.407-.704.13-1.626-.618-2.058-.749-.432-1.685-.211-2.092.493-.407.705-.13 1.627.618 2.059.749.432 1.686.211 2.092-.494ZM213.957 137.872c.407-.704.13-1.626-.618-2.058-.749-.432-1.686-.211-2.093.493-.406.705-.129 1.627.619 2.059.749.432 1.685.211 2.092-.494ZM223 141.892c-.242-.804-1.1-1.299-1.917-1.106-.817.192-1.283 1-1.042 1.804.242.804 1.1 1.3 1.917 1.107.817-.193 1.284-1.001 1.042-1.805ZM231.787 148.166c.407-.705.13-1.626-.619-2.059-.749-.432-1.685-.211-2.092.494-.407.705-.13 1.626.619 2.059.748.432 1.685.211 2.092-.494ZM240.708 153.318c.407-.705.13-1.627-.618-2.059-.749-.432-1.686-.211-2.092.494-.407.704-.13 1.626.618 2.058.749.432 1.685.211 2.092-.493ZM249.615 158.46c.407-.705.13-1.627-.619-2.059-.748-.432-1.685-.211-2.092.494-.407.704-.13 1.626.619 2.058.749.432 1.685.211 2.092-.493ZM258.538 163.61c.407-.704.13-1.626-.619-2.058-.749-.432-1.685-.211-2.092.493-.407.705-.13 1.627.619 2.059.748.432 1.685.211 2.092-.494ZM267.124 166.927c-.635-.583-1.611-.579-2.179.007-.568.587-.513 1.534.122 2.117s1.61.579 2.178-.007c.568-.587.514-1.534-.121-2.117ZM276.367 173.904c.407-.705.13-1.626-.619-2.059-.749-.432-1.685-.211-2.092.494-.407.705-.13 1.626.619 2.059.748.432 1.685.211 2.092-.494ZM285.274 179.047c.406-.705.129-1.626-.619-2.059-.749-.432-1.685-.211-2.092.494-.407.705-.13 1.626.618 2.058.749.433 1.686.212 2.093-.493ZM294.315 183.067c-.242-.804-1.1-1.3-1.917-1.107-.817.193-1.284 1.001-1.042 1.805s1.1 1.299 1.917 1.106c.817-.192 1.283-1 1.042-1.804ZM303.102 189.341c.407-.705.13-1.627-.618-2.059-.749-.432-1.685-.211-2.092.493-.407.705-.13 1.627.618 2.059.749.432 1.686.211 2.092-.493ZM312.025 194.492c.406-.705.129-1.627-.619-2.059-.749-.432-1.685-.211-2.092.494-.407.704-.13 1.626.618 2.058.749.433 1.686.212 2.093-.493ZM173.765 125.138c.407-.705.13-1.627-.619-2.059-.748-.432-1.685-.211-2.092.494-.407.704-.13 1.626.619 2.058.749.432 1.685.211 2.092-.493ZM182.687 130.289c.407-.705.13-1.627-.619-2.059-.748-.432-1.685-.211-2.092.494-.407.705-.13 1.626.619 2.058.748.433 1.685.212 2.092-.493ZM191.771 134.884c.09-.817-.525-1.584-1.372-1.714-.847-.129-1.607.428-1.696 1.244-.09.817.525 1.584 1.372 1.713.847.13 1.607-.427 1.696-1.243ZM200.517 140.583c.407-.705.13-1.627-.619-2.059-.749-.432-1.685-.211-2.092.493-.407.705-.13 1.627.619 2.059.748.432 1.685.211 2.092-.493ZM209.424 145.725c.406-.704.129-1.626-.619-2.058-.749-.432-1.685-.211-2.092.493-.407.705-.13 1.627.618 2.059.749.432 1.686.211 2.093-.494ZM217.928 148.958c-.674-.54-1.643-.469-2.164.157-.522.627-.399 1.572.275 2.111.674.54 1.643.469 2.164-.157.522-.626.399-1.572-.275-2.111ZM227.252 156.019c.407-.705.13-1.627-.619-2.059-.748-.432-1.685-.211-2.092.493-.407.705-.13 1.627.619 2.059.748.432 1.685.211 2.092-.493ZM236.175 161.17c.406-.704.129-1.626-.619-2.058-.749-.433-1.685-.212-2.092.493-.407.705-.13 1.627.618 2.059.749.432 1.686.211 2.093-.494ZM245.081 166.312c.407-.704.13-1.626-.619-2.058-.748-.433-1.685-.212-2.092.493-.407.705-.13 1.627.619 2.059.748.432 1.685.211 2.092-.494ZM254.004 171.463c.406-.704.129-1.626-.619-2.058-.749-.432-1.685-.211-2.092.493-.407.705-.13 1.627.618 2.059.749.432 1.686.211 2.093-.494ZM263.09 176.057c.089-.816-.525-1.583-1.373-1.713-.847-.129-1.606.427-1.696 1.244-.089.816.525 1.583 1.372 1.713.848.13 1.607-.427 1.697-1.244ZM271.833 181.757c.407-.705.13-1.626-.618-2.059-.749-.432-1.686-.211-2.092.494-.407.705-.13 1.626.618 2.059.749.432 1.685.211 2.092-.494ZM280.739 186.9c.407-.705.13-1.627-.618-2.059-.749-.432-1.686-.211-2.093.493-.406.705-.129 1.627.619 2.059.749.432 1.685.211 2.092-.493ZM289.246 190.132c-.674-.539-1.643-.469-2.164.158-.522.626-.399 1.571.275 2.111.674.539 1.643.469 2.164-.157.522-.627.399-1.572-.275-2.112ZM169.224 133.005c.407-.705.13-1.627-.619-2.059-.748-.432-1.685-.211-2.092.494-.407.704-.13 1.626.619 2.058.748.432 1.685.211 2.092-.493ZM178.146 138.155c.406-.704.129-1.626-.619-2.058-.749-.432-1.685-.211-2.092.493-.407.705-.13 1.627.618 2.059.749.432 1.686.211 2.093-.494ZM187.234 142.751c.09-.816-.525-1.583-1.372-1.713-.848-.129-1.607.428-1.696 1.244-.09.817.525 1.584 1.372 1.713.847.13 1.607-.427 1.696-1.244ZM195.974 148.449c.407-.705.13-1.626-.619-2.059-.748-.432-1.685-.211-2.092.494-.407.705-.13 1.626.619 2.059.749.432 1.685.211 2.092-.494ZM204.881 153.592c.407-.705.13-1.626-.618-2.059-.749-.432-1.686-.211-2.092.494-.407.705-.13 1.626.618 2.058.749.433 1.686.212 2.092-.493ZM213.403 156.822c-.673-.539-1.642-.469-2.164.157-.522.627-.398 1.572.276 2.112.673.539 1.642.469 2.164-.158.521-.626.398-1.571-.276-2.111ZM222.711 163.885c.407-.705.13-1.626-.618-2.058-.749-.433-1.686-.212-2.093.493-.406.705-.129 1.626.619 2.059.749.432 1.685.211 2.092-.494ZM231.633 169.036c.407-.704.13-1.626-.619-2.058-.748-.432-1.685-.212-2.092.493-.407.705-.13 1.627.619 2.059.748.432 1.685.211 2.092-.494ZM240.54 174.179c.407-.705.13-1.627-.618-2.059-.749-.432-1.686-.211-2.093.494-.407.704-.13 1.626.619 2.058.749.432 1.685.211 2.092-.493ZM249.461 179.33c.407-.704.13-1.626-.618-2.058-.749-.432-1.686-.211-2.092.493-.407.705-.13 1.627.618 2.059.749.432 1.686.211 2.092-.494ZM258.553 183.926c.09-.817-.525-1.584-1.372-1.713-.848-.13-1.607.427-1.696 1.244-.09.816.525 1.583 1.372 1.713.847.129 1.607-.427 1.696-1.244ZM267.291 189.624c.407-.705.13-1.626-.619-2.059-.748-.432-1.685-.211-2.092.494-.407.705-.13 1.626.619 2.059.748.432 1.685.211 2.092-.494ZM276.198 194.766c.407-.704.13-1.626-.619-2.058-.748-.432-1.685-.211-2.092.493-.407.705-.13 1.627.619 2.059.749.432 1.685.211 2.092-.494ZM173.612 146.008c.407-.705.13-1.626-.618-2.059-.749-.432-1.686-.211-2.093.494-.406.705-.129 1.626.619 2.058.749.433 1.685.212 2.092-.493ZM182.7 150.604c.089-.816-.525-1.583-1.372-1.713-.848-.13-1.607.427-1.697 1.244-.089.816.525 1.583 1.373 1.713.847.129 1.606-.427 1.696-1.244ZM191.44 156.302c.407-.705.13-1.627-.618-2.059-.749-.432-1.686-.211-2.093.494-.406.704-.129 1.626.619 2.058.749.432 1.685.211 2.092-.493ZM200.348 161.444c.407-.705.13-1.626-.619-2.059-.749-.432-1.685-.211-2.092.494-.407.705-.13 1.626.618 2.059.749.432 1.686.211 2.093-.494ZM208.864 164.676c-.673-.54-1.642-.469-2.164.157-.521.626-.398 1.572.276 2.111.673.54 1.642.469 2.164-.157.522-.627.398-1.572-.276-2.111ZM218.177 171.738c.407-.705.13-1.627-.619-2.059-.748-.432-1.685-.211-2.092.494-.407.704-.13 1.626.619 2.058.748.432 1.685.211 2.092-.493ZM227.099 176.889c.407-.705.13-1.627-.619-2.059-.748-.432-1.685-.211-2.092.494-.407.705-.13 1.626.619 2.058.749.433 1.685.212 2.092-.493ZM236.006 182.031c.407-.704.13-1.626-.618-2.058-.749-.432-1.686-.212-2.092.493-.407.705-.13 1.627.618 2.059.749.432 1.686.211 2.092-.494ZM244.928 187.183c.407-.705.13-1.626-.619-2.059-.749-.432-1.685-.211-2.092.494-.407.705-.13 1.626.618 2.059.749.432 1.686.211 2.093-.494ZM254.018 191.778c.089-.816-.525-1.583-1.372-1.713-.848-.13-1.607.427-1.697 1.244-.089.816.525 1.583 1.373 1.713.847.129 1.606-.427 1.696-1.244ZM169.078 153.861c.407-.705.13-1.627-.619-2.059-.748-.432-1.685-.211-2.092.493-.407.705-.13 1.627.619 2.059.748.432 1.685.211 2.092-.493ZM178.165 158.457c.089-.816-.525-1.583-1.373-1.713-.847-.13-1.606.427-1.696 1.244-.089.816.525 1.583 1.373 1.713.847.129 1.606-.427 1.696-1.244ZM186.907 164.154c.407-.705.13-1.626-.619-2.058-.748-.433-1.685-.212-2.092.493-.407.705-.13 1.627.619 2.059.748.432 1.685.211 2.092-.494ZM195.814 169.298c.407-.705.13-1.627-.619-2.059-.748-.432-1.685-.211-2.092.493-.407.705-.13 1.627.619 2.059.748.432 1.685.211 2.092-.493ZM204.327 172.529c-.674-.539-1.643-.469-2.164.157-.522.627-.399 1.572.275 2.112.674.539 1.643.469 2.164-.158.522-.626.399-1.571-.275-2.111ZM213.643 179.59c.407-.704.13-1.626-.618-2.058-.749-.433-1.686-.212-2.093.493-.406.705-.129 1.627.619 2.059.749.432 1.685.211 2.092-.494ZM222.565 184.742c.407-.705.13-1.626-.618-2.059-.749-.432-1.686-.211-2.092.494-.407.705-.13 1.626.618 2.058.749.433 1.685.212 2.092-.493ZM231.472 189.884c.407-.705.13-1.626-.618-2.059-.749-.432-1.686-.211-2.093.494-.407.705-.13 1.626.619 2.058.749.433 1.685.212 2.092-.493ZM173.63 166.309c.089-.816-.525-1.583-1.372-1.713-.848-.13-1.607.427-1.696 1.244-.09.816.524 1.583 1.372 1.713.847.13 1.607-.427 1.696-1.244ZM182.373 172.007c.407-.705.13-1.626-.618-2.058-.749-.433-1.686-.212-2.093.493-.406.705-.129 1.627.619 2.059.749.432 1.685.211 2.092-.494ZM191.281 177.15c.406-.705.129-1.627-.619-2.059-.749-.432-1.685-.211-2.092.494-.407.704-.13 1.626.618 2.058.749.432 1.686.211 2.093-.493ZM199.79 180.383c-.674-.54-1.643-.469-2.164.157-.522.626-.399 1.572.275 2.111.674.54 1.643.469 2.164-.157.522-.627.399-1.572-.275-2.111ZM209.109 187.443c.407-.704.13-1.626-.618-2.058-.749-.432-1.685-.212-2.092.493-.407.705-.13 1.627.618 2.059.749.432 1.686.211 2.092-.494ZM218.032 192.595c.406-.705.129-1.627-.619-2.059-.749-.432-1.685-.211-2.092.493-.407.705-.13 1.627.618 2.059.749.432 1.686.211 2.093-.493ZM169.094 174.161c.09-.816-.525-1.583-1.372-1.713-.847-.129-1.607.427-1.696 1.244-.09.817.525 1.583 1.372 1.713.848.13 1.607-.427 1.696-1.244ZM177.84 179.86c.407-.704.13-1.626-.619-2.058-.748-.432-1.685-.212-2.092.493-.407.705-.13 1.627.619 2.059.748.432 1.685.211 2.092-.494ZM186.747 185.002c.407-.704.13-1.626-.619-2.058-.749-.433-1.685-.212-2.092.493-.407.705-.13 1.627.619 2.059.748.432 1.685.211 2.092-.494ZM195.252 188.236c-.674-.539-1.643-.469-2.164.157-.522.627-.399 1.572.275 2.112.674.539 1.643.469 2.164-.158.522-.626.399-1.571-.275-2.111Z"/></g></g><defs><linearGradient id="a" x1="167.5" y1="0" x2="167.5" y2="192" gradientUnits="userSpaceOnUse"><stop stop-color="#82DBE8"/><stop offset=".4948" stop-color="#33C2D6"/><stop offset=".9948" stop-color="#1C93A2"/></linearGradient><linearGradient id="b" x1="167.5" y1="0" x2="167.5" y2="192" gradientUnits="userSpaceOnUse"><stop stop-color="#FFE894"/><stop offset="1" stop-color="#64E6CF"/></linearGradient><linearGradient id="d" x1="281.419" y1="-42.3579" x2="187.217" y2="90.6614" gradientUnits="userSpaceOnUse"><stop stop-color="#DDF5FA"/><stop offset="1" stop-color="#B2E9F1"/></linearGradient><linearGradient id="e" x1="415.522" y1="130.918" x2="214.548" y2="144.185" gradientUnits="userSpaceOnUse"><stop stop-color="#FFE58D"/><stop offset="1" stop-color="#FFDD61"/></linearGradient></defs></svg>