<?xml version="1.0" standalone="no"?>
<!DOCTYPE svg PUBLIC "-//W3C//DTD SVG 20010904//EN"
 "http://www.w3.org/TR/2001/REC-SVG-20010904/DTD/svg10.dtd">
<svg version="1.0" xmlns="http://www.w3.org/2000/svg"
 width="700.000000pt" height="700.000000pt" viewBox="0 0 700.000000 700.000000"
 preserveAspectRatio="xMidYMid meet">
<metadata>
Created by potrace 1.14, written by Peter Selinger 2001-2017
</metadata>
<g transform="translate(0.000000,700.000000) scale(0.100000,-0.100000)"
fill="#000000" stroke="none">
<path d="M3311 6547 l-673 -452 -25 -80 c-42 -136 -114 -369 -123 -395 -4 -14
-26 -83 -48 -155 -22 -71 -64 -204 -92 -295 -29 -91 -63 -199 -76 -240 -12
-41 -60 -192 -105 -335 -45 -143 -85 -273 -89 -290 -4 -16 -18 -59 -30 -95
-12 -36 -23 -72 -25 -80 -8 -36 -131 -416 -138 -427 -4 -6 -26 -14 -50 -18
-80 -13 -282 -64 -377 -95 -186 -62 -327 -147 -365 -221 -59 -113 56 -227 323
-323 75 -27 323 -92 377 -99 l30 -4 1 -546 c1 -501 5 -627 19 -697 3 -14 8
-38 10 -55 42 -234 183 -498 370 -688 120 -124 190 -175 455 -333 263 -157
371 -237 434 -323 19 -25 57 -102 86 -171 29 -69 53 -126 54 -127 1 -1 11 3
23 10 12 7 47 26 80 43 32 17 123 67 203 111 80 44 195 106 255 138 295 155
444 249 625 394 179 143 352 332 439 479 100 168 190 446 237 727 3 22 8 260
11 530 3 324 8 492 15 496 6 4 47 14 92 24 225 49 437 121 551 190 296 179 99
376 -518 519 -124 29 -142 36 -150 57 -13 34 -361 1060 -665 1962 l-97 287
201 200 200 199 175 47 c96 25 239 64 319 85 80 21 201 54 270 72 l125 34 -40
11 c-22 6 -125 31 -230 56 -166 38 -519 122 -1130 266 -93 22 -183 43 -200 46
-16 2 -37 6 -45 9 -8 2 -318 -200 -689 -448z m867 -18 c114 -27 119 -29 105
-37 -30 -19 -413 -397 -413 -408 0 -7 48 -153 106 -326 58 -172 118 -351 134
-398 16 -47 60 -177 98 -290 280 -821 340 -1000 334 -1001 -4 0 -16 -2 -27 -4
-18 -4 -98 -10 -267 -20 -140 -9 -499 -18 -733 -18 -295 -1 -560 8 -890 29
-71 4 -140 8 -152 8 -16 1 -21 6 -18 16 3 8 25 80 51 160 25 80 101 327 170
550 68 223 131 425 138 450 71 229 91 295 133 432 l48 157 535 360 c294 198
541 360 548 360 8 1 53 -8 100 -20z m-1718 -2874 c25 -2 86 -7 135 -10 50 -4
110 -8 135 -10 229 -20 986 -26 1325 -11 260 11 299 13 385 20 41 3 113 8 160
11 l85 6 59 -178 c33 -98 58 -180 55 -183 -2 -2 -11 -5 -19 -6 -13 -2 -160
-19 -245 -29 -17 -2 -71 -7 -120 -10 -50 -4 -106 -8 -125 -10 -265 -27 -1185
-27 -1480 0 -19 1 -79 6 -133 9 -53 4 -105 9 -115 10 -9 2 -51 7 -92 10 -41 4
-88 9 -105 11 -16 2 -57 7 -90 10 -33 4 -62 9 -64 11 -5 5 73 264 101 336 11
29 2 29 148 13z m30 -809 c36 -3 90 -8 120 -11 234 -23 456 -30 890 -30 344 0
624 7 770 20 79 6 217 17 250 18 l35 2 -1 -255 c0 -140 -3 -273 -7 -294 -34
-187 -163 -367 -330 -460 -124 -70 -361 -141 -537 -163 -98 -12 -375 -8 -460
6 -155 26 -322 74 -430 124 -183 84 -322 272 -382 516 -10 42 -20 517 -11 533
2 4 9 5 16 3 7 -2 41 -6 77 -9z"/>
<path d="M2983 2689 c-72 -21 -133 -114 -133 -203 0 -171 213 -265 347 -152
68 57 90 162 53 244 -44 98 -155 143 -267 111z"/>
<path d="M3834 2686 c-70 -31 -124 -115 -124 -193 0 -174 209 -272 344 -161
112 92 94 275 -34 344 -46 25 -141 30 -186 10z"/>
</g>
</svg>
