<svg width="16" height="16" fill="none" xmlns="http://www.w3.org/2000/svg"><path d="M16 8.019C16 12.424 12.432 16 8 16c-4.394 0-8-3.576-8-8.019C.038 3.576 3.606 0 8 0c4.432 0 8 3.576 8 8.019Z" fill="#E20D18"/><path d="M6.76 12.047H4.432a.337.337 0 0 1-.338-.339V4.292c0-.189.15-.34.338-.34H6.76c.188 0 .338.151.338.34v7.416c0 .188-.15.339-.338.339ZM11.568 12.085H9.239a.337.337 0 0 1-.338-.34V4.293c0-.189.15-.34.338-.34h2.329c.188 0 .338.151.338.34v7.416c0 .226-.15.377-.338.377Z" fill="#fff"/></svg>
