<svg width="19" height="17" fill="none" xmlns="http://www.w3.org/2000/svg"><path d="M8 15.479A7.559 7.559 0 0 1 .446 7.926 7.559 7.559 0 0 1 8 .372a7.559 7.559 0 0 1 7.553 7.554A7.559 7.559 0 0 1 8 15.479Z" fill="#fff"/><path d="M8 .744c3.981 0 7.181 3.237 7.181 7.182 0 3.981-3.237 7.181-7.181 7.181-3.982 0-7.182-3.237-7.182-7.181C.818 3.944 4.018.744 8 .744ZM8 0C3.646 0 .074 3.535.074 7.926.074 12.279 3.61 15.85 8 15.85c4.353 0 7.925-3.535 7.925-7.925C15.888 3.535 12.353 0 8 0Z" fill="#009739"/><path d="M13.99 16.149a4.8 4.8 0 1 0 .001-9.6 4.8 4.8 0 0 0 0 9.6Z" fill="#009739"/><path d="M11.274 8.968h1.005v2.009l1.563-2.01h1.265l-1.786 2.27 1.86 2.493h-1.227l-1.675-2.232v2.232h-1.005V8.968ZM16.41 10.605v.446c.074-.149.185-.26.334-.372.112-.074.223-.149.335-.149h.186v1.005c-.075 0-.149-.037-.223-.037a.616.616 0 0 0-.447.186c-.111.149-.149.335-.149.558v1.377h-.93V10.53h.893v.075Z" fill="#fff"/><path fill-rule="evenodd" clip-rule="evenodd" d="M8.075 1.352a.36.36 0 0 1 .36.36v.893a.36.36 0 0 1-.72 0v-.893a.36.36 0 0 1 .36-.36ZM5.458 2.59a.72.72 0 0 1 .993.225l2.865 4.54c.057.089.09.186.105.284.11.3.01.648-.265.84L5.732 10.86a.72.72 0 0 1-.822-1.182l2.897-2.016-2.574-4.079a.72.72 0 0 1 .225-.993ZM1.86 7.566a.36.36 0 0 0 0 .72h.893a.36.36 0 1 0 0-.72H1.86Zm6.5 5.867a.36.36 0 1 0-.721 0v.893a.36.36 0 1 0 .72 0v-.893Z" fill="#009739"/></svg>
