<?xml version="1.0" encoding="utf-8"?>
<!-- Generator: Adobe Illustrator 22.1.0, SVG Export Plug-In . SVG Version: 6.00 Build 0)  -->
<svg version="1.1" id="Layer_1" xmlns="http://www.w3.org/2000/svg" xmlns:xlink="http://www.w3.org/1999/xlink" x="0px" y="0px"
	 viewBox="0 0 100 100" style="enable-background:new 0 0 100 100;" xml:space="preserve">
<style type="text/css">
	.st0{fill:url(#SVGID_1_);}
</style>
<linearGradient id="SVGID_1_" gradientUnits="userSpaceOnUse" x1="0" y1="50" x2="100.0057" y2="50">
	<stop  offset="0" style="stop-color:#797879"/>
	<stop  offset="0.5" style="stop-color:#020203"/>
	<stop  offset="1" style="stop-color:#797879"/>
</linearGradient>
<path class="st0" d="M100,68.3L89.3,57.7l0,0H68.6l-5.3-5.3l0,0h-27l0,0l0,0h0v0l-5.3,5.3H10.7l0,0L0,68.3l0,0v5.3v13.6v5.3h5.3
	h20.3v4.9h5.3h37.6h5.3v-4.9h20.7h5.3v-5.3V73.7L100,68.3L100,68.3z M25.6,63v5.3H7.5l5.3-5.3L25.6,63L25.6,63z M66.4,63H33.2
	l5.3-5.3h22.6L66.4,63z M73.9,63h13.2l5.3,5.3H73.9V63z M5.3,73.7h20.3v13.6H5.3V73.7z M30.9,92.2V68.3h37.6v23.8H30.9z M94.7,87.3
	H73.9V73.7h20.7V87.3z M50,13.8l2.7,5.5l1.2,2.4l2.6,0.4l6,0.9l-4.4,4.3L56.3,29l0.4,2.6l1,6l-5.4-2.8L50,33.5l-2.3,1.2l-5.4,2.8
	l1-6l0.4-2.6l-1.9-1.8l-4.4-4.3l6-0.9l2.6-0.4l1.2-2.4L50,13.8 M50,2.5l-7.2,14.6l-16.1,2.3l11.6,11.3l-2.7,16L50,39.2l14.4,7.6
	l-2.7-16l11.6-11.3l-16.1-2.3L50,2.5L50,2.5z"/>
</svg>
