<?xml version="1.0" encoding="utf-8"?>
<!-- Generator: Adobe Illustrator 22.1.0, SVG Export Plug-In . SVG Version: 6.00 Build 0)  -->
<svg version="1.1" id="Layer_1" xmlns="http://www.w3.org/2000/svg" xmlns:xlink="http://www.w3.org/1999/xlink" x="0px" y="0px"
	 viewBox="0 0 100 100" style="enable-background:new 0 0 100 100;" xml:space="preserve">
<style type="text/css">
	.st0{fill:url(#SVGID_1_);}
</style>
<linearGradient id="SVGID_1_" gradientUnits="userSpaceOnUse" x1="0" y1="49.9974" x2="100" y2="49.9974">
	<stop  offset="0" style="stop-color:#797879"/>
	<stop  offset="0.5" style="stop-color:#020203"/>
	<stop  offset="1" style="stop-color:#797879"/>
</linearGradient>
<path class="st0" d="M96.7,57.7c0.2-0.7,0.3-1.4,0.3-2.2c0-10.1,0-37.1,0-37.1C97,8.2,80.7,0,60.5,0S24,8.2,24,18.4
	c0,0,0,8.6,0,18.2C10,39.2,0,45.9,0,53.9c0,0,0,14.6,0,24.8C0,88.8,16.3,97,36.5,97c6.5,0,12.5-0.9,17.8-2.3C59,98,64.8,100,71,100
	c16,0,29-13,29-29C100,66.2,98.8,61.7,96.7,57.7z M91,43.1c0,1.4-1,3-2.7,4.6c-1.6-1.2-3.3-2.2-5.1-3c2.9-0.8,5.5-2,7.9-3.8
	C91,41.6,91,42.4,91,43.1z M60.5,6C79.1,6,91,13.3,91,18.4S79.1,30.8,60.5,30.8S30,23.4,30,18.4S41.9,6,60.5,6z M30,30.8
	c0-0.8,0-1.5,0-2.3c6.5,5,17.7,8.3,30.5,8.3s24-3.3,30.5-8.3c0,0.7,0,1.5,0,2.3c0,3.9-7,9.1-18.6,11.3c-0.5,0-0.9,0-1.4,0
	c-2,0-3.9,0.2-5.7,0.6c-6.7-4.3-17.1-7.1-28.8-7.1c-1.2,0-2.3,0-3.5,0.1C31,33.9,30,32.2,30,30.8z M36.5,41.5
	c8.7,0,15.9,1.6,21.1,3.8C49.8,49.4,44,57,42.5,66c-1.9,0.2-3.9,0.3-6,0.3C17.9,66.2,6,58.9,6,53.9C6,48.8,17.9,41.5,36.5,41.5z
	 M6,64c6.5,5,17.7,8.3,30.5,8.3c1.9,0,3.7-0.1,5.5-0.2c0.1,2.2,0.4,4.3,0.9,6.3c-2,0.2-4.2,0.3-6.4,0.3C17.9,78.6,6,71.3,6,66.2
	C6,65.5,6,64.7,6,64z M6,78.6c0-0.6,0-1.4,0-2.3c6.5,5,17.7,8.3,30.5,8.3c3,0,5.9-0.2,8.6-0.5c1,2.1,2.3,4,3.8,5.7
	c-3.7,0.7-7.9,1.2-12.4,1.2C17.9,91,6,83.7,6,78.6z M71,94c-12.7,0-23-10.3-23-23s10.3-23,23-23c12.7,0,23,10.3,23,23S83.7,94,71,94
	z M87.3,70.9c0,1.7-1.3,3-3,3H74v10.3c0,1.7-1.3,3-3,3s-3-1.3-3-3V73.9H57.8c-1.7,0-3-1.3-3-3s1.3-3,3-3H68V57.6c0-1.7,1.3-3,3-3
	s3,1.3,3,3v10.3h10.3C85.9,67.9,87.3,69.2,87.3,70.9z"/>
</svg>
