<?xml version="1.0" encoding="utf-8"?>
<!-- Generator: Adobe Illustrator 22.1.0, SVG Export Plug-In . SVG Version: 6.00 Build 0)  -->
<svg version="1.1" id="Layer_1" xmlns="http://www.w3.org/2000/svg" xmlns:xlink="http://www.w3.org/1999/xlink" x="0px" y="0px"
	 viewBox="0 0 100 100" style="enable-background:new 0 0 100 100;" xml:space="preserve">
<style type="text/css">
	.st0{fill:url(#SVGID_1_);}
</style>
<g>
	<linearGradient id="SVGID_1_" gradientUnits="userSpaceOnUse" x1="0.375" y1="49.5814" x2="99.625" y2="49.5814">
		<stop  offset="0" style="stop-color:#797879"/>
		<stop  offset="0.5" style="stop-color:#020203"/>
		<stop  offset="1" style="stop-color:#797879"/>
	</linearGradient>
	<path class="st0" d="M69,50.8c0,2.4,0.1,3.6,0.6,7.1s0.8,4.9,1.3,6.5c0.4,1.6,0.9,4.1,2.3,5.8s3.4,3.1,5.4,3.1s5.5-1.7,7.3-3.8
		s3.9-5.7,5.2-9.3c1.3-3.6,1.6-5.3,2.4-8.1c0.8-2.9,1-7.3,1-9.8c-0.1-2.5-0.9-10.3-2.8-14.5c-1.9-4.2-5.6-9.7-8.9-12.5
		c-3.2-2.8-8.5-5.2-12.8-6.5c-4.2-1.3-11.2-2-15.9-2c-5.3,0-12.8,1.5-17.9,3.3C31,11.8,25,15.6,21,19.2c-4,3.6-7.7,7.9-10.1,13.1
		C8.4,37.6,6.4,46.1,6.4,53C6.4,57.5,7,63.4,8,67.7c1,4.3,3.4,9.6,5.9,13c2.5,3.4,7.4,7,12.8,9.4s9.8,2.7,16.6,2.7
		c2.5,0,7.6-0.6,10.1-1c2.5-0.5,5.4-1.2,7.5-1.8c2.1-0.6,3.2-0.9,4.5-1.4c1.3-0.5,2.5-1.1,2.7-1.2l2,5.2c-0.1,0.1-0.8,0.4-2.3,1.1
		c-1.4,0.6-3.3,1.3-5.6,2c-2.3,0.7-4.9,1.4-7.9,1.9c-3,0.6-6,0.9-9.1,0.9c-5.6,0-11.1-0.7-16.5-2.1c-5.4-1.4-10.1-3.9-14.3-7.4
		c-4.2-3.5-7.6-8.1-10.1-14c-2.6-5.8-3.8-13.1-3.8-22C0.4,44.5,2,37,5.2,30.5c3.2-6.5,7.4-12,12.5-16.4c5.2-4.4,11-7.7,17.6-10
		c6.6-2.3,13.2-3.4,19.9-3.4C61,0.7,66.6,1.6,72,3.3C77.3,5,82,7.6,86.1,11.2c4.1,3.5,7.3,7.9,9.8,13.3c2.5,5.3,3.7,11.6,3.7,18.8
		c0,2.9-0.4,6.3-1.2,10.4c-0.8,4.1-2.1,8-3.8,11.7c-1.8,3.7-4,6.9-6.8,9.6c-2.8,2.6-6.2,4-10.2,4c-4.7,0-7.4-2.3-9.9-5
		c-2.5-2.7-3.3-8.8-4.4-13c-1.2,4.8-5.8,11.3-8.6,13.8c-2.9,2.4-5.8,2.6-10.9,2.6c-7.1,0-10.1-1.8-13.5-7C27,65.1,26,59.5,26,51
		c0-4.3,0.2-8.1,1.5-11.8c1.3-3.6,2.1-6.4,4.5-9.1s4.2-3.9,7.5-5.4c3.3-1.5,7.5-2,10.4-2.1s4.7,0.3,7.3,0.6c2.6,0.3,5,1.2,7.2,1.6
		c2.6,0.5,1.9,0.4,4.5,1L69,50.8z M51.4,68.3c1.6-1.2,3-2.7,4.2-4.7c1.2-2,2.4-4.9,3.1-7.5c0.7-2.5,1.8-6.2,2.4-9.1s1.3-16,1.3-16
		c-0.7-0.2-4.3-1.3-5.9-1.6c-1.6-0.3-4.6-0.6-5.8-0.6c-2.5,0-4.1-0.4-7.3,0.9s-4.6,2.2-6.5,4.8s-2.6,4-3.2,6.5s-1.4,4.6-1.4,8.3
		s0.5,6.5,0.8,8.9c0.2,2.4,0.9,5.8,2,8.1s3.1,3.4,4.8,4s5,0.6,6.6,0.3C48.1,70.2,49.9,69.4,51.4,68.3z"/>
</g>
</svg>
