<?xml version="1.0" encoding="utf-8"?>
<!-- Generator: Adobe Illustrator 22.1.0, SVG Export Plug-In . SVG Version: 6.00 Build 0)  -->
<svg version="1.1" id="Layer_1" xmlns="http://www.w3.org/2000/svg" xmlns:xlink="http://www.w3.org/1999/xlink" x="0px" y="0px"
	 viewBox="0 0 100 100" style="enable-background:new 0 0 100 100;" xml:space="preserve">
<style type="text/css">
	.st0{fill:url(#SVGID_1_);}
</style>
<linearGradient id="SVGID_1_" gradientUnits="userSpaceOnUse" x1="11.9861" y1="50.006" x2="90.8726" y2="50.006">
	<stop  offset="0" style="stop-color:#797879"/>
	<stop  offset="0.5" style="stop-color:#020203"/>
	<stop  offset="1" style="stop-color:#797879"/>
</linearGradient>
<path class="st0" d="M90.9,46.1c0-17.3-9.8-32.3-24.2-39.7l1.9-4.4L63.9,0L62,4.4c-2.2-0.8-4.4-1.5-6.7-1.9l-1.1,4.7
	c2,0.4,3.9,1,5.8,1.7l-2.2,5.1c-3.6-1.3-7.5-2-11.5-2C27.3,11.9,12,27.2,12,46.1c0,13,7.3,24.4,18,30.2l-2.2,5.1
	c-2.5-1.3-4.8-2.9-7-4.7l-3,3.8c2.5,2,5.1,3.8,8,5.3l-1.9,4.4l4.7,2.1l1.9-4.4c4,1.5,8.3,2.5,12.8,2.8v3.5H21.4v5.8H71v-5.8H49.2
	v-3.5C72.5,89.1,90.9,69.8,90.9,46.1z M19.9,57.4c0.9-2.7,1.8-8.1,3.2-9.5c1.8-1.7,8.3,7.2,13.1,6.5s10-7.7,15.1-10.2
	c5.1-2.4,3-6.6,1.5-10.8c-1.5-4.2-6.6-2.8-9.6-6.2c-2-2.3-4.9-5.9-6.5-8c3-1.1,6.2-1.6,9.5-1.6c7.1,0,13.6,2.6,18.6,6.9
	c-0.3,2.8-0.9,9-0.9,11.1c0,2.8,2.4,8.7,3.5,8.7s-0.5-4.1,2-7.3c1-1.3,2-1.9,2.9-2.3c1.6,3.5,2.5,7.4,2.5,11.6c0,4.3-1,8.3-2.6,12
	c-1.1,0.1-2.4,0.1-3.6-0.1c-3.3-0.8,0-5-3.8-3c-3.8,2-4.3,6.3-7.7,7.8c-3.3,1.6-7.2-0.6-9.8,2c-2.2,2.1-5.8,7.5-6.9,9.3
	C31.2,72.2,23.6,65.8,19.9,57.4z M34.7,78.4c3.6,1.3,7.5,2,11.5,2c18.9,0,34.3-15.3,34.3-34.3c0-13-7.3-24.4-18-30.2l2.2-5
	C77.4,17.6,86,30.9,86,46.1c0,21.9-17.8,39.8-39.8,39.8c-4.8,0-9.5-0.9-13.8-2.5L34.7,78.4z"/>
</svg>
