<?xml version="1.0" encoding="utf-8"?>
<!-- Generator: Adobe Illustrator 22.1.0, SVG Export Plug-In . SVG Version: 6.00 Build 0)  -->
<svg version="1.1" id="Layer_1" xmlns="http://www.w3.org/2000/svg" xmlns:xlink="http://www.w3.org/1999/xlink" x="0px" y="0px"
	 viewBox="0 0 100 100" style="enable-background:new 0 0 100 100;" xml:space="preserve">
<style type="text/css">
	.st0{fill:url(#SVGID_1_);}
</style>
<linearGradient id="SVGID_1_" gradientUnits="userSpaceOnUse" x1="11.8713" y1="50.7689" x2="88.1873" y2="50.7689" gradientTransform="matrix(1 0 0 -1 0 100.8189)">
	<stop  offset="0" style="stop-color:#797879"/>
	<stop  offset="0.5" style="stop-color:#020203"/>
	<stop  offset="1" style="stop-color:#797879"/>
</linearGradient>
<path class="st0" d="M85.3,9.3c-2.1-2.2-4.7-3.4-7.7-3.4c-1.7,0-3.3,0-5.1,0c0.2-3-1.1-5-4-5.9C56.2,0,43.8,0,31.4,0
	c-2.7,1-4.1,2.9-3.9,5.9c-1.5,0-3,0-4.5,0c-6.5,0-11.1,4.6-11.2,11.1c0,22.4,0,44.8,0,67.3c0,2.3-0.1,4.7,0.2,7
	c0.7,4.4,4.3,7.8,8.7,8.6c0.2,0,0.3,0.1,0.5,0.2c19.1,0,38.3,0,57.4,0c1.7-0.4,3.4-0.9,4.9-2c3-2.3,4.5-5.3,4.5-9
	c0-11.8,0-23.7,0-35.5s0-23.6,0.1-35.4C88.1,14.8,87.6,11.8,85.3,9.3z M33.5,5.9c11,0,22,0,33.1,0c0,2,0,3.8,0,5.8
	c-11,0-22,0-33.1,0C33.5,9.8,33.5,7.9,33.5,5.9z M82.2,41.3c0,15.8,0,31.6,0,47.3c0,3.5-2,5.5-5.4,5.5c-17.8,0-35.7,0-53.5,0
	c-3.2,0-5.5-2.2-5.5-5.5c0.1-23.8,0.1-47.6,0.1-71.5c0-3.5,2-5.5,5.5-5.5c1.4,0,2.8,0,4.2,0c0.1,0.7,0.1,1.4,0.2,2
	c0.5,2.2,2.4,3.8,4.7,3.8c11.8,0,23.6,0,35.3,0c2.5,0,4.7-2.1,4.8-4.6c0-0.4,0-0.7,0-1.3c2.2,0.2,4.4-0.4,6.6,0.4
	c2,0.7,3.2,2.5,3.2,4.8C82.2,25,82.2,33.2,82.2,41.3z M41.1,62.1c-0.3,0.9-1,1.7-2,1.9c-1,0.3-2,0-2.8-0.8c-0.7-0.6-1.3-1.3-1.9-1.9
	l-0.9-0.9l-2.7,2.8c-0.6,0.7-1.4,1-2.1,1c-0.3,0-0.7-0.1-1-0.2c-0.9-0.3-1.6-1.1-1.8-2c-0.2-1,0.1-2,0.8-2.8
	c0.7-0.8,1.5-1.5,2.3-2.3l0.6-0.6l-2.3-2.2c-0.3-0.3-0.5-0.5-0.8-0.8c-1-1.2-1-2.9,0.1-3.9c1.1-1.1,2.9-1.1,3.9-0.1
	c0.8,0.8,1.6,1.6,2.4,2.5c0.2,0.2,0.4,0.4,0.6,0.6l0.5-0.5c0.8-0.8,1.6-1.6,2.4-2.4c1-1,2.6-1.2,3.8-0.4c0.7,0.5,1.1,1.2,1.2,2
	c0.1,0.8-0.2,1.6-0.8,2.3c-0.9,0.9-1.8,1.8-2.8,2.8l-0.1,0.1l2.8,2.7C41.2,60,41.5,61,41.1,62.1z M42.4,74.4l-8,13l0,0
	c-0.1,0.2-0.3,0.4-0.4,0.5c-0.1,0-0.1,0.1-0.2,0.1c-0.1,0.1-0.2,0.1-0.2,0.2c-0.1,0-0.1,0.1-0.2,0.1c0,0-0.1,0-0.1,0.1
	c-0.2,0.1-0.4,0.2-0.6,0.2h-0.1c-0.2,0.1-0.5,0.1-0.7,0.1l0,0l0,0c-0.2,0-0.4,0-0.7-0.1h-0.1c-0.2-0.1-0.4-0.1-0.6-0.2
	c0,0-0.1,0-0.1-0.1c0,0-0.1,0-0.1-0.1c-0.1-0.1-0.2-0.1-0.3-0.2c-0.1,0-0.1-0.1-0.2-0.1c-0.2-0.2-0.3-0.3-0.5-0.5l0,0l-5-7.3
	c-0.9-1.4-0.6-3.2,0.8-4.2c1.4-0.9,3.2-0.6,4.2,0.8l2.4,3.5l5.6-9.1c0.9-1.4,2.7-1.9,4.1-1C42.8,71.2,43.3,73,42.4,74.4z M42.5,28.1
	l-8,13l0,0c-0.1,0.2-0.3,0.4-0.4,0.5c-0.1,0.1-0.1,0.1-0.2,0.1c-0.1,0.1-0.2,0.1-0.2,0.2c-0.1,0-0.1,0.1-0.2,0.1c0,0-0.1,0-0.1,0.1
	c-0.2,0.1-0.4,0.2-0.6,0.2h-0.1c-0.2,0.1-0.5,0.1-0.7,0.1l0,0l0,0c-0.2,0-0.4,0-0.7-0.1h-0.1c-0.2-0.1-0.4-0.1-0.6-0.2
	c0,0-0.1,0-0.1-0.1c0,0-0.1,0-0.1-0.1c-0.1-0.1-0.2-0.1-0.3-0.2c-0.1,0-0.1-0.1-0.2-0.1c-0.2-0.2-0.3-0.3-0.5-0.5l0,0l-5-7.3
	c-0.9-1.4-0.6-3.2,0.8-4.2c1.4-0.9,3.2-0.6,4.2,0.8l2.4,3.5l5.6-9.1c0.9-1.4,2.7-1.9,4.1-1C43,24.8,43.4,26.7,42.5,28.1z M73.8,36
	H50c-1.7,0-3-1.3-3-3s1.3-3,3-3h23.8c1.7,0,3,1.3,3,3S75.4,36,73.8,36z M73.8,59.4H50c-1.7,0-3-1.3-3-3s1.3-3,3-3h23.8
	c1.7,0,3,1.3,3,3S75.4,59.4,73.8,59.4z M73.8,82.4H50c-1.7,0-3-1.3-3-3s1.3-3,3-3h23.8c1.7,0,3,1.3,3,3S75.4,82.4,73.8,82.4z"/>
</svg>
