<?xml version="1.0" encoding="utf-8"?>
<!-- Generator: Adobe Illustrator 22.1.0, SVG Export Plug-In . SVG Version: 6.00 Build 0)  -->
<svg version="1.1" id="Layer_1" xmlns="http://www.w3.org/2000/svg" xmlns:xlink="http://www.w3.org/1999/xlink" x="0px" y="0px"
	 viewBox="0 0 100 100" style="enable-background:new 0 0 100 100;" xml:space="preserve">
<style type="text/css">
	.st0{fill:url(#SVGID_1_);}
</style>
<linearGradient id="SVGID_1_" gradientUnits="userSpaceOnUse" x1="0" y1="50" x2="100" y2="50">
	<stop  offset="0" style="stop-color:#797879"/>
	<stop  offset="0.5" style="stop-color:#020203"/>
	<stop  offset="1" style="stop-color:#797879"/>
</linearGradient>
<path class="st0" d="M43.9,30.5c-14.1,0-25.6,11.5-25.6,25.6c0,4.8,1.3,9.3,3.6,13.1L0,91.1l8.9,8.9l21.9-21.9
	c3.8,2.3,8.3,3.6,13.1,3.6c14.1,0,25.6-11.5,25.6-25.6C69.5,42,58,30.5,43.9,30.5z M8.9,94.1l-3-3L19,78l3,3L8.9,94.1z M24.9,78
	l-3-3l2.4-2.4c0.9,1.1,1.9,2,3,3L24.9,78z M43.9,75.7c-10.8,0-19.6-8.8-19.6-19.6c0-10.8,8.8-19.6,19.6-19.6s19.6,8.8,19.6,19.6
	C63.5,66.9,54.7,75.7,43.9,75.7z M100,41.5C100,63.8,82.4,82,60.4,83c8.2-5,13.9-13.7,14.9-23.7c1.7-2.3,3-5.1,6.1-6.7
	c4.6-2.4,0.6,2.7,4.6,3.7c1.5,0.3,3.3,0.3,4.7,0.1C92.8,51.9,94,47,94,41.8c0-5-1-10-2.9-14.3c-1.1,0.4-2.8,1.4-4,2.9
	c-3,4-1.1,9-2.4,9s-4.3-7.2-4.3-10.6c0-2.6,0.8-10.8,1.1-14.3C75,9.2,67.4,6,58.7,6c-4.8,0-8.6,0.9-12.3,2.1c2,2.6,6.1,7.7,8.6,10.5
	c3.6,4.1,9.9,2.4,11.7,7.5c1.3,3.6,2.9,7.2,1.6,10.1c-5.8-7.1-14.6-11.7-24.5-11.7c-11.3,0-21.3,6-26.9,15C18.1,17.6,36.3,0,58.5,0
	C81.4,0,100,18.6,100,41.5z"/>
</svg>
