<?xml version="1.0" encoding="utf-8"?>
<!-- Generator: Adobe Illustrator 22.1.0, SVG Export Plug-In . SVG Version: 6.00 Build 0)  -->
<svg version="1.1" id="Layer_1" xmlns="http://www.w3.org/2000/svg" xmlns:xlink="http://www.w3.org/1999/xlink" x="0px" y="0px"
	 viewBox="0 0 100 100" style="enable-background:new 0 0 100 100;" xml:space="preserve">
<style type="text/css">
	.st0{fill:url(#SVGID_1_);}
</style>
<linearGradient id="SVGID_1_" gradientUnits="userSpaceOnUse" x1="1.818989e-12" y1="50.4359" x2="100" y2="50.4359">
	<stop  offset="0" style="stop-color:#797879"/>
	<stop  offset="0.5" style="stop-color:#020203"/>
	<stop  offset="1" style="stop-color:#797879"/>
</linearGradient>
<path class="st0" d="M73.1,60.3c-0.6,0-1,0-1.5,0c-6,0-11.9,0-17.9,0c-1.7,0-1.7,0-1.7,1.7c0,10.1,0,20.1,0,30.2
	c0,1.9,0,1.9-1.9,1.9c-12.2,0-24.3,0-36.5,0c-0.9,0-1.5-0.2-1.5-1.6c0-11.3,0.1-25.9,0.1-37.2c0-2.1,0-4.1,0-6.2
	c0-0.4,0.3-0.9,0.6-1.1c12.1-9.1,24.2-18.2,36.4-27.3c0.6-0.5,1-0.2,1.4,0.1C60.7,28.4,70.9,35.9,81,43.5c1.9,1.4,3.8,2.8,5.6,4.3
	c0.4,0.3,0.8,1,0.8,1.5c0,14.5,0,29,0,43.6c0,0.9-0.3,1.2-1.2,1.2c-3.9,0-7.7-0.1-11.6,0c-1.2,0-1.4-0.4-1.4-1.5
	c0-10.1,0-20.3,0-30.4C73.3,61.6,73.2,61,73.1,60.3z M23.3,61.5c0,5.9,0,9.5,0,15.4c0,0.8,0.4,1.3,1.2,1.2c5.1,0,10.1,0,15.2,0
	c1.2,0,1.4-0.4,1.4-1.5c0-5,0-10,0-14.9c0-1.1-0.3-1.5-1.5-1.5c-5,0.1-14.2,0-15.1,0C23.7,60.3,23.3,60.8,23.3,61.5z M73.9,24.7
	c-7.7-5.8-15.4-11.6-23-17.4c-0.9-0.6-1.4-0.7-2.3,0C35.4,17.1,22.3,26.8,9.2,36.6c-2.7,2-5.4,4-8,6c-1.3,1-1.5,2.5-0.7,3.6
	c0.8,1.1,2.4,1.3,3.7,0.4c0.3-0.2,0.6-0.4,0.8-0.6c13.9-10.3,27.8-20.7,41.8-31c1-0.7,1.9-1.4,2.9-2.1c0.3,0.2,0.6,0.4,0.8,0.6
	c12,8.8,24,17.6,36.1,26.4c3.1,2.3,6.2,4.5,9.3,6.8c0.9,0.7,2,0.9,2.9,0.3c0.6-0.4,1.1-1.3,1.3-2.1c0.2-1-0.4-1.8-1.3-2.4
	c-3.2-2.1-6.4-4.3-9.7-6.4c-0.9-0.6-1.3-1.2-1.2-2.3c0.1-6,0-12,0.1-18c0-1.2-0.4-1.5-1.5-1.5c-3.3,0.1-6.6,0-9.9,0
	c-1.7,0-1.7,0-1.7,1.8c0,3,0,5.9,0,9.1C74.1,24.9,74,24.8,73.9,24.7z"/>
</svg>
